<?xml version="1.0" encoding="UTF-8"?><svg xmlns="http://www.w3.org/2000/svg" xmlns:xlink="http://www.w3.org/1999/xlink" width="300" height="77" viewBox="0 0 94 24">
    <path fill="#ED1C25" transform="translate(84.83 1.786)" d="M7.22 8.78c.12.007.52 2.146-3.268 2.177-1.477.016-2.415-.381-2.745-.98-.834-1.516.643-3.71 1.216-5.25 0-.008-.035 0-.052 0-.938-.039-1.373.046-2.241.225 0 0-.018-.007-.018-.015-.226-.194-.052-.444.018-.653.035-.149.086-.288.121-.436.035-.163.383-.38.695-.451.47-.101 1.078-.093 1.599-.093.035 0 .052.023.087.023.121.008.208-.093.225-.132a6.1 6.1 0 0 0 .626-2.131 3.227 3.227 0 0 0 0-.576c0-.086-.173-.195-.052-.265.487-.28 2.346-.248 2.988-.163.07.008.088.039.122.055.4.256.348.63.226.925a49.892 49.892 0 0 0-.799 2.053c-.017.055-.017.226.14.257.051.008.12-.015.173-.015.764.039 1.39.039 2.154-.047.244-.023.47-.117.713-.093.104.015-.14.94-.695 1.19-.522.233-1.338.412-2.05.412-.331 0-.505-.031-.765-.094-.139-.03-.278.055-.295.102-.626 1.244-1.72 3.453-1.13 4.145.174.21.486.405 1.043.39.642-.024 1.58-.607 1.963-.56z"/>
    <path fill="#2A3C96" transform="translate(18.32 .213)" d="M12.268 2.014c0 .35-.018.692 0 1.043 0 .023 1.06-.164 1.407-.094 1.408.257 1.13 2-.99 1.735-.157-.016-.417-.148-.435-.078-.055 2.039.017 4.291-.052 6.16-.052.514-1.147.848-2.19.833-1.337-.032-2.241-.498-2.241-1.09-.004-1.92.124-3.82.017-5.685 0-.055-.122-.125-.26-.117-.07.016-.156.031-.226.039-2.068.163-2.52-1.836-.14-1.766.14.008.261.024.4.024.053.007.157 0 .174-.024.035-.023.052-.078.052-.116.053-.6-.312-1.626.574-2.085C9.73.078 11.608.194 13.467.311c.59.039.955.163 1.042.443.087.241.174.941-.486 1.066-.556.109-1.164.148-1.755.194zM0 10.352V1.68C.104.754.226.147 2.259 0 4.1.1 4.413.715 4.5 1.454l-.104 8.836c0 .685-.452 1.416-2.102 1.4C.52 11.675.174 11.185 0 10.352z"/>
    <path fill="#ED1C25" transform="translate(46.48 3.365)" d="M36.374 3.568c-.018-.008-.053-.008-.07-.024-.156-.109-.4-.373-.747-.396-.47-.04-.869.256-1.06.404-1.234 1.089-2.12 2.193-2.954 3.368-.26.35-.816 1.26-.573 1.68a.44.44 0 0 1 .07.21c.034.334-1.408.35-1.877.303-1.182-.14-1.373-.63-1.165-1.12.834-2.022 1.842-4.037 2.277-6.074.07-.296.19-.623.121-.918-.017-.117-.087-.39.209-.459.92-.202 2.728-.405 3.04.249.244.505-.382 1.68-.66 2.24-.051.108-.105.21-.156.311 0 .008-.018.03 0 .03.105-.124.209-.248.313-.364.608-.638 2.432-2.77 4.17-2.66.504.03.817.194.869.42.209.754-.713 2.208-1.807 2.8zM15.349 6.99c.434-1.68 1.112-3.352 1.737-5.025.104-.296.504-1.773-.73-1.92-2.936-.35-4.604 2.1-5.49 3.11-.018.024-.053.039-.105.039-.156 0-.104-.179-.087-.225.244-.56 1.287-2.855-.538-2.964C7.53-.135 5.548 2.65 5.01 2.502 4.472 2.362 6.539.55 4.784.114 3.967-.088 3.186.083 2.49.309c0 .007-.017.007-.017.015C2.108 2.72 1.169 4.975.162 7.34c-.191.435-.521 1.594 1.13 1.594.416 0 1.424-.202 1.65-.334.07-.055 0-.117-.017-.18-.017-.419.034-.855.26-1.267.122-.226.261-.451.435-.669.33-.45 3.458-4.636 4.292-4.55.73.07-1.704 5.382-1.86 5.826-.173.412-.278.887.73 1.058.452.078 1.46.1 1.894-.008.243-.062.261-.241.243-.342-.017-.234-.121-.467-.017-.7.886-1.953 2.502-3.905 4.674-5.67.053-.04.191-.117.296-.094.225.047.19.202.156.288-.539 1.657-1.408 3.36-1.686 5.024-.052.374-.155 1.455.835 1.61.677.102 2.536-.108 2.45-.552-.104-.49-.417-.87-.278-1.384zM25.357 2.4c-1.147 1.58-2.45 3.096-4.291 4.566-.087.032-.21.14-.348.102a.372.372 0 0 1-.226-.187c-.643-1.501.365-4.021 2.172-5.126.243-.148 1.025-.412 1.372-.241.505.25.991.505 1.408.778.052.03-.052.07-.087.109zM29.006.496c.035-.202-.764-.218-1.216-.257-.521-.038-1.06-.015-1.477.117-.174.062-.243.195-.47.202-.12 0-1.302-.396-1.807-.427-2.78-.21-4.465 1.555-5.265 2.457-1.528 1.743-2.762 3.998-1.667 5.85.243.38.643.684 1.529.676 2.571-.023 3.927-1.96 4.76-2.893.052-.055.087-.109.157-.156.017-.008.035.016.052.023 0 .016.018.032.018.047-.14.661-.261 1.284-.104 1.937.069.358.33.848 1.147.98.798.132 2.224-.14 2.189-.591 0-.023 0-.04-.018-.062a1.932 1.932 0 0 1-.07-.303l-.052-.312c0-.109-.017-.21-.017-.319 0-.108-.017-.217-.017-.326 0-.98.243-1.96.695-2.94.573-1.23 1.511-2.45 1.633-3.703z"/>
    <path fill="#2A3C96" transform="translate(.38)" d="M9.493 6.886c-.938.031-1.842.023-2.763-.008-.104-.272.834-2.015 1.303-3.018 0-.023.07-.078.156-.07.088.016.105.086.122.117.434.988.904 1.991 1.216 2.979 0 .008-.017 0-.034 0zm6.725 3.702l-4.78-9.271C11.075.6 10.049.04 8.399.002c-1.86-.046-3.269.63-3.685 1.431L1.065 8.372c-.538 1.018-2.606 3.484 1.077 3.6 3.458.117 3.042-3.017 3.77-3.017h4.432c.052 0 .104.008.104.024.452 1.034.47 2.784 3.441 2.97 1.807.117 2.64-.739 2.328-1.36zm23.718-.972c-.226.101-.4.116-.713.11-1.406.043-1.686-.651-1.786-1.378-.196-.879-.156-1.568.078-2.492.088-.343.613-1.023 1.534-1.047 1.2-.031 1.693.728 1.762 1.102.19.824.471 3.075-.875 3.705zm4.917-6.184c-.034-.73-2.867-.746-3.718-.365-.087.039-.365.241-.4.233-.452-.03-1.025-.249-1.564-.311-1.199-.14-2.485-.14-3.457.234-3.58 1.368-4.605 7.606.746 8.485 1.408.226 3.041-.14 4.205-.443.122-.031.191.093.261.14.122.078.26.17.435.233.504.172 1.285.234 1.91.21.991-.046 1.669-.505 1.669-.925 0-2.497.07-4.994-.087-7.49z"/>
    <path fill="#E41F28" transform="translate(.02 14.109)" d="M0 6.782l92.374.022c1.488-1.064 1.55-2.907 1.47-6.804H9.724C4.984.03 1.266.05 0 6.782z"/>
    <path fill="#F6D806" transform="translate(0 21.812)" d="M0 0h92.076c-1.092.907-1.941 1.436-3.813 1.436H0V0z"/>
</svg>
