<?xml version="1.0" encoding="UTF-8"?><svg xmlns="http://www.w3.org/2000/svg" xmlns:xlink="http://www.w3.org/1999/xlink" width="130" height="150" viewBox="0 0 32 37">
    <path fill="#E41F28" transform="matrix(.1 0 0 -.1 1.93 29)" d="M5.798 284.131L0 278.262V146.731C0 16.236 0 15.028 3.581 9.331 5.457 6.053 8.527 2.6 10.233 1.738 14.155-.334 267.579-.68 270.819 1.392c1.023.863 3.923 4.142 6.31 7.25l4.264 5.868v263.752l-5.799 5.869-5.798 5.869h-258.2l-5.798-5.869zm154.511-28.826c4.093-.863 10.062-3.625 13.131-5.869 5.799-4.661 10.403-15.535 26.775-63.349l8.186-23.475 5.969 3.452c7.333 4.488 22.17 19.505 23.535 23.993 2.046 6.56 4.263 3.107 4.263-6.559-.17-22.957-4.604-41.6-12.961-54.2l-5.969-9.149 8.868-25.892c10.745-31.07 11.597-40.391 4.264-50.23-13.473-17.952-42.465-17.089-51.162 1.553-1.535 3.108-5.969 17.262-9.892 31.243l-7.333 25.374-11.256-1.035c-15.86-1.381-32.403-7.077-41.1-13.637-6.651-5.178-7.674-7.077-12.62-23.302-3.07-9.84-6.822-19.678-8.357-22.095-10.403-16.053-38.371-14.5-49.968 2.762-7.675 11.565-5.97 18.815 25.922 110.472 15.86 45.052 30.186 84.58 32.062 87.687 3.581 5.869 10.573 10.357 19.271 12.601 7.674 1.899 29.674 1.726 38.372-.345z"/>
    <path fill="#E41F28" transform="matrix(.1 0 0 -.1 14.14 16.053)" d="M13.643 45.224c-3.07-10.184-7.333-24.51-9.55-31.76L0 0l7.674 5.351c4.093 2.934 11.597 7.077 16.713 9.148l9.04 3.625-6.311 20.714c-3.581 11.392-6.651 21.576-7.163 22.785-.34 1.208-3.24-6.214-6.31-16.398z"/>
    <path fill="#E41F28" transform="matrix(.1 0 0 -.1 23.74 32.16)" d="M4.472 10.925C-.167 9.739 0 9.964 0 5.495 0 1.705.113 1.366 1.398.687 3.242-.274 5.589-.218 9.054.8c2.348.736 2.962 1.188 3.465 2.659.95 2.715.727 5.26-.503 6.392-1.117 1.018-5.365 1.64-7.544 1.074z"/>
    <path fill="#E41F28" transform="matrix(.1 0 0 -.1 30.62 32.151)" d="M4.472 10.838C-.167 9.65 0 9.819 0 5.577 0 3.371.28 1.335.616.995 2.683-1.098 11.29.373 12.463 2.975c1.062 2.32.839 5.6-.447 6.788-1.117 1.018-5.365 1.64-7.544 1.075z"/>
    <path fill="#2A3C96" transform="matrix(.1 0 0 -.1 .36 36.927)" d="M22.85 58.602c-2.963-.565-4.919-1.414-6.036-2.658-1.006-1.075-8.383-21.155-15.425-41.802C-.344 8.995-.455 6.11 1.054 3.678 2.618 1.019 5.077-.056 8.71.228c3.912.339 5.477 1.81 6.93 6.787l1.174 3.846h18.218l.671-2.658c1.453-5.94 3.8-8.259 8.327-8.202 4.974.057 8.16 3.507 7.657 8.315-.28 2.941-14.028 43.046-15.816 46.27-.559 1.019-1.9 2.263-2.962 2.772-2.068 1.018-7.657 1.697-10.06 1.245zm5.756-26.076l2.459-8.089H25.81c-4.023 0-5.253.17-5.03.735.112.34 1.342 4.186 2.683 8.542 1.341 4.299 2.46 7.636 2.57 7.353.057-.282 1.23-4.129 2.572-8.541z"/>
    <path fill="#2A3C96" transform="matrix(.1 0 0 -.1 6.03 36.927)" d="M3.577 57.98c-.839-.51-1.956-1.698-2.515-2.66C.056 53.68 0 52.04 0 29.528 0 5.543 0 5.487 1.285 3.45 2.683 1.131 4.806 0 7.768 0c2.962 0 4.974 1.244 6.371 4.073 1.286 2.545 1.286 2.545 1.118 26.02-.168 21.834-.224 23.587-1.23 25.228-.558.961-1.732 2.206-2.57 2.715-2.012 1.131-5.98 1.131-7.88-.057z"/>
    <path fill="#2A3C96" transform="matrix(.1 0 0 -.1 7.88 36.93)" d="M13.92 58.126c-5.142-1.81-7.601-5.544-7.601-11.37v-3.507l-1.844-.34c-5.757-1.074-6.036-8.993-.392-10.52l2.236-.623V18.87c0-7.862.223-13.575.615-14.65C8.164.655 14.478-1.268 17.775.939c3.186 2.092 3.354 2.827 3.521 17.421l.224 13.463h1.453c2.627 0 5.645 1.131 6.539 2.432.447.679.838 2.263.838 3.507 0 3.28-1.677 4.752-5.812 5.204-2.962.283-3.13.396-3.13 1.81 0 2.263 1.006 2.885 4.471 2.885 3.744 0 4.974.962 5.421 4.356.224 1.866.056 2.432-1.341 3.96-.894.96-2.627 2.036-3.856 2.375-3.018.848-9.557.735-12.184-.226z"/>
    <path fill="#E41F28" transform="matrix(.1 0 0 -.1 24.9 36.97)" d="M36.511 54.268l-2.794-1.131v-3.79c0-2.15-.224-4.525-.447-5.373-.391-1.471-.447-1.471-2.236-.792-6.37 2.715-14.195.848-19.671-4.639C5.886 33.056 2.253 26.325.688 18.576-1.994 5.113 3.371-2.524 13.207.758c3.297 1.131 8.494 5.656 11.568 10.181 1.174 1.754 2.18 3.168 2.236 3.168.056 0 0-1.867-.112-4.073-.28-4.977.782-7.58 3.744-9.05 2.627-1.358 5.421-1.244 8.383.283 2.627 1.3 2.683 1.414 1.733 5.204-1.286 4.977-.112 13.858 4.415 33.147 1.23 5.147 2.235 10.069 2.235 10.86 0 .792-.559 2.15-1.285 2.998-1.733 2.037-5.7 2.376-9.613.792zm-8.439-19.797c1.454-.962 2.571-1.924 2.46-2.15-.727-1.697-8.384-14.028-10.284-16.517-4.862-6.448-6.37-6.675-6.37-.962 0 6.901 3.408 17.026 6.65 19.798 2.347 1.98 4.247 1.923 7.545-.17z"/>
    <path fill="#E41F28" transform="matrix(.1 0 0 -.1 15.97 36.97)" d="M12.309 44.768c-.894-.113-2.906-.565-4.36-1.074-1.955-.623-2.57-1.019-2.123-1.471 1.565-1.584-.112-12.897-4.191-28.622-2.18-8.372-2.18-10.804 0-12.275C3.59.082 6.553-.258 9.682.478l2.739.679-.056 3.224c-.056 2.885.335 4.016 3.409 10.351 5.533 11.37 12.91 21.778 13.469 18.95.223-1.075-2.068-12.445-4.136-20.817-2.012-8.145-1.844-10.634.95-12.048C27.901-.2 30.193-.258 33.434.591l2.403.566-.056 3.224c0 2.771.447 4.129 2.962 9.446 4.806 10.012 13.301 22.23 13.972 20.137.111-.282-.894-5.43-2.124-11.482-2.683-12.445-3.018-17.479-1.509-19.798 2.012-2.998 6.93-3.394 11.569-1.018l2.18 1.13-1.063 2.377c-.614 1.357-1.117 3.337-1.117 4.412 0 1.074 1.117 7.693 2.514 14.707 2.795 14.141 2.907 15.16 1.677 17.818-2.962 6.222-13.245 2.715-20.79-7.127-1.453-1.81-2.682-3.281-2.794-3.168-.112.113.056 1.527.391 3.168 1.118 6.109-1.173 10.238-5.756 10.238-3.968 0-7.992-2.376-13.077-7.693-4.08-4.299-4.527-4.582-4.024-2.941.28 1.018.503 3.167.503 4.808 0 4.299-2.012 5.882-6.986 5.373z"/>
    <path fill="#2A3C96" transform="matrix(.1 0 0 -.1 10.95 36.987)" d="M14.251 43.925c-3.52-1.301-7.992-4.3-9.668-6.562-.839-1.075-2.18-3.45-3.018-5.26C.112 28.99 0 28.142 0 21.92c0-6.562.056-6.958 1.844-10.578 1.118-2.32 2.739-4.582 4.192-5.826C12.016.313 21.74-1.497 28.223 1.33c1.844.792 3.018 1.075 3.241.679.67-1.018 2.85-1.923 4.806-1.98 2.85-.113 5.198 1.131 6.595 3.45 1.23 1.98 1.285 2.603 1.453 17.705.112 9.9-.056 16.46-.447 17.875-.336 1.414-1.342 2.941-2.515 4.016-2.515 2.206-6.483 2.489-8.942.566-1.453-1.188-1.509-1.245-3.52-.227-2.907 1.471-11.29 1.754-14.643.51zm11.457-11.88c3.576-2.375 4.191-14.876.95-18.892-1.341-1.697-5.31-2.15-7.657-.905-3.073 1.697-3.912 3.847-3.912 9.956 0 5.882.783 8.032 3.577 9.785 1.9 1.188 5.31 1.188 7.042.057z"/>
    <path fill="#E41F28" transform="matrix(.1 0 0 -.1 22.83 36.962)" d="M7.435 43.955L5.2 43.446v-5.543c-.056-4.469-.503-7.354-2.46-15.669C-.164 9.847-.556 6.566.618 3.681c1.62-3.903 6.539-4.808 12.295-2.206l2.683 1.188-1.174 2.15c-.67 1.357-1.118 3.167-1.118 4.977 0 3.224 2.012 13.293 4.471 22.683 2.068 7.975 2.124 9.39.224 10.917-1.621 1.3-6.26 1.527-10.563.565z"/>
    <path fill="#E41F28" transform="matrix(.1 0 0 -.1 29.71 36.964)" d="M7.338 43.918l-2.291-.51.28-4.072c.223-3.507-.112-5.77-2.348-15.895C1.526 16.936.241 10.318.073 8.734c-.782-7.692 4.806-10.86 12.854-7.24l2.682 1.188-1.173 2.15c-.67 1.244-1.118 3.224-1.118 4.75 0 3.338 1.732 12.162 4.191 21.778 2.404 9.108 2.46 10.522.503 12.049-1.62 1.3-6.259 1.527-10.674.509z"/>
</svg>
