<?xml version="1.0" encoding="UTF-8"?><svg xmlns="http://www.w3.org/2000/svg" xmlns:xlink="http://www.w3.org/1999/xlink" width="150" height="150" viewBox="0 0 62 62">
    <g transform="translate(-3206 41)">
        <use fill="#F6921D" transform="translate(3214.75 -6.333)" xlink:href="#alfa-express-0_fill"/>
        <use fill="#F6921D" transform="translate(3214.75 -6.333)" xlink:href="#alfa-express-1_fill"/>
    </g>
    <use fill="#F6921D" transform="translate(40.8 34.679)" xlink:href="#alfa-express-2_fill"/>
    <use fill="#F6921D" transform="translate(47.54 34.687)" xlink:href="#alfa-express-3_fill"/>
    <use fill="#F6921D" transform="translate(28.37 34.672)" xlink:href="#alfa-express-4_fill"/>
    <use fill="#F6921D" transform="translate(47.87 22.457)" xlink:href="#alfa-express-5_fill"/>
    <use fill="#FEFEFE" xlink:href="#alfa-express-6_fill"/>
    <use fill="#FEFEFE" transform="translate(5.92 31.322)" xlink:href="#alfa-express-7_fill"/>
    <use fill="#FEFEFE" transform="translate(11.5 35.991)" xlink:href="#alfa-express-8_fill"/>
    <use fill="#FEFEFE" transform="translate(36.57 35.991)" xlink:href="#alfa-express-9_fill"/>
    <use fill="#FEFEFE" transform="translate(24.45 36.22)" xlink:href="#alfa-express-10_fill"/>
    <use fill="#FEFEFE" transform="translate(5.53 15.093)" xlink:href="#alfa-express-11_fill"/>
    <use fill="#FEFEFE" transform="translate(13.95 20.173)" xlink:href="#alfa-express-12_fill"/>
    <use fill="#FEFEFE" transform="translate(46.71 21.268)" xlink:href="#alfa-express-13_fill"/>
    <use fill="#2B3890" transform="translate(6.91 16.43)" xlink:href="#alfa-express-14_fill"/>
    <use fill="#2B3890" transform="translate(31.79 16.83)" xlink:href="#alfa-express-15_fill"/>
    <use fill="#2B3890" transform="translate(25.86 16.628)" xlink:href="#alfa-express-16_fill"/>
    <use fill="#2B3890" transform="translate(41.9 19.233)" xlink:href="#alfa-express-17_fill"/>
    <use fill="#F6921D" transform="translate(2.08 1.776)" xlink:href="#alfa-express-18_fill"/>
    <use fill="#F6921D" transform="translate(8.88 34.795)" xlink:href="#alfa-express-19_fill"/>
    <use fill="#F6921D" transform="translate(33.98 34.867)" xlink:href="#alfa-express-20_fill"/>
    <use fill="#F6921D" transform="translate(40.9 34.808)" xlink:href="#alfa-express-21_fill"/>
    <use fill="#F6921D" transform="translate(47.59 34.814)" xlink:href="#alfa-express-22_fill"/>
    <use fill="#F6921D" transform="translate(14.54 35.007)" xlink:href="#alfa-express-23_fill"/>
    <use fill="#F6921D" transform="translate(28.43 34.786)" xlink:href="#alfa-express-24_fill"/>
    <use fill="#F6921D" transform="translate(16.85 35.19)" xlink:href="#alfa-express-25_fill"/>
    <use fill="#F6921D" transform="translate(48 22.571)" xlink:href="#alfa-express-26_fill"/>
    <use fill="#FEFEFE" xlink:href="#alfa-express-27_fill"/>
    <use fill="#FEFEFE" transform="translate(6.05 31.451)" xlink:href="#alfa-express-28_fill"/>
    <use fill="#FEFEFE" transform="translate(11.58 36.15)" xlink:href="#alfa-express-29_fill"/>
    <use fill="#FEFEFE" transform="translate(36.66 36.135)" xlink:href="#alfa-express-30_fill"/>
    <use fill="#FEFEFE" transform="translate(24.57 36.366)" xlink:href="#alfa-express-31_fill"/>
    <use fill="#FEFEFE" transform="translate(5.66 15.221)" xlink:href="#alfa-express-32_fill"/>
    <use fill="#FEFEFE" transform="translate(14.02 20.237)" xlink:href="#alfa-express-33_fill"/>
    <use fill="#FEFEFE" transform="translate(46.82 21.397)" xlink:href="#alfa-express-34_fill"/>
    <use fill="#EA2025" transform="translate(16.63 31.42)" xlink:href="#alfa-express-35_fill"/>
    <defs>
        <path id="alfa-express-0_fill" d="M1.75 6.323C.72 6.053.012 5.163 0 4.106 0 2.688 1.376.845 2.868.291 3.705-.032 5.197-.096 5.93.149 7.023.523 7.602 1.63 7.32 2.817c-.284 1.199-.31 1.212-2.02 1.186-2.637-.039-2.727-.026-2.727.232 0 .567.771.722 1.466.283.36-.219.54-.232 1.338-.154 1.299.142 1.402.296.643.992-.335.31-.888.658-1.222.774-.746.257-2.367.36-3.049.193zm3.138-4.125c0-.786-1.12-.786-1.685.013l-.257.374h1.942v-.387z"/>
        <path id="alfa-express-1_fill" d="M26.832 6.31c-2.135-.503-2.328-3.197-.36-5.04C27.552.265 28.016.084 29.585.071c1.53 0 2.02.18 2.547.98.257.374.296.567.257 1.276-.026.464-.129 1.018-.244 1.225l-.18.386-2.161.04-2.161.025.038.36c.039.31.103.349.54.387.348.026.605-.038.85-.219.308-.219.462-.245 1.337-.154 1.132.103 1.325.219 1.03.631-.747 1.083-2.933 1.689-4.606 1.302zm3.139-4.112c0-.786-1.12-.786-1.685.013l-.258.374h1.943v-.387z"/>
        <path id="alfa-express-2_fill" d="M1.302 6.298c-.72-.168-1.35-.876-1.3-1.444.04-.464.284-.554 1.532-.631.681-.039.81 0 .939.219.193.348.347.451.72.451.386 0 .9-.322.9-.567 0-.103-.398-.245-1.054-.387-.81-.18-1.132-.31-1.428-.606-.347-.348-.373-.438-.322-1.044.065-.593.142-.734.708-1.276.45-.425.849-.67 1.325-.812.784-.232 2.148-.27 2.855-.077C6.73.278 7.31.91 7.31 1.36c0 .387-.283.503-1.389.606-.708.052-.836.039-.965-.18-.18-.297-1.016-.336-1.247-.052-.245.296-.065.412.861.58.94.155 1.235.284 1.685.683.335.31.386 1.07.09 1.624-.283.555-1.273 1.367-1.89 1.547-.72.22-2.47.297-3.152.129z"/>
        <path id="alfa-express-3_fill" d="M1.404 6.316c-.9-.232-1.376-.71-1.402-1.38-.013-.438.026-.49.373-.58.219-.05.746-.115 1.183-.154.772-.065.81-.052.965.27.103.22.296.362.502.387.489.052 1.016-.18 1.016-.477 0-.193-.154-.27-.836-.4C1.237 3.61.671 2.41 1.829 1.123 2.497.373 3.218.09 4.633.011c1.453-.077 2.2.194 2.534.916.386.8.36.825-1.03.992-.938.13-1.015.116-1.196-.141-.283-.361-1.222-.31-1.222.077 0 .18.13.27.515.36 1.248.259 1.608.4 1.942.749.875.915.026 2.552-1.633 3.145-.643.232-2.56.36-3.139.206z"/>
        <path id="alfa-express-4_fill" d="M.001 6.214C-.063 6.098 2.047.568 2.278.284c.09-.115.438-.154 1.17-.128.991.039 1.043.052 1.03.335-.013.284-.013.284.257.039.553-.516 1.698-.71 2.007-.335.141.167.064.348-.438 1.095-.591.89-.604.903-1.17.903-.862 0-1.274.49-2.058 2.449l-.643 1.61-1.184.04C.606 6.304.04 6.279.001 6.214z"/>
        <path id="alfa-express-5_fill" d="M.317 2.64c-.141-.103-.244-.413-.296-.864C-.107.448.37-.428.896.216c.36.439.36 2.256 0 2.462-.309.168-.309.168-.579-.038z"/>
        <path id="alfa-express-6_fill" d="M0 31V0h62v62H0V31zm35.103 28.229c6.29-.916 12.477-4.125 16.735-8.662 3.988-4.267 6.522-9.397 7.538-15.313.27-1.612.386-5.607.193-7.425C58.039 12.941 45.805 1.908 30.87 1.908c-12.477 0-23.398 7.927-27.282 19.786-1.055 3.196-1.467 6.212-1.364 9.886.129 4.421.952 7.876 2.856 11.794 2.778 5.762 7.306 10.312 13.107 13.148 3.049 1.495 6.098 2.423 9.082 2.758.669.078 1.428.168 1.672.194.887.103 4.85-.052 6.161-.245z"/>
        <path id="alfa-express-7_fill" d="M30.802 12.284c-7.706-.026-14.086-.065-14.176-.103-.115-.039.039-.541.49-1.637.36-.877.707-1.637.77-1.702.065-.077.22-.025.4.142.849.8 2.174.71 3.228-.232 1.402-1.224 2.033-3.905 1.132-4.795-.399-.412-1.608-.451-2.315-.103-.502.27-.875.27-.72 0 .051-.064-.322-.116-.875-.116h-.952l-1.646 4.099c-.914 2.243-1.711 4.163-1.776 4.254-.09.116-1.595.154-6.74.154H.998l-.515-.515c-.501-.503-.514-.542-.463-1.199.052-.503.515-1.663 1.788-4.537 1.62-3.66 1.762-3.906 2.444-4.589.386-.387 1.003-.85 1.35-1.031l.631-.31h6.136c4 0 6.148.04 6.161.13.026.18-5.145 5.142-5.26 5.04-.052-.052-.155-.336-.22-.632l-.141-.542-.849-.038c-.733-.026-.9 0-1.132.232l-.27.27.399 1.122.398 1.121-1.389 1.315-1.389 1.315 1.055.013h1.067l.746-.8c.425-.438.824-.747.9-.696.078.039.207.4.297.787l.154.709h1.878l-.193-.606c-.103-.348-.283-.954-.399-1.354l-.205-.734 1.234-1.328c.965-1.044 1.197-1.366 1.08-1.495-.102-.142.258-.567 1.725-2.037L19.894 0l15.422.026c14.639.038 15.436.051 15.77.27.477.336.798 1.045.695 1.625-.038.257-.836 2.204-1.775 4.318-1.44 3.26-1.8 3.97-2.303 4.524-.668.722-1.582 1.289-2.366 1.444-.283.051-6.818.09-14.536.077zM7.596 9.216c.656-.232 1.608-.954 1.441-1.095-.051-.052-.489-.13-.952-.168-.694-.064-.9-.039-1.222.168-.489.335-1.132.335-1.466 0-.27-.271-.347-.838-.129-.967.077-.052 1.094-.077 2.251-.077 1.904.012 2.11-.013 2.174-.207.399-1.392.335-2.217-.219-2.72-.681-.605-2.508-.734-3.781-.257-1.39.515-2.611 2.165-2.611 3.519 0 .618.347 1.43.72 1.675.733.477 2.611.542 3.794.13zm24.607.13c.798-.207 1.878-.877 1.878-1.148 0-.116-.282-.193-.926-.232-.784-.065-.99-.039-1.247.167-.412.323-1.184.323-1.48 0a.846.846 0 0 1-.18-.618l.039-.361 2.2-.039 2.2-.026.14-.502c.22-.683.194-1.624-.038-2.076-.334-.657-.849-.837-2.38-.837-1.517.012-2.006.18-2.971 1.057-1.39 1.263-1.685 3.609-.553 4.356.694.451 2.135.567 3.318.258zm7.152-.078c1.068-.361 1.801-1.238 1.801-2.153 0-.477-.051-.58-.411-.799-.22-.129-.798-.31-1.274-.387-.553-.09-.952-.245-1.093-.4-.219-.231-.206-.257.077-.566.386-.413 1.183-.452 1.44-.078.155.22.27.232 1.03.155.476-.052.9-.129.952-.18.038-.04.051-.22 0-.4-.13-.542-.63-.76-1.801-.825-1.39-.077-2.354.193-3.062.864-.45.412-.527.58-.579 1.134-.09.876.155 1.108 1.467 1.392.553.129 1.08.296 1.183.387.386.373-.308 1.095-1.042 1.095-.36 0-.874-.335-.874-.567 0-.129-.167-.155-.605-.116-1.325.116-1.453.155-1.453.477 0 .477.463.954 1.067 1.096.656.154 2.56.09 3.177-.13zm6.059.142c1.53-.297 2.418-1.083 2.47-2.179.025-.67-.27-.98-1.132-1.186-1.377-.322-1.672-.438-1.711-.67-.129-.644 1.029-.992 1.57-.49.244.232.372.245 1.144.142.489-.052.913-.142.952-.168.154-.154-.322-.812-.733-1.03-.373-.194-.67-.233-1.672-.181-.747.038-1.441.142-1.763.283-1.029.413-1.685 1.573-1.35 2.32.18.4.656.645 1.633.838.862.18 1.094.31 1.094.645s-.438.657-.99.735c-.438.051-.554.013-.824-.31-.309-.374-.335-.374-1.248-.296-.514.051-.965.129-1.003.167-.167.155.116.89.412 1.083.63.413 1.903.529 3.15.297zM25.322 7.876c.45-1.173.681-1.599 1.119-2.037.489-.477.63-.554 1.106-.554.527 0 .566-.026 1.042-.748.257-.412.476-.799.476-.838 0-.141-.849-.103-1.248.052-.193.064-.514.284-.707.464-.386.36-.695.31-.489-.09.064-.13.129-.271.129-.31 0-.038-.425-.077-.94-.077h-.938l-1.107 2.836-1.106 2.848 1.042-.038 1.042-.039.579-1.47z"/>
        <path id="alfa-express-8_fill" d="M.017 1.39C-.124 1.156.635.305 1.162.112c.437-.167.502-.155.823.077.27.207.348.361.348.76v.504l-1.12.038C.494 1.518.07 1.48.018 1.39z"/>
        <path id="alfa-express-9_fill" d="M.014 1.376C-.114 1.157.657.306 1.172.113c.437-.167.502-.155.823.077.386.284.515.851.27 1.148-.18.219-2.11.257-2.25.038z"/>
        <path id="alfa-express-10_fill" d="M.307 3.03c-.373-.362-.399-.58-.116-1.406C.474.786 1.233 0 1.761 0c.437 0 .797.387.797.838-.026.747-.81 2.114-1.364 2.372-.45.206-.54.18-.887-.18z"/>
        <path id="alfa-express-11_fill" d="M2.431 14.812C.965 14.567 0 13.6 0 12.389c0-.684.141-1.032 1.145-2.952.476-.902 1.466-2.81 2.2-4.228 1.53-2.978 1.89-3.532 2.7-4.125C7.063.337 7.86.092 9.506.014c1.686-.064 2.548.078 3.667.645 1.26.644 1.672 1.186 3.46 4.64.887 1.727 1.788 3.455 2.007 3.841l.398.71V6.046c0-3.7.013-3.816.296-4.318C20.08.414 22.24-.205 24.247.31c1.338.36 2.135 1.186 2.225 2.346.052.541.103.683.245.631.103-.038.283-.077.411-.077.142 0 .258-.18.36-.554.193-.71.914-1.444 1.827-1.882.682-.322.836-.335 3.229-.374 2.79-.052 3.228.026 3.949.657.823.722 1.003 1.573.553 2.475-.36.696-.245.941.244.58.733-.515 2.02-1.018 2.971-1.173 1.004-.154 2.753-.077 3.64.155.36.09.644.077 1.145-.077.4-.116 1.171-.194 1.917-.194 2.032 0 3.1.555 3.46 1.78.09.308.129 1.817.103 4.369l-.038 3.88-.386.567c-.27.36-.643.683-1.145.94-.695.349-.875.387-1.994.375-.772 0-1.505-.078-1.955-.22-.643-.193-.798-.193-1.608-.025-2.392.502-5.235-.04-6.727-1.302-1.068-.902-1.557-2.088-1.685-4.048-.09-1.443-.09-1.418-.116.967-.026 2.746-.129 3.184-.913 3.841-.772.658-1.223.787-2.83.787-1.3.012-1.557-.026-2.084-.284-.746-.374-1.454-1.147-1.634-1.792-.077-.27-.141-1.482-.141-2.694 0-1.895-.026-2.23-.206-2.294-.566-.22-.566-.206-.566 2.436 0 2.849-.052 3.08-.862 3.816-.733.67-1.3.824-2.868.824-1.145 0-1.454-.051-2.02-.296-.36-.168-.759-.425-.887-.554-.22-.245-.232-.245-.553.064-.81.774-2.38 1.096-4.22.864-1.685-.22-2.495-.786-3.228-2.282l-.335-.696H8.374l-.309.683c-.386.864-1.016 1.573-1.66 1.908-.81.412-2.688.593-3.974.374zm2.83-1.56c.785-.167 1.12-.515 1.62-1.74.207-.49.425-.967.49-1.057.192-.258 5.106-.168 5.248.103.051.103.283.606.501 1.096.528 1.186.785 1.444 1.647 1.624.99.206 2.855.103 3.293-.18.681-.452.553-.813-1.968-5.66-1.428-2.77-2.457-4.6-2.74-4.884-.746-.76-1.698-1.07-3.383-1.07-1.62 0-2.521.27-3.319.992-.591.542-5.132 9.204-5.145 9.835-.026.8.489 1.057 2.122 1.07.54.013 1.287-.052 1.634-.129zm27.656-.348l.334-.245.039-3.068c.013-1.997.077-3.132.167-3.248.09-.103.437-.167.939-.167.952 0 1.363-.232 1.363-.774 0-.502-.36-.683-1.479-.773l-.9-.065V3.533l.874-.09c.49-.039 1.017-.18 1.197-.284.386-.257.398-.721.038-1.056-.244-.22-.489-.245-2.675-.233-2.123.013-2.47.052-2.997.284-.72.31-.914.632-1.004 1.637l-.064.773-.952.078c-.785.051-.99.129-1.183.36-.309.375-.309.426 0 .8.206.258.398.322 1.196.374l.939.064.064 3.223c.039 1.778.09 3.235.103 3.248.013.013.206.129.438.245.887.464 2.92.438 3.563-.052zm-8.554.155c.244-.116.501-.361.579-.529.09-.206.141-1.907.141-5.117 0-4.653-.013-4.82-.27-5.143-.142-.193-.476-.412-.746-.49-.63-.193-2.406-.103-2.907.142-.695.348-.708.425-.708 5.607 0 5.272-.013 5.182.823 5.556.58.244 2.522.232 3.088-.026zm19.359-.18c.797-.233.823-.22 1.247.025.553.322 2.303.464 3.113.245.94-.258.94-.245.9-4.602l-.038-3.854-.386-.193c-.617-.31-2.675-.258-3.409.077-.54.245-.617.258-1.093.078-.36-.142-1.042-.207-2.315-.207-1.595-.012-1.878.026-2.534.284-1.042.425-1.917 1.25-2.354 2.243-.322.709-.36.967-.36 1.972.012 2.694 1.08 3.75 4.283 4.24.553.078 2.097-.077 2.946-.309z"/>
        <path id="alfa-express-12_fill" d="M.004 3.17C-.086 3.017 1.38 0 1.548 0c.167 0 1.633 3.016 1.53 3.17-.09.156-2.971.156-3.074 0z"/>
        <path id="alfa-express-13_fill" d="M.896 5.001C.227 4.641.047 4.202.01 2.81-.07.644.356 0 1.849 0c.642 0 .77.052 1.092.387.438.477.708 1.817.605 3.067-.051.71-.116.89-.45 1.225-.335.335-.515.4-1.145.438-.45.026-.875-.013-1.055-.116zm1.12-2.165c.05-.98-.04-1.418-.284-1.418-.308 0-.45 1.353-.205 1.998.218.58.45.31.488-.58z"/>
        <path id="alfa-express-14_fill" d="M.862 12.044c-.553-.155-.874-.567-.862-1.07.013-.284.798-1.92 2.354-4.924C4.914 1.113 5.12.83 6.444.314c1.068-.425 3.242-.412 4.323 0 1.26.503 1.543.902 4.09 5.8 2.02 3.893 2.303 4.5 2.264 4.95-.064.787-.476 1.031-1.878 1.096-1.466.064-2.457-.129-2.894-.593-.283-.296-.926-1.534-1.17-2.256-.065-.206-.27-.219-2.586-.193l-2.521.039-.438 1.018c-.553 1.289-.939 1.701-1.762 1.869-.746.167-2.444.167-3.01 0zm9.21-5.195c0-.103-1.44-3.042-1.492-3.042-.064 0-1.466 2.926-1.466 3.042 0 .026.669.052 1.479.052s1.48-.026 1.48-.052z"/>
        <path id="alfa-express-15_fill" d="M4.159 11.643c-.76-.09-1.415-.4-1.608-.747-.077-.155-.129-1.457-.129-3.287V4.567h-.849c-.759 0-.875-.039-1.222-.374-.45-.464-.463-.541-.064-1.005.27-.31.411-.361 1.222-.4l.913-.051v-.67c0-.89.347-1.431 1.12-1.78.54-.232.874-.27 3.01-.283C8.943-.01 8.956-.01 9.303.314c.733.682.129 1.404-1.274 1.507l-.849.078v.863h.81c1.017 0 1.634.335 1.634.877 0 .593-.411.85-1.466.928l-.913.064-.039 3.081c-.038 3.313-.038 3.351-.72 3.712-.373.194-1.595.31-2.328.22z"/>
        <path id="alfa-express-16_fill" d="M.944 11.678a2.115 2.115 0 0 1-.682-.541c-.283-.348-.283-.374-.244-5.285L.057.928.352.606C.738.193 1.433 0 2.552 0c1.055 0 1.66.206 2.045.709.283.348.283.425.283 5.169 0 3.454-.038 4.898-.154 5.143-.257.58-.965.838-2.251.838-.656-.013-1.3-.078-1.53-.18z"/>
        <path id="alfa-express-17_fill" d="M4.412 9.176C1.183 8.673.012 7.526 0 4.806c0-1.005.039-1.263.36-1.972C.81 1.828 1.8.887 2.843.462 3.499.204 3.782.166 5.377.18c1.273 0 1.955.064 2.315.206.463.18.553.167 1.055-.052.72-.322 2.007-.425 2.868-.245 1.222.258 1.158.026 1.158 4.422v3.866l-.36.361c-.257.245-.566.4-.99.452-.914.141-2.329-.013-2.83-.297-.412-.245-.438-.245-1.235-.026-.85.232-2.393.387-2.946.31zm3.422-2.527c.424-.412.54-1.56.308-2.913-.205-1.25-.501-1.572-1.466-1.572-.386 0-.849.064-1.03.141-.488.232-.72.967-.72 2.346 0 1.908.425 2.462 1.84 2.372.592-.039.81-.116 1.068-.374z"/>
        <path id="alfa-express-18_fill" d="M26.863 57.827c-.244-.026-1.003-.116-1.672-.193-5.17-.58-10.74-3.017-14.921-6.536-5.261-4.42-8.798-10.62-9.969-17.556-.283-1.662-.399-5.89-.206-7.605.978-8.623 5.351-15.97 12.426-20.907 7.448-5.194 17.404-6.47 26.138-3.338 9.364 3.338 16.503 11.562 18.484 21.28.489 2.437.63 4.229.553 6.948-.103 3.262-.553 5.724-1.582 8.65-3.537 10.066-12.541 17.478-23.09 19.012-1.311.193-5.273.348-6.16.245zm23.45-16.654c1.209-.657 1.556-1.199 3.408-5.388.94-2.127 1.737-4.06 1.776-4.318.102-.58-.22-1.302-.682-1.546-.283-.155-3.795-.181-22.536-.181H10.077l-.63.31c-.348.18-.926.605-1.287.966-.604.606-.797.967-2.38 4.524-2.032 4.563-2.122 4.937-1.388 5.672l.45.451 6.65-.026 6.65-.038 1.685-4.215 1.698-4.228h1.08c.901 0 1.055.026.991.193-.09.258-.038.245.592-.077.746-.387 1.904-.297 2.367.167.488.477.604 1.225.373 2.256-.476 2.037-1.93 3.519-3.46 3.519-.45 0-1.235-.335-1.441-.619-.09-.116-.193-.193-.219-.154-.038.038-.36.773-.72 1.637l-.643 1.585 14.11.026c7.757.026 14.343-.013 14.626-.065.27-.051.784-.257 1.132-.45zm-26.756-3.648c.374-.167.952-1.044 1.133-1.727.205-.747.025-1.147-.502-1.199-.348-.038-.502.04-.862.413-.399.438-.836 1.418-.836 1.908 0 .244.424.747.643.747.064 0 .257-.064.425-.142zM8.432 28c1.582-.206 2.418-.838 3.022-2.282l.283-.683h3.358l.296.683c.643 1.496 1.44 2.076 3.15 2.295 1.866.232 3.616-.13 4.22-.89l.244-.322.296.27c.155.155.58.4.926.568.54.245.862.296 1.994.296 1.53 0 2.123-.154 2.792-.747.758-.67.81-.941.81-3.88v-2.63l.514.13.515.128v2.282c0 1.25.064 2.488.141 2.758.18.645.76 1.29 1.505 1.663.528.258.798.296 2.02.296 1.505 0 1.98-.116 2.753-.683.797-.593.913-1.057.913-3.854 0-2.023.038-2.488.18-2.488.129 0 .193.349.231 1.521.078 1.702.283 2.385 1.004 3.352 1.235 1.637 4.373 2.475 7.152 1.907.926-.18 1.067-.18 1.659 0 .386.13 1.145.22 1.93.233 1.17.012 1.35-.026 2.032-.348.514-.258.849-.542 1.093-.903l.348-.515.038-4.01c.039-3.956.026-4.02-.257-4.588-.45-.89-1.196-1.212-2.959-1.263-.99-.039-1.569.013-2.096.155-.54.167-.824.18-1.197.09-.874-.232-2.624-.31-3.627-.155-.952.155-2.238.658-2.959 1.173-.308.22-.373.232-.514.065-.129-.155-.103-.297.116-.748.45-.941.283-1.792-.49-2.45-.668-.553-1.144-.63-3.87-.58-2.393.04-2.548.052-3.217.375-.887.412-1.505 1.044-1.698 1.727-.18.644-.192.657-.771.76l-.49.09v-.618c0-1.96-2.34-3.094-4.951-2.423-1.004.27-1.673.709-1.994 1.353-.245.477-.258.748-.258 4.383 0 2.126-.038 3.867-.09 3.867-.115 0-.218-.194-2.572-4.744-1.762-3.403-2.135-3.905-3.345-4.524-1.106-.555-1.968-.696-3.653-.632-1.62.077-2.418.31-3.395 1.018-.76.555-1.12 1.096-2.637 4.048a767.201 767.201 0 0 1-2.2 4.228c-1.016 1.933-1.145 2.268-1.145 2.977.013 1.78 1.878 2.656 4.85 2.269z"/>
        <path id="alfa-express-19_fill" d="M1.62 6.065C.618 5.807 0 4.995 0 3.938 0 2.572 1.312.82 2.74.291 3.576-.032 5.068-.096 5.8.149c1.03.348 1.544 1.366 1.26 2.54-.282 1.12-.205 1.082-1.89 1.056-2.881-.039-2.856-.039-2.856.31 0 .708.836.94 1.595.463.36-.219.54-.232 1.338-.154.502.064.965.154 1.016.206.168.168-.952 1.07-1.608 1.302-.733.258-2.354.36-3.035.193zm3.268-3.931c0-.967-1.17-1.057-1.865-.142-.18.232-.322.464-.322.503 0 .051.489.09 1.094.09h1.093v-.451z"/>
        <path id="alfa-express-20_fill" d="M1.597 5.98C.465 5.71-.101 4.899.015 3.675.13 2.334 1.082 1.018 2.445.296 2.923.052 3.193 0 4.35 0c1.53 0 2.02.168 2.457.877.205.335.244.58.205 1.25-.025.464-.115.992-.193 1.199l-.154.348H2.292v.36c0 .194.064.426.154.516.244.245 1.055.18 1.415-.09.257-.206.45-.245 1.08-.193 1.261.116 1.364.154 1.21.438-.22.412-1.21 1.018-2.007 1.224-.823.207-1.775.232-2.547.052zm3.241-3.943C4.928 1.096 3.681 1.018 3 1.92c-.18.232-.322.464-.322.515 0 .052.476.078 1.068.052L4.8 2.449l.038-.412z"/>
        <path id="alfa-express-21_fill" d="M1.196 6.04C.553 5.886 0 5.293 0 4.764c0-.335.051-.374.553-.438 1.672-.206 1.647-.206 1.762.129.206.515 1.132.58 1.608.103.399-.413.18-.593-1.016-.89-1.428-.348-1.672-.592-1.582-1.533.051-.555.129-.71.63-1.186.386-.361.81-.619 1.26-.748C4-.03 5.365-.069 6.072.124c.54.154 1.004.657 1.004 1.108 0 .31-.065.335-1.441.49-.514.065-.63.039-.746-.18-.193-.361-1.03-.361-1.35 0-.348.386-.078.593.964.773 1.196.206 1.724.554 1.775 1.212.026.27-.026.67-.116.876-.218.529-1.157 1.315-1.813 1.508-.72.22-2.47.297-3.152.13z"/>
        <path id="alfa-express-22_fill" d="M1.325 6.06C.489 5.84 0 5.325 0 4.629c0-.193.116-.258.553-.31 1.66-.206 1.762-.206 1.762-.025 0 .348.49.631.978.554.579-.103.849-.31.797-.657-.025-.207-.218-.297-.964-.477-1.042-.232-1.531-.503-1.737-.954C1.042 2 1.75.813 2.83.337c.36-.168.978-.284 1.699-.323 1.44-.077 2.16.155 2.47.8.218.476.257.721.115.721-.064 0-.527.065-1.054.13-.888.115-.965.102-1.132-.13-.206-.296-1.042-.36-1.3-.103-.308.31-.18.606.335.722.257.064.772.18 1.119.27.875.207 1.286.632 1.26 1.303-.038.953-.72 1.727-1.865 2.14-.643.231-2.56.347-3.151.193z"/>
        <path id="alfa-express-23_fill" d="M0 5.737c0-.064.592-.67 1.312-1.34.875-.825 1.706-1.617 1.77-1.514.064.09.26.491.324.762.077.258.135.371.2.371.05 0 .517-.673 1.726-1.86C6.657.856 7.556-.024 7.672.002c.141.038.072.593-.752 1.483-.656.709-1.247 1.366-1.312 1.456-.077.116 0 .58.232 1.315.193.632.386 1.25.411 1.38.065.206-.025.231-.99.193L4.193 5.79l-.18-.735c-.103-.412-.231-.747-.283-.747-.051 0-.411.348-.81.773l-.708.773H1.106C.502 5.853 0 5.802 0 5.737z"/>
        <path id="alfa-express-24_fill" d="M0 6.049c0-.026.515-1.341 1.132-2.94L2.277.21 3.319.171c1.093-.039 1.183.013.926.502-.18.336.026.31.334-.025.463-.529 1.827-.851 2.045-.503.052.077-.154.516-.45.967-.527.825-.553.838-1.106.838-.887 0-1.415.618-2.16 2.565l-.618 1.56H1.145C.515 6.074 0 6.06 0 6.048z"/>
        <path id="alfa-express-25_fill" d="M1.762 1.714a11.535 11.535 0 0 1-.231-.709L1.349.514l-.73.035C.103.55 0 .335 0 .193 0 .04.206 0 1.029 0h1.016l.129.49c.077.258.241.822.241.938 0 .245-.563.441-.653.286z"/>
        <path id="alfa-express-26_fill" d="M.275 2.46C-.125 2.217-.073.18.326.025c.36-.141.553.336.553 1.393 0 .786-.038 1.005-.206 1.07-.244.09-.205.09-.398-.026z"/>
        <path id="alfa-express-27_fill" d="M0 31V0h62v62H0V31zm35.103 28.358c6.329-.916 12.452-4.1 16.8-8.727 4.038-4.305 6.572-9.422 7.602-15.377.27-1.612.386-5.607.192-7.425C58.308 14.372 48.005 3.74 34.64 1.998 24.723.696 14.677 4.73 8.451 12.503c-3.537 4.408-5.621 9.487-6.277 15.21-.193 1.714-.077 5.942.206 7.605 1.363 8.043 5.84 14.99 12.528 19.49 1.685 1.12 4.76 2.642 6.728 3.312 1.775.606 3.936 1.109 5.634 1.29.669.077 1.428.167 1.672.193.887.103 4.85-.052 6.161-.245z"/>
        <path id="alfa-express-28_fill" d="M30.585 12.013l-14.111-.025.643-1.586c.36-.864.682-1.598.72-1.637.026-.039.129.039.219.155.206.283.99.618 1.44.618.657 0 1.364-.309 1.969-.85 1.505-1.354 2.096-3.945 1.119-4.924-.463-.464-1.62-.554-2.367-.168-.63.322-.682.335-.592.078.065-.168-.09-.194-.99-.194h-1.08l-1.698 4.228-1.686 4.215-6.65.039-6.65.026-.45-.452c-.733-.734-.643-1.121 1.363-5.607.94-2.088 1.84-3.983 2.007-4.202.45-.593 1.44-1.276 2.187-1.52C6.544.025 7.367 0 12.525.025l5.904.038-2.611 2.514c-1.44 1.38-2.637 2.449-2.65 2.385-.026-.078-.103-.374-.18-.67l-.141-.555H11.83c-.823 0-1.029.039-1.029.193 0 .104-.09.194-.193.194-.27 0-.244.18.193 1.418l.386 1.095-1.35 1.29c-.747.708-1.364 1.327-1.351 1.391 0 .052.502.09 1.106.09h1.106l.708-.773c.399-.425.759-.773.81-.773.052 0 .18.335.283.747l.18.735 1.068.039c.965.038 1.055.013.99-.194-.025-.128-.218-.747-.411-1.379-.232-.734-.309-1.199-.232-1.315.065-.09.656-.747 1.325-1.456.72-.786 1.12-1.302.99-1.302-.115 0-.205-.052-.205-.103 0-.052.797-.902 1.775-1.87L19.767 0 35.19.026C52.208.064 50.986 0 51.397.889c.129.284.18.606.129.903-.039.257-.836 2.191-1.775 4.318-1.338 3.029-1.814 3.983-2.238 4.447-.605.67-1.544 1.237-2.303 1.392-.283.051-6.869.09-14.625.064zM7.483 9.216c.656-.232 1.775-1.134 1.607-1.302-.051-.051-.514-.141-1.016-.206-.797-.077-.977-.064-1.337.155-.76.477-1.595.245-1.595-.464 0-.348-.026-.348 2.855-.31 1.685.026 1.608.065 1.891-1.057.283-1.173-.232-2.19-1.26-2.539-.245-.077-.862-.142-1.377-.142-1.338 0-2.238.361-3.151 1.276-1.827 1.83-1.647 4.28.347 4.783.682.167 2.302.064 3.036-.194zm24.594.13c.797-.207 1.788-.813 2.006-1.225.155-.284.052-.323-1.209-.439-.63-.051-.823-.013-1.08.194-.36.27-1.17.335-1.415.09-.09-.09-.155-.322-.155-.516v-.36h4.374l.154-.349c.078-.206.167-.734.193-1.198.039-.67 0-.916-.206-1.25-.437-.71-.926-.877-2.456-.877-1.544.013-2.02.18-3.049 1.134-1.48 1.366-1.762 3.61-.553 4.473.72.515 2.148.644 3.396.322zm7.126-.078c.656-.194 1.595-.98 1.814-1.508.09-.207.141-.606.115-.877-.051-.657-.578-1.005-1.775-1.211-1.042-.18-1.312-.387-.964-.774.321-.36 1.157-.36 1.35 0 .116.22.232.245.746.18 1.377-.154 1.44-.18 1.44-.49 0-.45-.462-.953-1.002-1.108-.708-.193-2.071-.154-2.856.078-.45.128-.875.386-1.26.747-.502.477-.58.632-.63 1.186-.09.941.154 1.186 1.581 1.534 1.197.296 1.415.477 1.016.89-.475.476-1.402.412-1.607-.104-.116-.335-.09-.335-1.763-.129-.501.065-.553.103-.553.439 0 .528.553 1.121 1.197 1.276.681.167 2.43.09 3.15-.13zm6.817-.039c1.145-.412 1.827-1.186 1.865-2.14.026-.67-.385-1.095-1.26-1.301-.347-.09-.862-.207-1.12-.271-.514-.116-.642-.413-.334-.722.258-.258 1.094-.193 1.3.103.167.232.244.245 1.132.129.527-.064.99-.129 1.054-.129.142 0 .103-.245-.115-.722-.31-.644-1.03-.876-2.47-.799-.72.039-1.338.155-1.698.322-1.08.477-1.788 1.663-1.44 2.424.205.45.694.721 1.736.954.746.18.939.27.965.476.05.348-.22.555-.798.658-.489.077-.978-.206-.978-.554 0-.18-.102-.18-1.762.025-.437.052-.553.116-.553.31 0 .696.489 1.211 1.325 1.43.592.155 2.508.04 3.151-.193zM25.285 7.85c.746-1.945 1.273-2.564 2.161-2.564.553 0 .579-.013 1.106-.838.296-.451.502-.89.45-.967-.218-.348-1.582-.026-2.045.503-.308.335-.514.36-.334.026.257-.49.167-.542-.926-.503l-1.042.039-1.145 2.9c-.617 1.598-1.132 2.913-1.132 2.939 0 .013.515.026 1.145.026h1.145l.617-1.56z"/>
        <path id="alfa-express-29_fill" d="M0 1.14C0 1.102.141.87.322.638c.694-.916 1.865-.825 1.865.141v.451H1.093C.49 1.23 0 1.192 0 1.14z"/>
        <path id="alfa-express-30_fill" d="M0 1.168C0 .911.695.215 1.093.086c.386-.13.515-.116.785.064.257.168.322.297.283.619l-.039.412-1.054.039C.476 1.246 0 1.22 0 1.168z"/>
        <path id="alfa-express-31_fill" d="M.257 2.819C.116 2.677 0 2.458 0 2.329 0 1.84.437.86.836.421c.36-.373.515-.45.862-.412.309.026.45.116.527.36.309.864-.784 2.708-1.582 2.708-.077 0-.244-.116-.386-.258z"/>
        <path id="alfa-express-32_fill" d="M2.29 14.554C.926 14.322.013 13.407 0 12.286c0-.71.129-1.045 1.145-2.978a770.42 770.42 0 0 0 2.2-4.228C4.861 2.128 5.221 1.587 5.98 1.033 6.96.323 7.756.092 9.377.014c1.685-.064 2.547.078 3.653.632 1.21.619 1.582 1.121 3.345 4.524 2.354 4.55 2.456 4.744 2.572 4.744.052 0 .09-1.74.09-3.867 0-3.635.013-3.906.258-4.383.643-1.25 2.842-1.869 4.823-1.353 1.338.348 2.123 1.237 2.123 2.423v.619l.489-.09c.578-.103.591-.116.771-.76.193-.684.81-1.316 1.698-1.728.67-.322.823-.335 3.216-.374 2.727-.051 3.203.026 3.872.58.772.658.939 1.508.489 2.45-.22.45-.245.592-.116.747.141.167.206.154.514-.065.72-.515 2.007-1.018 2.959-1.173 1.003-.154 2.752-.077 3.627.155.373.09.656.077 1.196-.09.528-.142 1.107-.194 2.097-.155 1.762.052 2.508.374 2.959 1.263.283.568.295.632.257 4.59l-.039 4.008-.347.515c-.244.361-.579.645-1.093.903-.682.322-.862.36-2.033.348-.784-.013-1.543-.103-1.93-.232-.59-.18-.732-.18-1.658 0-2.779.567-5.917-.27-7.152-1.908-.72-.967-.927-1.65-1.004-3.351-.038-1.173-.103-1.521-.231-1.521-.142 0-.18.464-.18 2.487 0 2.797-.116 3.262-.914 3.854-.771.568-1.247.684-2.752.684-1.222 0-1.492-.039-2.02-.297-.746-.374-1.325-1.018-1.505-1.663-.077-.27-.141-1.508-.141-2.758V7.49l-.515-.128-.514-.13v2.63c0 2.94-.052 3.21-.81 3.88-.67.593-1.261.748-2.792.748-1.132 0-1.453-.052-1.994-.297-.347-.167-.772-.412-.926-.567l-.296-.27-.244.322c-.605.76-2.354 1.121-4.22.889-1.71-.22-2.508-.8-3.15-2.294l-.297-.684H8.155l-.283.684c-.36.876-.952 1.572-1.582 1.907-.823.413-2.688.593-4 .374zm2.83-1.302c.823-.167 1.209-.58 1.762-1.869l.437-1.018 2.521-.039c2.316-.026 2.521-.013 2.586.194.244.721.887 1.959 1.17 2.255.438.464 1.428.658 2.895.593 1.401-.064 1.813-.31 1.878-1.095.038-.451-.245-1.057-2.264-4.95-2.547-4.898-2.83-5.298-4.09-5.8-1.081-.413-3.255-.426-4.323 0-1.325.515-1.53.799-4.09 5.735-1.557 3.004-2.341 4.64-2.354 4.924-.013.503.308.916.862 1.07.566.168 2.263.168 3.01 0zm27.5-.219c.683-.36.683-.4.721-3.712l.039-3.08.913-.065c1.055-.078 1.466-.335 1.466-.928 0-.542-.617-.877-1.633-.877h-.81v-.863l.848-.078c1.402-.103 2.007-.825 1.274-1.508-.348-.322-.36-.322-2.753-.31-2.135.014-2.47.052-3.01.284-.772.348-1.119.89-1.119 1.78v.67l-.913.05c-.81.04-.952.091-1.222.4-.399.465-.386.542.064 1.006.347.335.463.374 1.222.374h.849v3.042c0 1.83.052 3.132.129 3.287.308.567 1.62.902 2.971.747.386-.051.823-.142.965-.219zm-8.334-.013c.27-.142.553-.4.643-.593.115-.245.154-1.688.154-5.143 0-4.743 0-4.82-.283-5.169-.386-.502-.99-.709-2.045-.709-1.12 0-1.814.194-2.2.606l-.296.323-.038 4.923c-.039 4.911-.039 4.937.244 5.285.425.542.94.71 2.213.722.861 0 1.247-.051 1.607-.245zm19.307-.142c.797-.219.823-.219 1.235.026.502.284 1.916.438 2.83.297.424-.052.733-.207.99-.452l.36-.36V8.522c0-4.396.065-4.164-1.157-4.422-.862-.18-2.148-.077-2.869.245-.502.22-.591.232-1.055.052-.36-.142-1.041-.206-2.315-.206-1.595-.013-1.878.025-2.534.283-1.042.426-2.032 1.367-2.483 2.372-.321.709-.36.967-.36 1.972.013 2.72 1.184 3.867 4.412 4.37.553.077 2.097-.078 2.946-.31z"/>
        <path id="alfa-express-33_fill" d="M0 3.042C0 2.926 1.402 0 1.466 0 1.518 0 2.96 2.939 2.96 3.042c0 .026-.67.052-1.48.052-.81 0-1.48-.026-1.48-.052z"/>
        <path id="alfa-express-34_fill" d="M.772 4.743C.219 4.447 0 3.815 0 2.488 0 1.108.232.374.72.142.9.064 1.363 0 1.75 0c.591 0 .758.052 1.016.335.373.413.643 1.818.54 2.99-.09 1.122-.412 1.47-1.467 1.534-.45.026-.874-.012-1.067-.116zm1.08-1.082c.167-.065.206-.284.206-1.07 0-1.057-.193-1.534-.553-1.392-.399.154-.45 2.191-.051 2.436.192.116.154.116.398.026z"/>
        <path id="alfa-express-35_fill" d="M1.605 4.234L0 4.211l1.285 3.664L9.18 0H8.03L2.14 5.543l-.536-1.309z"/>
    </defs>
</svg>
