<?xml version="1.0" encoding="UTF-8"?>
<svg xmlns="http://www.w3.org/2000/svg" xmlns:xlink="http://www.w3.org/1999/xlink" viewBox="0 0 42 29">
    <g transform="translate(-2652 12)">
        <mask id="a">
            <use fill="#fff" transform="translate(2652.14 -11.82)" xlink:href="#permata-alto-0_fill"></use>
        </mask>
        <g mask="url(#a)">
            <use fill="#F7DB4A" transform="translate(2652.14 -11.82)" xlink:href="#permata-alto-1_stroke_2x"></use>
        </g>
    </g>
    <use fill="#2B2B2B" transform="translate(31.25 12.21)" xlink:href="#permata-alto-2_fill"></use>
    <use fill="#2B2B2B" transform="translate(7.34 12.35)" xlink:href="#permata-alto-3_fill"></use>
    <use fill="#347CBD" transform="translate(3.51 1)" xlink:href="#permata-alto-4_fill"></use>
    <use fill="#2B2B2B" transform="translate(1 8.84)" xlink:href="#permata-alto-5_fill"></use>
    <use fill="#C9392B" transform="translate(3.51 20.71)" xlink:href="#permata-alto-6_fill"></use>
    <defs>
        <path id="permata-alto-0_fill" d="M41.677 14.129c0 7.803-9.33 14.129-20.839 14.129C9.33 28.258 0 21.931 0 14.127 0 6.327 9.33 0 20.838 0c11.51 0 20.839 6.326 20.839 14.129z"></path>
        <path id="permata-alto-1_stroke_2x" d="M40.677 14.129c0 3.47-2.075 6.729-5.665 9.163-3.584 2.43-8.593 3.965-14.174 3.965v2c5.928 0 11.34-1.627 15.297-4.31 3.952-2.68 6.542-6.486 6.542-10.818h-2zM20.838 27.258c-5.58 0-10.589-1.536-14.173-3.966C3.075 20.858 1 17.6 1 14.129h-2c0 4.332 2.59 8.138 6.542 10.818 3.958 2.683 9.369 4.31 15.296 4.31v-2zM1 14.127c0-3.47 2.075-6.728 5.665-9.162C10.249 2.536 15.257 1 20.838 1v-2C14.911-1 9.5.627 5.542 3.31 1.59 5.99-1 9.798-1 14.13h2zM20.838 1c5.581 0 10.59 1.536 14.174 3.966 3.59 2.434 5.665 5.692 5.665 9.163h2c0-4.332-2.59-8.139-6.542-10.818C32.177.627 26.766-1 20.838-1v2z"></path>
        <path id="permata-alto-2_fill" d="M2.33 0h-.25a2.23 2.23 0 0 0 0 4.45h.25a2.23 2.23 0 0 0 0-4.45z"></path>
        <path id="permata-alto-3_fill" d="M0 2.65h2.4L1.12 0 0 2.65z"></path>
        <path id="permata-alto-4_fill" d="M34.8 6.83C31.4 2.76 24.89 0 17.4 0 9.91 0 3.4 2.76 0 6.83h34.8z"></path>
        <path id="permata-alto-5_fill" d="M0 5.43a9.65 9.65 0 0 0 1.75 5.44h36.32a9.31 9.31 0 0 0 0-10.87H1.75A9.65 9.65 0 0 0 0 5.43zm31.22-3.42h2.45a3.6 3.6 0 1 1 0 7.19h-2.45a3.6 3.6 0 1 1 0-7.19zm-12.89 0h8.89v1.5h-3.14v5.6h-2.6v-5.6h-3.15v-1.5zm-5.3 0h2.45l.1 5.55 4.53.05v1.5h-7.07l-.01-7.1zm-3.9 0l3.3 7.1h-2.24l-.65-1.3h-4l-.63 1.34h-2.4l3.35-7.1 3.27-.04z"></path>
        <path id="permata-alto-6_fill" d="M0 0c3.4 4.07 9.91 6.83 17.4 6.83 7.49 0 14-2.76 17.4-6.83H0z"></path>
    </defs>
</svg>