<?xml version="1.0" encoding="UTF-8"?>
<svg xmlns="http://www.w3.org/2000/svg" xmlns:xlink="http://www.w3.org/1999/xlink" viewBox="0 0 46 24">
    <use fill="#0083C3" xlink:href="#permata-bersama-0_fill"></use>
    <use fill="#FFF" transform="translate(14.38 3.66)" xlink:href="#permata-bersama-1_fill"></use>
    <use fill="#FFF" transform="translate(8.9 3.66)" xlink:href="#permata-bersama-2_fill"></use>
    <use fill="#FFF" transform="translate(6.78 11.43)" xlink:href="#permata-bersama-3_fill"></use>
    <use fill="#FFF" transform="translate(4.48 3.66)" xlink:href="#permata-bersama-4_fill"></use>
    <use fill="#FFF" transform="translate(16.17 5.44)" xlink:href="#permata-bersama-5_fill"></use>
    <use fill="#FFF" transform="translate(18.34 5.42)" xlink:href="#permata-bersama-6_fill"></use>
    <use fill="#FFF" transform="translate(17.39 3.66)" xlink:href="#permata-bersama-7_fill"></use>
    <use fill="#FFF" transform="translate(23.95 3.66)" xlink:href="#permata-bersama-8_fill"></use>
    <use fill="#FFF" transform="translate(26.09 3.66)" xlink:href="#permata-bersama-9_fill"></use>
    <use fill="#FFF" transform="translate(32.93 3.66)" xlink:href="#permata-bersama-10_fill"></use>
    <use fill="#FFF" transform="translate(32.02 3.51)" xlink:href="#permata-bersama-11_fill"></use>
    <use fill="#FFF" transform="translate(34.14 3.89)" xlink:href="#permata-bersama-12_fill"></use>
    <use fill="#FFF" transform="translate(4.33 15.502)" xlink:href="#permata-bersama-13_fill"></use>
    <use fill="#FFF" transform="translate(9.62 15.52)" xlink:href="#permata-bersama-14_fill"></use>
    <use fill="#FFF" transform="translate(14.83 15.52)" xlink:href="#permata-bersama-15_fill"></use>
    <use fill="#FFF" transform="translate(20.16 15.405)" xlink:href="#permata-bersama-16_fill"></use>
    <use fill="#FFF" transform="translate(25.08 15.52)" xlink:href="#permata-bersama-17_fill"></use>
    <use fill="#FFF" transform="translate(30.75 15.52)" xlink:href="#permata-bersama-18_fill"></use>
    <use fill="#FFF" transform="translate(36.76 15.52)" xlink:href="#permata-bersama-19_fill"></use>
    <use fill="#0083C3" transform="translate(10.99 7.04)" xlink:href="#permata-bersama-20_fill"></use>
    <defs>
        <path id="permata-bersama-0_fill" d="M44.922 0H1.078C.483 0 0 .474 0 1.059V22.94C0 23.526.483 24 1.078 24h43.844c.595 0 1.078-.474 1.078-1.059V1.06C46 .474 45.517 0 44.922 0z"></path>
        <path id="permata-bersama-1_fill" d="M0 0h1.13v10.51H0V0z"></path>
        <path id="permata-bersama-2_fill" d="M4.03 0h.71l-.02 7.04H0L4.03 0z"></path>
        <path id="permata-bersama-3_fill" d="M6.81 2.78V0L1.57.07 0 2.82h1.23l1.16-1.79L5.66 1v1.78h1.15z"></path>
        <path id="permata-bersama-4_fill" d="M6.13 0h1.33L1.28 10.65H0L6.13 0z"></path>
        <path id="permata-bersama-5_fill" d="M0 8.67h1.26L6.27 0H.63L.02 1.09h4.36L0 8.67z"></path>
        <path id="permata-bersama-6_fill" d="M0 8.69h1.36l4.4-7.65h3.25L9.74 0 4.98.03 0 8.69z"></path>
        <path id="permata-bersama-7_fill" d="M0 .85h11.09l.45-.85H.44L0 .85z"></path>
        <path id="permata-bersama-8_fill" d="M0 10.55h1.13L7.25 0H5.99L0 10.55z"></path>
        <path id="permata-bersama-9_fill" d="M0 10.55h1.35l3.66-6.39v6.18c-.06 0 1.05-1.88 1.05-1.88V0L0 10.55z"></path>
        <path id="permata-bersama-10_fill" d="M0 0v7.2a12.69 12.69 0 0 0 1-1.92V0H0z"></path>
        <path id="permata-bersama-11_fill" d="M0 10.7h1.09L7.25 0H6.13L0 10.7z"></path>
        <path id="permata-bersama-12_fill" d="M0 10.29h1.33L4.8 4.2v6.09h1.06V0L0 10.29z"></path>
        <path id="permata-bersama-13_fill" d="M2.1 2.048a1.91 1.91 0 0 0 .73-.11.65.65 0 0 0 .41-.65.63.63 0 0 0-.44-.64 2.16 2.16 0 0 0-.73-.1H.74v1.49H2.1v.01zm.25 2.24a1.16 1.16 0 0 0 1-.35.75.75 0 0 0 .19-.53.71.71 0 0 0-.53-.72 2.41 2.41 0 0 0-.75-.1H.74v1.7h1.61zM0 .008h2.37a1.72 1.72 0 0 1 1.39.5c.154.2.235.448.23.7a1.05 1.05 0 0 1-.3.76 2.07 2.07 0 0 1-.44.29c.228.062.442.168.63.31a1.09 1.09 0 0 1 .37.87c0 .315-.118.618-.33.85a2 2 0 0 1-1.59.57H0V.008z"></path>
        <path id="permata-bersama-14_fill" d="M0 0h4.02v.59H.72v1.47h3.05v.56H.72v1.64h3.34v.58H0V0z"></path>
        <path id="permata-bersama-15_fill" d="M2.48 2.21a1.6 1.6 0 0 0 .82-.18.83.83 0 0 0-.13-1.38 1.69 1.69 0 0 0-.61-.09H.75v1.65h1.73zM0 0h2.56a2.76 2.76 0 0 1 1 .17 1.11 1.11 0 0 1 .76 1.14 1.14 1.14 0 0 1-.2.7 1.61 1.61 0 0 1-.57.46c.182.055.347.155.48.29a1 1 0 0 1 .19.61v.66c.003.142.02.282.05.42a.5.5 0 0 0 .24.29v.11h-.84a.35.35 0 0 1-.06-.16 3.89 3.89 0 0 1 0-.39v-.8a.69.69 0 0 0-.41-.64 1.88 1.88 0 0 0-.67-.09H.83v2.08H0V0z"></path>
        <path id="permata-bersama-16_fill" d="M.702 3.385a1.08 1.08 0 0 0 .22.68 1.56 1.56 0 0 0 1.31.48 2.47 2.47 0 0 0 .76-.11.76.76 0 0 0 .67-.73.58.58 0 0 0-.28-.56 2.85 2.85 0 0 0-.89-.29l-.75-.14a4 4 0 0 1-1-.32 1 1 0 0 1-.53-.92 1.27 1.27 0 0 1 .51-1.05 2.19 2.19 0 0 1 1.45-.42 2.84 2.84 0 0 1 1.48.36 1.31 1.31 0 0 1 .6 1.18h-.7a1.08 1.08 0 0 0-.24-.6 1.5 1.5 0 0 0-1.18-.35 1.46 1.46 0 0 0-1 .24.71.71 0 0 0-.29.57.55.55 0 0 0 .33.52c.324.12.659.207 1 .26l.77.15c.314.03.619.119.9.26a1.12 1.12 0 0 1 .53 1 1.18 1.18 0 0 1-.67 1.15 3.25 3.25 0 0 1-1.54.34 2.52 2.52 0 0 1-1.6-.49 1.48 1.48 0 0 1-.56-1.24h.71l-.01.03z"></path>
        <path id="permata-bersama-17_fill" d="M3.31 2.85L2.48.7l-.89 2.15h1.72zM2.09 0h.83l2 4.83h-.81l-.56-1.45H1.38l-.6 1.45H0L2.08 0h.01z"></path>
        <path id="permata-bersama-18_fill" d="M0 0h1.07l1.58 4.08L4.25 0h1v4.83h-.69V.75L2.99 4.83h-.74L.67.75v4.11H0V0z"></path>
        <path id="permata-bersama-19_fill" d="M3.3 2.85L2.46.7l-.88 2.15H3.3zM2.07 0h.86l2 4.83h-.84l-.55-1.44H1.35L.76 4.84H0L2.07.01V0z"></path>
        <path id="permata-bersama-20_fill" d="M0 2.68h1.65L1.6 0 0 2.68z"></path>
    </defs>
</svg>