<?xml version="1.0" encoding="UTF-8"?><svg xmlns="http://www.w3.org/2000/svg" xmlns:xlink="http://www.w3.org/1999/xlink" width="300" height="97" viewBox="0 0 189 61">
    <g transform="translate(-2730 -12)">
        <use fill="#006886" transform="translate(2800.89 25.89)" xlink:href="#doku-w-0_fill"/>
        <use fill="#006886" transform="translate(2800.89 25.89)" xlink:href="#doku-w-1_fill"/>
        <use fill="#006886" transform="translate(2800.89 25.89)" xlink:href="#doku-w-2_fill"/>
        <use fill="#006886" transform="translate(2800.89 25.89)" xlink:href="#doku-w-3_fill"/>
        <use fill="#006886" transform="translate(2800.89 25.89)" xlink:href="#doku-w-4_fill"/>
        <use fill="#006886" transform="translate(2800.89 25.89)" xlink:href="#doku-w-5_fill"/>
        <mask id="a">
            <path fill="#fff" d="M-1-1h119v35H-1z" transform="translate(2800.89 25.89)"/>
            <use transform="translate(2800.89 25.89)" xlink:href="#doku-w-0_fill"/>
            <use transform="translate(2800.89 25.89)" xlink:href="#doku-w-1_fill"/>
            <use transform="translate(2800.89 25.89)" xlink:href="#doku-w-2_fill"/>
            <use transform="translate(2800.89 25.89)" xlink:href="#doku-w-3_fill"/>
            <use transform="translate(2800.89 25.89)" xlink:href="#doku-w-4_fill"/>
            <use transform="translate(2800.89 25.89)" xlink:href="#doku-w-5_fill"/>
        </mask>
        <g mask="url(#a)">
            <use fill="#006886" transform="translate(2800.89 25.89)" xlink:href="#doku-w-6_stroke_2x"/>
        </g>
    </g>
    <use fill="#E8262C" transform="translate(.75 .125)" xlink:href="#doku-w-7_fill"/>
    <use fill="#FFF" transform="translate(9.75 9.186)" xlink:href="#doku-w-8_fill"/>
    <use fill="#FFF" transform="translate(30.81 31.01)" xlink:href="#doku-w-9_fill"/>
    <use fill="#FFF" transform="translate(30.85 9.225)" xlink:href="#doku-w-10_fill"/>
    <use fill="#FFF" transform="translate(9.75 30.925)" xlink:href="#doku-w-11_fill"/>
    <defs>
        <path id="doku-w-0_fill" d="M8.164 32.7h4.127l6.257-23.572h.09l6.235 23.573h4.15L37.187 0H31.96l-5.159 23.236h-.09L20.387 0H16.8l-6.347 23.236h-.09L5.226 0H0l8.164 32.7z"/>
        <path id="doku-w-1_fill" d="M51.25 32.7h4.687V16.8c-.03-2.841-.92-4.845-2.67-6.01-1.749-1.137-4.089-1.69-7.02-1.66-3.468-.06-6.093 1.076-7.872 3.409l3.678 2.803a3.369 3.369 0 0 1 1.66-1.435c.673-.24 1.593-.36 2.759-.36 3.215-.059 4.807.935 4.777 2.984v2.444h-6.482c-2.482.03-4.366.703-5.652 2.02-1.286 1.285-1.928 2.907-1.928 4.866 0 2.049.74 3.73 2.22 5.047 1.405 1.345 3.409 2.033 6.01 2.063 1.586 0 2.827-.194 3.724-.583.912-.374 1.585-.957 2.018-1.75h.09v2.064zm0-8.186c0 1.75-.367 2.871-1.1 3.365-.807.493-2.19.725-4.15.695-1.554 0-2.668-.307-3.341-.92-.703-.553-1.054-1.226-1.054-2.018-.03-1.81 1.316-2.744 4.037-2.804h5.607v1.682z"/>
        <path id="doku-w-2_fill" d="M61.992 27.049c0 2.048.584 3.506 1.75 4.373 1.106.853 2.512 1.279 4.216 1.279h2.086v-4.419H68.43c-1.166 0-1.749-.53-1.749-1.592V0h-4.688v27.049z"/>
        <path id="doku-w-3_fill" d="M73.835 27.049c0 2.048.583 3.506 1.75 4.373 1.106.853 2.511 1.279 4.216 1.279h2.085v-4.419h-1.614c-1.167 0-1.75-.53-1.75-1.592V0h-4.687v27.049z"/>
        <path id="doku-w-4_fill" d="M103.732 22.832v-3.858c-.03-3.065-.979-5.472-2.849-7.222-1.839-1.719-4.089-2.594-6.75-2.624-1.107 0-2.228.202-3.365.606-1.151.404-2.19 1.062-3.117 1.974-.912.897-1.66 2.123-2.243 3.678-.583 1.525-.875 3.439-.875 5.742 0 2.392.337 4.336 1.01 5.831.612 1.555 1.412 2.766 2.4 3.634.508.418 1.053.77 1.636 1.054.554.329 1.122.59 1.705.785a12.16 12.16 0 0 0 3.589.538c3.214.03 6.01-1.226 8.388-3.768l-3.387-2.893c-1.495 1.51-3.192 2.265-5.091 2.265-1.63 0-2.946-.494-3.948-1.48-1.076-.972-1.614-2.393-1.614-4.262h14.511zm-14.511-3.858c.09-1.809.575-3.177 1.457-4.104.898-.882 2.049-1.323 3.454-1.323 1.406 0 2.557.44 3.454 1.323.913.927 1.398 2.295 1.458 4.104h-9.823z"/>
        <path id="doku-w-5_fill" d="M108.913 9.42h-2.333v3.566h2.333V26.96c0 1.84.538 3.245 1.615 4.217 1.046 1.016 2.392 1.525 4.037 1.525h2.445v-4.419h-1.75c-1.136.03-1.689-.545-1.66-1.727v-13.57h3.41V9.42h-3.41V2.333h-4.687V9.42z"/>
        <path id="doku-w-6_stroke_2x" d="M8.164 32.7l-.243.061.048.19h.195v-.25zm4.127 0v.25h.192l.05-.185-.242-.064zm6.257-23.572v-.25h-.192l-.05.186.242.064zm.09 0l.242-.064-.05-.186h-.192v.25zm6.235 23.573l-.242.064.05.186h.192v-.25zm4.15 0v.25h.195l.047-.19-.242-.06zM37.187 0l.242.06.078-.31h-.32V0zM31.96 0v-.25h-.2l-.044.196.244.054zm-5.159 23.236v.25h.2l.044-.196-.244-.054zm-.09 0l-.24.066.05.184h.19v-.25zM20.387 0l.242-.066-.05-.184h-.192V0zM16.8 0v-.25h-.19l-.051.184L16.8 0zm-6.347 23.236v.25h.19l.05-.184-.24-.066zm-.09 0l-.244.054.043.196h.201v-.25zM5.226 0l.244-.054-.043-.196h-.201V0zM0 0v-.25h-.32l.077.31L0 0zm51.25 32.7H51v.25h.25v-.25zm4.687 0v.25h.25v-.25h-.25zm0-15.901h.25v-.003l-.25.003zm-2.67-6.01l.14-.209-.003-.002-.136.21zm-7.02-1.66l-.004.25h.007l-.002-.25zm-7.872 3.409l-.199-.152-.151.199.199.151.151-.199zm3.678 2.803l-.151.199.222.17.144-.24-.215-.129zm1.66-1.435l-.084-.236-.01.004.094.232zm2.759-.36v.25h.005l-.005-.25zm4.777 2.984l-.25-.004v.004h.25zm0 2.444v.25h.25v-.25h-.25zm-6.482 0v-.25h-.003l.003.25zm-5.652 2.02l.177.176.002-.002-.179-.175zm.292 9.913l.173-.181-.007-.006-.166.187zm6.01 2.063l-.002.25h.003v-.25zm3.724-.583l-.095-.232-.005.002.1.23zm2.018-1.75v-.25h-.148l-.07.13.218.12zm.09 0h.25v-.25h-.25v.25zM50.15 27.88l.13.213.01-.006-.14-.207zm-4.15.695l.005-.25H46v.25zm-3.341-.92l.168-.184-.006-.006-.007-.006-.155.196zm-1.054-2.018h.25v-.004l-.25.004zm4.037-2.804v-.25h-.006l.006.25zm5.607 0h.25v-.25h-.25v.25zm12.493 8.59l.152-.198-.003-.002-.15.2zm6.302 1.279v.25h.25v-.25h-.25zm0-4.419h.25v-.25h-.25v.25zM66.68 0h.25v-.25h-.25V0zm-4.688 0v-.25h-.25V0h.25zm13.592 31.422l.153-.198-.004-.002-.149.2zm6.302 1.279v.25h.25v-.25h-.25zm0-4.419h.25v-.25h-.25v.25zM78.522 0h.25v-.25h-.25V0zm-4.687 0v-.25h-.25V0h.25zm29.897 22.832v.25h.25v-.25h-.25zm0-3.858h.25v-.002l-.25.002zm-2.849-7.222l.171-.182-.171.182zm-6.75-2.624l.002-.25h-.003v.25zm-3.365.606l.083.236-.083-.236zm-3.117 1.974l.175.178-.175-.178zm-2.243 3.678l.233.09v-.002l-.233-.088zm.134 11.573l.233-.092-.005-.01-.228.102zm2.4 3.634l-.165.187.006.005.16-.192zm1.638 1.054l.127-.215-.009-.006-.009-.004-.11.225zm1.704.785l-.079.237.005.002.074-.24zm3.589.538l.002-.25h-.002v.25zm8.388-3.768l.182.17.179-.19-.199-.17-.162.19zm-3.387-2.893l.163-.19-.177-.151-.163.165.177.176zm-9.038.785l.175-.179-.008-.007-.168.186zm-1.615-4.262v-.25h-.25v.25h.25zm0-3.858l-.25-.012-.013.262h.263v-.25zm1.457-4.104l-.175-.178-.006.006.181.172zm6.909 0l.178-.175-.003-.003-.175.178zm1.457 4.104v.25h.259l-.009-.258-.25.008zm9.869-9.554v.25h.25v-.25h-.25zm-2.333 0v-.25h-.25v.25h.25zm0 3.566h-.25v.25h.25v-.25zm2.333 0h.25v-.25h-.25v.25zm1.615 18.19l.174-.18-.007-.006-.167.186zm6.482 1.525v.25h.25v-.25h-.25zm0-4.419h.25v-.25h-.25v.25zm-1.75 0v-.25h-.006l.006.25zm-1.66-1.727l.25.007v-.007h-.25zm0-13.569v-.25h-.25v.25h.25zm3.41 0v.25h.25v-.25h-.25zm0-3.566h.25v-.25h-.25v.25zm-3.41 0h-.25v.25h.25v-.25zm0-7.087h.25v-.25h-.25v.25zm-4.687 0v-.25h-.25v.25h.25zM8.164 32.95h4.127v-.5H8.164v.5zm4.369-.186L18.79 9.193l-.483-.129-6.258 23.573.484.128zm6.015-23.387h.09v-.5h-.09v.5zm-.152-.186l6.235 23.573.484-.128L18.88 9.064l-.484.128zm6.477 23.759h4.15v-.5h-4.15v.5zm4.392-.19L37.43.061l-.485-.122L28.78 32.64l.485.121zM37.187-.25H31.96v.5h5.226v-.5zm-5.47.196l-5.159 23.236.488.108L32.205.054l-.488-.108zm-4.915 23.04h-.09v.5h.09v-.5zm.152.184L20.629-.066l-.483.132 6.325 23.236.483-.132zM20.387-.25H16.8v.5h3.588v-.5zm-3.83.184L10.212 23.17l.482.132L17.04.066l-.482-.132zm-6.105 23.052h-.09v.5h.09v-.5zm.154.196L5.47-.054l-.488.108 5.136 23.236.488-.108zM5.226-.25H0v.5h5.226v-.5zM-.243.06l8.164 32.701.486-.12L.243-.062-.243.06zM51.25 32.95h4.688v-.5H51.25v.5zm4.938-.25V16.8h-.5v15.902h.5zm0-15.904c-.03-2.891-.94-4.989-2.78-6.216l-.278.416c1.658 1.105 2.528 3.015 2.558 5.806l.5-.006zm-2.783-6.217c-1.804-1.173-4.198-1.73-7.159-1.7l.005.5c2.9-.03 5.187.518 6.882 1.619l.272-.42zm-7.152-1.7c-3.532-.061-6.239 1.1-8.076 3.507l.398.303c1.722-2.257 4.263-3.37 7.67-3.31l.008-.5zm-8.028 3.857l3.678 2.804.303-.398-3.678-2.803-.303.397zm4.044 2.734a3.12 3.12 0 0 1 1.539-1.333l-.188-.463c-.755.305-1.35.82-1.78 1.539l.429.257zm1.529-1.329c.634-.225 1.521-.344 2.675-.344v-.5c-1.18 0-2.131.12-2.843.373l.168.471zm2.68-.344c1.59-.03 2.733.204 3.468.663.714.446 1.068 1.12 1.054 2.066l.5.008c.016-1.103-.411-1.95-1.29-2.498-.857-.536-2.117-.77-3.742-.74l.01.5zM51 16.53v2.444h.5V16.53H51zm.25 2.194h-6.482v.5h6.482v-.5zm-6.485 0c-2.524.031-4.48.716-5.828 2.094l.358.35c1.225-1.254 3.037-1.914 5.476-1.944l-.006-.5zm-5.825 2.092c-1.337 1.337-2.002 3.025-2.002 5.044h.5c0-1.898.62-3.455 1.855-4.69l-.353-.354zm-2.002 5.044c0 2.117.768 3.868 2.304 5.233l.332-.373c-1.425-1.267-2.136-2.88-2.136-4.86h-.5zm2.297 5.227c1.465 1.403 3.538 2.103 6.18 2.133l.007-.5c-2.56-.03-4.495-.705-5.841-1.994l-.346.361zm6.184 2.133c1.6 0 2.88-.196 3.822-.604l-.199-.459c-.852.37-2.054.563-3.623.563v.5zm3.818-.602c.96-.393 1.68-1.013 2.143-1.86l-.439-.24c-.403.737-1.03 1.283-1.894 1.637l.19.463zm1.923-1.73h.09v-.5h-.09v.5zm-.16-.25V32.7h.5v-2.064H51zm0-6.124c0 1.742-.37 2.74-.989 3.157l.28.415c.847-.57 1.21-1.815 1.21-3.572H51zm-.98 3.151c-.742.454-2.062.689-4.014.659l-.008.5c1.965.03 3.411-.199 4.284-.732l-.261-.427zm-4.018.659c-1.534 0-2.57-.304-3.174-.854l-.336.37c.742.675 1.933.984 3.51.984v-.5zm-3.187-.866c-.652-.513-.96-1.117-.96-1.822h-.5c0 .88.396 1.621 1.15 2.215l.31-.393zm-.96-1.826c-.013-.832.284-1.434.88-1.849.614-.426 1.573-.671 2.913-.7l-.01-.5c-1.381.03-2.456.281-3.188.79-.75.52-1.11 1.29-1.094 2.267l.5-.008zm3.788-2.55h5.607v-.5h-5.607v.5zm5.357-.25v1.682h.5v-1.682H51zm10.743 4.217c0 2.093.598 3.642 1.85 4.574l.299-.401c-1.08-.803-1.649-2.17-1.649-4.173h-.5zm1.847 4.571c1.16.893 2.622 1.33 4.37 1.33v-.5c-1.663 0-3.01-.414-4.065-1.226l-.305.396zm4.37 1.33h2.085v-.5h-2.086v.5zm2.335-.25v-4.418h-.5v4.419h.5zm-.25-4.668H68.43v.5h1.615v-.5zm-1.615 0c-.55 0-.916-.125-1.143-.333-.224-.203-.356-.523-.356-1.01h-.5c0 .577.16 1.053.519 1.38.356.324.864.463 1.48.463v-.5zm-1.5-1.342V0h-.5v26.69h.5zM66.68-.25h-4.688v.5h4.688v-.5zM61.742 0v27.049h.5V0h-.5zm11.843 27.049c0 2.093.597 3.642 1.85 4.574l.298-.401c-1.08-.803-1.648-2.17-1.648-4.173h-.5zm1.847 4.571c1.159.893 2.621 1.33 4.369 1.33v-.5c-1.662 0-3.01-.414-4.064-1.226l-.305.396zm4.369 1.33h2.085v-.5h-2.085v.5zm2.335-.25v-4.418h-.5v4.419h.5zm-.25-4.668h-1.614v.5h1.614v-.5zm-1.614 0c-.55 0-.916-.125-1.144-.333-.223-.203-.356-.523-.356-1.01h-.5c0 .577.16 1.053.52 1.38.355.324.864.463 1.48.463v-.5zm-1.5-1.342V0h-.5v26.69h.5zm-.25-26.94h-4.687v.5h4.687v-.5zM73.585 0v27.049h.5V0h-.5zm30.397 22.832v-3.858h-.5v3.858h.5zm0-3.86c-.031-3.119-.999-5.597-2.928-7.402l-.341.365c1.809 1.694 2.74 4.03 2.769 7.042l.5-.005zm-2.928-7.402c-1.887-1.765-4.199-2.661-6.919-2.692l-.005.5c2.603.03 4.792.883 6.583 2.557l.341-.365zm-6.922-2.692c-1.137 0-2.287.208-3.448.62l.168.472c1.112-.395 2.205-.592 3.28-.592v-.5zm-3.447.62c-1.188.417-2.258 1.095-3.21 2.032l.351.356c.903-.888 1.91-1.525 3.025-1.916l-.165-.472zm-3.21 2.032c-.944.929-1.709 2.189-2.301 3.768l.468.176c.574-1.531 1.304-2.723 2.184-3.588l-.35-.356zm-2.3 3.767c-.598 1.562-.892 3.509-.892 5.83h.5c0-2.283.29-4.164.858-5.652l-.467-.178zm-.892 5.83c0 2.414.339 4.396 1.031 5.935l.456-.206c-.653-1.451-.987-3.356-.987-5.728h-.5zm1.027 5.924c.623 1.582 1.444 2.83 2.467 3.73l.33-.376c-.95-.835-1.73-2.01-2.332-3.538l-.465.184zm2.473 3.735c.524.43 1.086.792 1.687 1.085l.219-.45a8.01 8.01 0 0 1-1.588-1.021l-.318.386zm1.669 1.075a8.985 8.985 0 0 0 1.753.808l.158-.474a8.482 8.482 0 0 1-1.656-.763l-.255.43zm1.758.81c1.19.366 2.412.549 3.663.549v-.5c-1.202 0-2.373-.176-3.515-.527l-.148.478zm3.66.549c3.291.03 6.153-1.259 8.573-3.847l-.365-.342c-2.334 2.496-5.065 3.718-8.203 3.689l-.005.5zm8.553-4.208l-3.386-2.893-.325.38 3.387 2.893.324-.38zm-3.727-2.88c-1.454 1.47-3.09 2.192-4.913 2.192v.5c1.974 0 3.733-.788 5.269-2.34l-.356-.351zm-4.913 2.192c-1.576 0-2.825-.475-3.772-1.409l-.351.357c1.056 1.04 2.439 1.552 4.123 1.552v-.5zm-3.78-1.416c-1.01-.912-1.532-2.256-1.532-4.076h-.5c0 1.918.554 3.415 1.697 4.447l.335-.37zm-1.782-3.826h14.511v-.5H89.221v.5zm.25-4.095c.087-1.774.562-3.076 1.389-3.945l-.363-.344c-.937.985-1.435 2.42-1.526 4.264l.5.025zm1.383-3.939c.844-.83 1.93-1.251 3.278-1.251v-.5c-1.462 0-2.68.461-3.629 1.395l.35.356zm3.278-1.251c1.349 0 2.434.42 3.28 1.251l.35-.356c-.95-.934-2.167-1.395-3.63-1.395v.5zm3.276 1.248c.854.868 1.328 2.167 1.386 3.938l.5-.017c-.06-1.847-.558-3.285-1.53-4.271l-.356.35zm1.636 3.68h-9.823v.5h9.823v-.5zm9.869-9.555h-2.333v.5h2.333v-.5zm-2.583.25v3.566h.5V9.42h-.5zm.25 3.816h2.333v-.5h-2.333v.5zm2.083-.25V26.96h.5V12.986h-.5zm0 13.973c0 1.89.555 3.37 1.697 4.402l.335-.37c-1.01-.913-1.532-2.243-1.532-4.032h-.5zm1.691 4.396c1.099 1.068 2.51 1.596 4.211 1.596v-.5c-1.589 0-2.869-.49-3.863-1.455l-.348.359zm4.211 1.596h2.445v-.5h-2.445v.5zm2.695-.25v-4.419h-.5v4.419h.5zm-.25-4.669h-1.75v.5h1.75v-.5zm-1.756 0c-.529.014-.871-.113-1.081-.332-.212-.22-.337-.583-.323-1.138l-.499-.013c-.016.625.121 1.142.462 1.497.343.357.846.502 1.454.486l-.013-.5zm-1.404-1.477V12.986h-.5v13.57h.5zm-.25-13.319h3.41v-.5h-3.41v.5zm3.66-.25V9.42h-.5v3.566h.5zm-.25-3.816h-3.41v.5h3.41v-.5zm-3.16.25V2.333h-.5V9.42h.5zm-.25-7.337h-4.687v.5h4.687v-.5zm-4.937.25V9.42h.5V2.333h-.5z"/>
        <path id="doku-w-7_fill" d="M60.5 54.7c0 3.2-2.6 5.8-5.8 5.8H5.8c-3.2 0-5.8-2.6-5.8-5.8V5.8C0 2.6 2.6 0 5.8 0h48.9c3.2 0 5.8 2.6 5.8 5.8v48.9z"/>
        <path id="doku-w-8_fill" d="M.1.539v3s-.2.7.9.7h9.1s5.3.1 5.8 5.8c0 0 .1 5.4-5.8 6H.9s-.9-.1-.9.7v2.9s0 .8.8.9c.8.1 10.2 0 10.2 0s8.9-1 8.9-10.5c0-8.4-8.8-9.9-8.8-9.9h-10c0-.1-1-.4-1 .4z"/>
        <path id="doku-w-9_fill" d="M20.744.014h-3.4s-.7-.2-.7.9v9.4s-.1 5.4-5.9 6c0 0-5.5.1-6.1-6v-9.4s.1-.9-.7-.9h-3s-.8 0-.9.8c-.1.8 0 10.5 0 10.5s1.1 9.1 10.8 9.1c9.4 0 10.5-9.1 10.5-9.1v-10.3s.3-1-.6-1z"/>
        <path id="doku-w-10_fill" d="M10.6 0C4.8 0 0 4.6 0 10.2c0 5.7 4.7 10.2 10.6 10.2 5.9 0 10.6-4.6 10.6-10.2C21.1 4.6 16.4 0 10.6 0zm0 16.4c-3.4 0-6.1-2.8-6.1-6.3s2.7-6.3 6.1-6.3c3.4 0 6.1 2.8 6.1 6.3-.1 3.5-2.8 6.3-6.1 6.3z"/>
        <path id="doku-w-11_fill" d="M.9.1H4s.7-.2.7 1.2v7.5L13.5 0h5.7L11 8.2s-.5.5 0 1.2c.5.6 8.1 10.3 8.1 10.3s.7.7 0 .7h-4.6s-.7 0-1-.5c-1.3-1.5-5.7-7.5-5.7-7.5s-.6-.8-1.1-.1l-1.5 1.5s-.3.3-.3.9v5s.1.6-.7.6H.9s-.9.1-.9-.6V1S0 .1.9.1z"/>
    </defs>
</svg>
