<?xml version="1.0" encoding="UTF-8"?><svg xmlns="http://www.w3.org/2000/svg" xmlns:xlink="http://www.w3.org/1999/xlink" width="300" height="50" viewBox="0 0 66 11">
    <path fill="#007BC2" transform="matrix(1 0 0 -1 36.03 10.662)" fill-rule="evenodd" d="M1.788 4.42h4.373c.375 0 .375-.12.375-.319V2.473c0-.412-.065-.55-.658-.55H1.847c-.157 0-.369-.063-.369.253v1.259c0 .215-.046.293-.28.293H.284c-.137 0-.272 0-.272-.293v-2.22C.013.47.323 0 1.275 0h5.27c.778 0 1.469.412 1.469 1.412V4.65c0 .708-.526 1.258-1.478 1.258h-4.62c-.234 0-.438.037-.438.372v1.493c0 .175.094.31.387.31h4.349c.41 0 .322-.094.322-.389v-.863c0-.237.184-.237.396-.237h.817c.236 0 .265.118.265.295v1.328c0 1.314-.457 1.792-1.547 1.792H1.865C.66 10.01.013 9.988 0 8.217V5.635C0 4.807.505 4.42 1.788 4.42z"/>
    <path fill="#007BC2" transform="matrix(1 0 0 -1 45.6 10.662)" fill-rule="evenodd" d="M1.48 4.827v2.787c0 .375.204.47.438.47h4.239c.293 0 .377-.077.377-.31v-5.52c0-.331-.183-.331-.377-.331H1.898c-.293 0-.419.059-.419.35v2.554zM1.496 0h4.886c1.089 0 1.63.367 1.63 1.663v6.554c0 1.203-.496 1.792-1.571 1.792H1.605C.595 10.01 0 9.592 0 8.217V1.448C0 .603.388 0 1.497 0z"/>
    <path fill="#007BC2" transform="matrix(1 0 0 -1 .12 10.662)" fill-rule="evenodd" d="M.221 8.084h1.314V1.923H.26a.222.222 0 0 1-.222-.224V.221A.22.22 0 0 1 .26 0h7.725c.122 0 .22.096.22.22v3.384a.22.22 0 0 1-.219.223H6.94a.223.223 0 0 1-.221-.223V1.923H3.013v6.16H4.25c.125 0 .223.1.223.227v1.476a.222.222 0 0 1-.223.223H.221A.223.223 0 0 1 0 9.786V8.31c0-.126.1-.226.221-.226z"/>
    <path fill="#007BC2" transform="matrix(1 0 0 -1 9.22 10.662)" fill-rule="evenodd" d="M5.58 6.505l1.128-2.052h.012l-.01-.004-.002.004H4.434l-.007.003L5.58 6.505zM.22 0h4.03a.22.22 0 0 1 .222.22V1.7c0 .123-.1.223-.223.223H3.005l-.008.004.582 1.037.003.001-.003-.001h3.948l-.004-.004.572-1.041-.005.004H6.873a.224.224 0 0 1-.223-.224V.221c0-.125.1-.221.223-.221h4.032a.22.22 0 0 1 .22.22V1.7c0 .123-.1.223-.22.223H9.781v-.004L6.41 8.084h1.266c.123 0 .221.1.221.226v1.476a.222.222 0 0 1-.221.223H3.644c-.122 0-.22-.1-.22-.223V8.31c0-.126.098-.226.22-.226h1.123L1.3 1.927l.004-.004H.221A.223.223 0 0 1 0 1.699V.221C0 .096.1 0 .221 0z"/>
    <path fill="#007BC2" transform="matrix(1 0 0 -1 18.52 10.662)" fill-rule="evenodd" d="M.219 8.084h1.209l3.024-6.161H3.215c-.122 0-.22-.1-.22-.224V.221c0-.125.098-.221.22-.221h4.033a.22.22 0 0 1 .221.22V1.7c0 .123-.1.223-.221.223H6.125l2.187 4.504 2.209-4.504H9.322a.223.223 0 0 1-.221-.224V.221c0-.125.1-.221.221-.221h4.03c.124 0 .222.096.222.22V1.7a.222.222 0 0 1-.221.223h-1.131l2.983 6.16h1.184c.122 0 .218.1.218.227v1.476a.22.22 0 0 1-.218.223h-4.033a.223.223 0 0 1-.222-.223V8.31c0-.126.1-.226.222-.226h1.207l-2.196-4.52-2.218 4.52h1.172c.122 0 .218.1.218.226v1.476a.22.22 0 0 1-.218.223H6.288c-.122 0-.22-.1-.22-.223V8.31c0-.126.098-.226.22-.226h1.17l-2.174-4.48-2.202 4.48h1.17c.123 0 .221.1.221.226v1.476a.222.222 0 0 1-.221.223H.219c-.12 0-.219-.1-.219-.223V8.31c0-.126.098-.226.219-.226z"/>
    <path fill="#007BC2" transform="matrix(1 0 0 -1 54.57 10.662)" fill-rule="evenodd" d="M.221 0h4.03c.125 0 .22.096.22.22V1.7a.22.22 0 0 1-.22.223H2.928V6.33h.003l4.674-4.408H6.56c-.121 0-.22-.1-.22-.224V.221c0-.125.099-.221.22-.221h4.031a.22.22 0 0 1 .222.22V1.7a.222.222 0 0 1-.222.223H9.308v6.16h1.283c.123 0 .222.1.222.227v1.476a.222.222 0 0 1-.222.223H6.56c-.121 0-.22-.1-.22-.223V8.31c0-.126.099-.226.22-.226h1.268v-4.33h-.005l-4.587 4.33h1.016c.124 0 .22.1.22.226v1.476a.22.22 0 0 1-.22.223H.222A.222.222 0 0 1 0 9.786V8.31c0-.126.098-.226.221-.226H1.45V1.923H.221A.222.222 0 0 1 0 1.699V.221C0 .096.098 0 .221 0z"/>
</svg>
