<?xml version="1.0" encoding="UTF-8"?><svg xmlns="http://www.w3.org/2000/svg" height="435.127" width="905.804"><defs><clipPath id="a" clipPathUnits="userSpaceOnUse"><path d="M0 326.345h679.353V0H0z"/></clipPath></defs><g clip-path="url(#a)" transform="matrix(1.33333 0 0 -1.33333 0 435.127)"><path d="M110.248 290.376c-39.527 0-69.4-32.35-69.4-75.153 0-42.799 29.873-75.099 69.4-75.099 39.093 0 68.953 32.3 68.953 75.1 0 42.802-29.86 75.152-68.953 75.152m78.173-153.902c-20.628-20.94-48.337-32.319-78.173-32.319-30.32 0-57.986 11.38-78.626 32.32C11.409 156.961 0 185.19 0 215.222c0 30.068 11.409 58.321 31.622 78.815 20.64 20.934 48.307 32.306 78.626 32.306 29.836 0 57.545-11.372 78.173-32.306 20.213-20.494 31.634-48.747 31.634-78.815 0-30.033-11.421-58.26-31.634-78.749M444.304 300.403L360.75 104.217h-7.569c-14.393 0-27.489 8.682-33.37 22.243l-68.783 158.426h-21.534v35.535h87.858v-35.535h-21.52l50.966-120.66 49.187 120.66h-21.479v35.535h69.798zM568.785 290.376c-39.533 0-69.425-32.35-69.425-75.153 0-42.799 29.892-75.099 69.425-75.099 39.068 0 68.96 32.3 68.96 75.1 0 42.802-29.892 75.152-68.96 75.152m78.174-153.902c-20.616-20.94-48.314-32.319-78.174-32.319-30.32 0-57.991 11.38-78.626 32.32-20.201 20.487-31.634 48.715-31.634 78.748 0 30.068 11.433 58.321 31.634 78.815 20.635 20.934 48.307 32.306 78.626 32.306 29.86 0 57.558-11.372 78.174-32.306 20.219-20.494 31.609-48.747 31.609-78.815 0-30.033-11.39-58.26-31.61-78.749M15.284 31.322c1.466 0 2.744.183 3.833.55 1.09.365 1.996.89 2.72 1.575a6.365 6.365 0 011.618 2.495c.36.982.536 2.075.536 3.283 0 1.151-.177 2.19-.536 3.122a6.14 6.14 0 01-1.603 2.375c-.714.656-1.615 1.157-2.705 1.502-1.089.346-2.378.52-3.863.52H9.31V31.322zm0 21.604c2.873 0 5.36-.337 7.458-1.01 2.101-.675 3.834-1.616 5.202-2.824a11.203 11.203 0 003.046-4.339c.664-1.684.995-3.526.995-5.528 0-2.079-.347-3.985-1.04-5.718a11.856 11.856 0 00-3.12-4.474c-1.388-1.247-3.126-2.218-5.216-2.91-2.089-.696-4.532-1.043-7.325-1.043H9.31V9.956H1.318v42.97zM70.558 22.972c-2.12-.1-3.903-.282-5.35-.55-1.445-.268-2.604-.61-3.477-1.025-.87-.416-1.496-.903-1.872-1.455a3.176 3.176 0 01-.565-1.815c0-1.287.383-2.208 1.145-2.763.762-.555 1.758-.832 2.987-.832 1.505 0 2.807.272 3.906.818 1.101.544 2.176 1.37 3.226 2.48zM53.74 36.196c3.506 3.209 7.725 4.814 12.657 4.814 1.785 0 3.38-.294 4.785-.876 1.407-.585 2.595-1.398 3.566-2.437.971-1.04 1.71-2.285 2.214-3.73.506-1.447.76-3.03.76-4.755V9.956h-3.33c-.694 0-1.229.104-1.605.313-.376.207-.674.628-.892 1.262l-.653 2.198a26.003 26.003 0 00-2.258-1.825 13.323 13.323 0 00-2.288-1.325 12.356 12.356 0 00-2.54-.816 14.665 14.665 0 00-2.988-.283c-1.288 0-2.477.174-3.566.52-1.09.348-2.03.868-2.823 1.56-.792.694-1.407 1.557-1.842 2.586-.437 1.03-.655 2.229-.655 3.596 0 .772.13 1.54.386 2.303.26.762.68 1.49 1.265 2.185.583.693 1.341 1.346 2.272 1.96.932.613 2.075 1.149 3.433 1.605 1.357.455 2.937.827 4.738 1.114 1.804.288 3.865.46 6.183.52v1.783c0 2.04-.437 3.55-1.308 4.532-.873.98-2.13 1.47-3.774 1.47-1.189 0-2.175-.138-2.957-.415a12.327 12.327 0 01-2.066-.935 134.51 134.51 0 00-1.619-.936 3.193 3.193 0 00-1.619-.416c-.516 0-.95.133-1.308.399a3.382 3.382 0 00-.862.937zM129.87 40.444L113.26 1.575c-.22-.515-.502-.906-.847-1.173-.347-.268-.877-.402-1.59-.402h-5.467l5.704 12.243-12.331 28.201h6.448c.574 0 1.025-.139 1.352-.416.326-.277.569-.594.728-.95l6.478-15.81c.217-.535.402-1.069.549-1.604.15-.534.294-1.08.432-1.635.177.555.357 1.104.534 1.65a25.2 25.2 0 00.595 1.62l6.12 15.78c.16.394.422.722.789.978a2.09 2.09 0 001.233.387zM151.95 9.956v30.488h4.486c.952 0 1.575-.446 1.873-1.336l.474-2.258a17.536 17.536 0 001.681 1.632c.583.495 1.208.922 1.872 1.279.663.356 1.376.639 2.138.846.764.209 1.6.313 2.511.313 1.923 0 3.503-.52 4.741-1.56 1.238-1.041 2.163-2.423 2.778-4.145.476 1.01 1.071 1.877 1.784 2.6a9.785 9.785 0 002.347 1.769c.852.454 1.758.792 2.718 1.01.962.217 1.928.326 2.9.326 1.681 0 3.177-.258 4.486-.773 1.308-.514 2.407-1.267 3.298-2.257.891-.991 1.57-2.201 2.036-3.626.465-1.426.698-3.061.698-4.903V9.956h-7.34v19.405c0 1.941-.426 3.402-1.277 4.383-.853.98-2.1 1.471-3.746 1.471-.753 0-1.45-.13-2.094-.386a5.03 5.03 0 01-1.695-1.115c-.484-.487-.865-1.096-1.143-1.828-.277-.732-.416-1.575-.416-2.525V9.956h-7.369v19.405c0 2.04-.413 3.526-1.234 4.456-.822.931-2.027 1.398-3.61 1.398a5.934 5.934 0 01-2.987-.788c-.922-.525-1.779-1.243-2.57-2.155V9.956zM239.792 28.706c0 .952-.133 1.848-.402 2.69a6.399 6.399 0 01-1.203 2.214 5.586 5.586 0 01-2.035 1.5c-.823.367-1.778.551-2.87.551-2.118 0-3.788-.605-5.005-1.813-1.218-1.208-1.996-2.922-2.333-5.142zm-13.998-4.426c.12-1.566.397-2.919.832-4.058.436-1.139 1.012-2.079 1.725-2.822a6.72 6.72 0 012.54-1.664c.98-.367 2.066-.55 3.254-.55 1.189 0 2.214.137 3.076.416a14.28 14.28 0 012.259.92c.644.337 1.208.645 1.694.922.484.278.955.416 1.41.416.614 0 1.07-.228 1.368-.682l2.11-2.676a12.31 12.31 0 00-2.734-2.392 15.368 15.368 0 00-3.165-1.546 17.348 17.348 0 00-3.358-.816 23.956 23.956 0 00-3.313-.238c-2.121 0-4.091.352-5.914 1.054a13.266 13.266 0 00-4.755 3.121c-1.346 1.376-2.407 3.08-3.18 5.111-.772 2.03-1.158 4.383-1.158 7.058 0 2.08.337 4.036 1.01 5.869.673 1.833 1.639 3.427 2.898 4.785 1.257 1.357 2.792 2.431 4.606 3.223 1.812.792 3.857 1.189 6.137 1.189 1.92 0 3.694-.308 5.318-.922 1.624-.612 3.022-1.51 4.19-2.688 1.169-1.18 2.085-2.625 2.749-4.338.664-1.714.996-3.67.996-5.87 0-1.11-.12-1.857-.357-2.243-.24-.386-.693-.579-1.367-.579zM277.173 36.7a20.176 20.176 0 001.947 1.71c.683.524 1.407.97 2.17 1.337.762.365 1.58.653 2.452.86.87.21 1.822.313 2.851.313 1.664 0 3.14-.282 4.428-.847 1.287-.565 2.364-1.356 3.224-2.377.862-1.02 1.515-2.238 1.961-3.655.446-1.417.67-2.977.67-4.68V9.956h-7.34v19.405c0 1.861-.427 3.303-1.279 4.323-.85 1.02-2.148 1.531-3.892 1.531a7.636 7.636 0 01-3.566-.862c-1.11-.576-2.16-1.357-3.15-2.347V9.956h-7.34v30.488h4.487c.952 0 1.576-.446 1.874-1.336zM332.002 9.48c-2.655 0-4.692.747-6.107 2.243-1.417 1.496-2.124 3.561-2.124 6.196v17.027h-3.121c-.397 0-.733.13-1.011.388-.278.256-.416.643-.416 1.158v2.913l4.904.802 1.545 8.321c.099.394.286.702.565.92.276.218.634.328 1.07.328h3.803v-9.599h8.142v-5.23h-8.142V18.422c0-.949.233-1.692.699-2.227.465-.536 1.104-.803 1.915-.803.457 0 .838.055 1.145.163.307.11.574.224.802.343.229.12.43.231.61.341.179.108.356.165.535.165a.844.844 0 00.534-.165c.139-.11.288-.273.446-.49l2.2-3.567a11.153 11.153 0 00-3.685-2.02A13.745 13.745 0 00332 9.48M361.301 13.998c0 .612.114 1.197.342 1.752.228.555.54 1.03.936 1.428.397.394.872.713 1.428.949a4.445 4.445 0 001.782.356c.634 0 1.224-.117 1.768-.356a4.74 4.74 0 001.426-.949 4.37 4.37 0 00.965-1.428c.24-.555.36-1.14.36-1.752 0-.636-.12-1.225-.36-1.769a4.386 4.386 0 00-2.39-2.347 4.512 4.512 0 00-1.769-.343c-.634 0-1.229.114-1.782.343a4.277 4.277 0 00-1.428.935 4.327 4.327 0 00-.936 1.412 4.528 4.528 0 00-.342 1.769M410.037 31.322c1.466 0 2.744.183 3.833.55 1.09.365 1.996.89 2.72 1.575a6.378 6.378 0 011.619 2.495c.357.982.535 2.075.535 3.283 0 1.151-.178 2.19-.535 3.122a6.152 6.152 0 01-1.604 2.375c-.714.656-1.615 1.157-2.706 1.502-1.088.346-2.377.52-3.862.52h-5.974V31.322zm0 21.604c2.872 0 5.358-.337 7.459-1.01 2.1-.675 3.833-1.616 5.2-2.824a11.195 11.195 0 003.047-4.339c.663-1.684.995-3.526.995-5.528 0-2.079-.347-3.985-1.041-5.718a11.856 11.856 0 00-3.12-4.474c-1.387-1.247-3.125-2.218-5.215-2.91-2.09-.696-4.532-1.043-7.325-1.043h-5.974V9.956h-7.992v42.97zM462.216 15.156c2.537 0 4.414.852 5.633 2.555 1.217 1.703 1.826 4.2 1.826 7.49 0 3.287-.609 5.793-1.826 7.517-1.219 1.724-3.096 2.584-5.633 2.584-2.574 0-4.482-.865-5.72-2.598-1.237-1.735-1.855-4.235-1.855-7.504 0-3.268.617-5.76 1.854-7.474 1.24-1.713 3.147-2.57 5.721-2.57m0 25.764c2.26 0 4.314-.368 6.167-1.099 1.853-.734 3.437-1.773 4.755-3.12 1.316-1.349 2.333-2.992 3.046-4.935.713-1.94 1.07-4.11 1.07-6.506 0-2.418-.357-4.597-1.07-6.538-.713-1.942-1.73-3.595-3.046-4.963-1.318-1.367-2.902-2.416-4.755-3.15-1.853-.732-3.907-1.099-6.167-1.099-2.277 0-4.348.367-6.21 1.098-1.86.735-3.451 1.784-4.768 3.151-1.32 1.368-2.34 3.021-3.06 4.963-.724 1.941-1.086 4.12-1.086 6.538 0 2.396.362 4.566 1.086 6.506.72 1.943 1.74 3.586 3.06 4.934 1.317 1.348 2.908 2.387 4.769 3.121 1.862.731 3.933 1.1 6.21 1.1M508.901 9.956h-7.369v30.488h7.369zm1.012 39.374c0-.634-.13-1.228-.387-1.783a4.926 4.926 0 00-1.025-1.456 4.909 4.909 0 00-1.501-.995 4.602 4.602 0 00-1.842-.373c-.634 0-1.233.125-1.798.373a4.75 4.75 0 00-1.472.995c-.416.416-.748.9-.996 1.456a4.334 4.334 0 00-.37 1.783c0 .653.123 1.269.37 1.842.248.574.58 1.069.996 1.486a4.75 4.75 0 001.472.995 4.423 4.423 0 001.798.372c.653 0 1.267-.124 1.842-.372a4.909 4.909 0 001.501-.995 4.852 4.852 0 001.025-1.486 4.457 4.457 0 00.387-1.842M541.677 36.7a20.176 20.176 0 001.947 1.71c.683.524 1.407.97 2.168 1.337a12.24 12.24 0 002.453.86 12.23 12.23 0 002.852.313c1.665 0 3.14-.282 4.43-.847 1.286-.565 2.362-1.356 3.222-2.377.863-1.02 1.515-2.238 1.961-3.655.446-1.417.67-2.977.67-4.68V9.956h-7.34v19.405c0 1.861-.426 3.303-1.278 4.323-.852 1.02-2.149 1.531-3.893 1.531a7.636 7.636 0 01-3.566-.862c-1.11-.576-2.16-1.357-3.15-2.347V9.956h-7.339v30.488h4.486c.951 0 1.574-.446 1.873-1.336zM596.506 9.48c-2.655 0-4.691.747-6.107 2.243-1.417 1.496-2.124 3.561-2.124 6.196v17.027h-3.121c-.396 0-.734.13-1.011.388-.278.256-.416.643-.416 1.158v2.913l4.904.802 1.545 8.321c.099.394.286.702.565.92.276.218.634.328 1.07.328h3.802v-9.599h8.143v-5.23h-8.143V18.422c0-.949.235-1.692.7-2.227.465-.536 1.104-.803 1.916-.803.456 0 .837.055 1.144.163.308.11.574.224.803.343.227.12.43.231.609.341.179.108.357.165.535.165a.844.844 0 00.534-.165c.139-.11.288-.273.446-.49l2.2-3.567a11.153 11.153 0 00-3.685-2.02 13.74 13.74 0 00-4.31-.684M645.476 34.5c-.199-.315-.406-.538-.624-.667-.218-.13-.495-.192-.832-.192-.356 0-.737.097-1.143.296-.408.199-.878.42-1.412.668-.535.249-1.144.47-1.828.67-.682.197-1.49.296-2.423.296-1.445 0-2.579-.306-3.4-.922-.824-.614-1.235-1.417-1.235-2.407 0-.652.212-1.202.64-1.648.426-.447.99-.838 1.694-1.175a16.637 16.637 0 012.391-.906 72.69 72.69 0 002.72-.876c.92-.318 1.828-.68 2.718-1.085a9.483 9.483 0 002.393-1.545 7.155 7.155 0 001.693-2.244c.426-.871.64-1.921.64-3.15 0-1.466-.263-2.818-.788-4.056a8.783 8.783 0 00-2.333-3.21c-1.03-.901-2.303-1.605-3.819-2.11-1.516-.505-3.265-.757-5.245-.757-1.05 0-2.076.094-3.075.283a18.185 18.185 0 00-2.882.786c-.922.338-1.774.734-2.555 1.189a12.39 12.39 0 00-2.067 1.487l1.695 2.794c.217.335.475.593.772.772.296.178.672.267 1.13.267.455 0 .886-.13 1.291-.386.405-.258.878-.535 1.412-.832a12.792 12.792 0 011.887-.833c.724-.258 1.64-.386 2.748-.386.873 0 1.621.104 2.244.313.625.207 1.14.479 1.545.816.406.337.704.729.893 1.175.187.445.282.906.282 1.382 0 .713-.214 1.298-.639 1.752-.426.457-.99.85-1.694 1.188-.703.338-1.505.64-2.407.906-.902.269-1.824.56-2.764.878-.94.317-1.86.689-2.764 1.114a9.365 9.365 0 00-2.406 1.62c-.704.653-1.269 1.456-1.694 2.408-.427.949-.639 2.098-.639 3.446a8.79 8.79 0 00.742 3.567 8.394 8.394 0 002.185 2.957c.961.84 2.16 1.514 3.596 2.02 1.436.504 3.095.757 4.978.757 2.1 0 4.012-.346 5.734-1.04 1.724-.693 3.161-1.605 4.31-2.733zM670.347 13.998c0 .612.114 1.197.343 1.752.227.555.54 1.03.935 1.428.397.394.873.713 1.428.949a4.445 4.445 0 001.782.356c.634 0 1.224-.117 1.768-.356a4.728 4.728 0 001.426-.949 4.37 4.37 0 00.965-1.428 4.37 4.37 0 00.36-1.752 4.33 4.33 0 00-.36-1.769 4.386 4.386 0 00-2.39-2.347 4.512 4.512 0 00-1.769-.343c-.634 0-1.229.114-1.782.343a4.287 4.287 0 00-1.428.935 4.325 4.325 0 00-.935 1.412 4.51 4.51 0 00-.343 1.769" fill="#564397"/></g></svg>