<?xml version="1.0" encoding="UTF-8"?>
<svg xmlns="http://www.w3.org/2000/svg" xmlns:xlink="http://www.w3.org/1999/xlink" viewBox="0 0 81 54">
    <use fill="#D87D34" transform="translate(2.6 2.113)" xlink:href="#permata-prima-0_fill"></use>
    <use fill="#FFF" transform="translate(11.27 19.917)" xlink:href="#permata-prima-1_fill"></use>
    <g transform="translate(-2600 94)">
        <use fill="#304F88" transform="matrix(.1 0 0 -.1 2600.75 -40.918)" xlink:href="#permata-prima-2_fill"></use>
        <mask id="a">
            <use fill="#fff" transform="matrix(.1 0 0 -.1 2600.75 -40.918)" xlink:href="#permata-prima-2_fill"></use>
        </mask>
        <g mask="url(#a)">
            <use fill="#FFF" transform="matrix(.1 0 0 -.1 2600.75 -40.918)" xlink:href="#permata-prima-3_stroke_2x"></use>
        </g>
    </g>
    <g transform="translate(-2600 94)">
        <use fill="#304F88" transform="matrix(.1 0 0 -.1 2606.03 -54.55)" xlink:href="#permata-prima-4_fill"></use>
        <mask id="b">
            <use fill="#fff" transform="matrix(.1 0 0 -.1 2606.03 -54.55)" xlink:href="#permata-prima-4_fill"></use>
        </mask>
        <g mask="url(#b)">
            <use fill="#FFFCFC" transform="matrix(.1 0 0 -.1 2606.03 -54.55)" xlink:href="#permata-prima-5_stroke_2x"></use>
        </g>
    </g>
    <use fill="#304F88" transform="matrix(.1 0 0 -.1 15.87 25.674)" xlink:href="#permata-prima-6_fill"></use>
    <use fill="#304F88" transform="matrix(.1 0 0 -.1 27.38 25.57)" xlink:href="#permata-prima-7_fill"></use>
    <use fill="#304F88" transform="matrix(.1 0 0 -.1 63.35 27.435)" xlink:href="#permata-prima-8_fill"></use>
    <defs>
        <path id="permata-prima-0_fill" d="M0 0h77.533v48.572H0V0z"></path>
        <path id="permata-prima-1_fill" d="M0 1.012a1 1 0 0 1 1.012-1L56.38.664a1 1 0 0 1 .964.782l2.058 9.232a1 1 0 0 1-.976 1.217H1a1 1 0 0 1-1-1V1.012z"></path>
        <path id="permata-prima-2_fill" d="M12.542 529.975c-1.305-.459-3.174-1.376-4.126-1.975-4.021-2.575-7.301-7.583-8.077-12.274C.056 513.997-.05 445.149.02 264L.127 14.637l.952-2.433C3.372 6.278 8.24 1.94 14.06.564 16.105.071 56.384 0 396.603 0 667.904 0 777.419.106 778.9.388c6.208 1.129 11.851 6.208 14.038 12.627l.776 2.328.106 248.128c.07 171.309-.036 249.01-.282 250.95-.424 3.421-1.129 5.29-2.928 8.182-2.292 3.704-6.208 6.561-10.652 7.725-1.481.423-65.673.493-383.39.493H14.941l-2.399-.846zm400.039-97.065c18.728-9.417 34.177-17.247 34.353-17.388.141-.141-4.938-3.139-11.287-6.631-55.621-30.579-52.588-28.851-50.86-28.957.847-.035 6.314.071 12.133.247 16.436.494 77.031.212 91.351-.458 68.46-3.104 120.59-10.37 166.406-23.138 61.653-17.177 102.532-43.912 116.041-75.832 8.817-20.915 5.819-43.453-8.712-65.18-35.87-53.717-132.194-94.771-252.925-107.786-27.229-2.963-59.22-4.797-82.992-4.797-7.019 0-7.512-.035-7.336-.6.106-.352.423-1.728.705-3.103.282-1.34 1.164-5.291 1.975-8.783.776-3.456 1.376-6.42 1.341-6.595-.106-.318-68.46 34.036-68.601 34.494-.036.141 8.994 5.255 20.104 11.357 28.745 15.801 43.947 24.196 43.876 24.266-.035 0-4.444-.141-9.77-.317-14.214-.564-71.775-.529-86.06 0-31.073 1.199-55.48 2.892-79.182 5.537-85.249 9.559-148.454 29.769-185.17 59.22-4.691 3.738-12.274 11.18-15.872 15.554-7.618 9.276-13.085 19.998-15.343 30.156-1.481 6.666-1.763 13.791-.881 20.598 3.456 26.347 23.172 52.448 56.961 75.373 46.064 31.285 115.794 54.141 195.928 64.299 30.262 3.844 62.323 5.96 94.243 6.278 4.867.07 8.959.211 9.1.352.176.177-3.28 16.683-3.88 18.553-.106.211-.07.423.071.423.105 0 15.554-7.724 34.283-17.142z"></path>
        <path id="permata-prima-3_stroke_2x" d="M12.542 529.975l.666-1.886-.003-.001-.663 1.887zM8.416 528l-1.079 1.684.006.004.007.004L8.416 528zM.339 515.726l-1.974.322v.004l1.974-.326zM.02 264l-2-.001 2 .001zM.127 14.637l-1.863-.729-.137.351v.377l2 .001zm.952-2.433l1.863.728.003-.007-1.866-.721zM14.06.564l.46 1.947.01-.003-.47-1.944zM778.9.388l-.374 1.965.008.001.009.002.357-1.968zm14.038 12.627l1.897-.633-.004-.012-1.893.645zm.776 2.328l2-.001v-.324l-.103-.308-1.897.633zm.106 248.128l2-.001-2 .001zm-.282 250.95l-1.984-.253-.001.007 1.985.246zm-2.928 8.182l-1.698-1.056-.002.004 1.7 1.052zm-10.652 7.725l-.506-1.935-.022.006-.021.006.549 1.923zm-765.017.493l-.666 1.886.323.114h.343v-2zm431.993-115.299l1.249 1.562.087-.069.078-.079-1.414-1.414zm-11.287-6.631l.964-1.752-.964 1.752zm-50.86-28.957l-.083-1.998-.019.001-.02.001.122 1.996zm12.133.247l-.06 1.999.06-1.999zm91.351-.458l-.09-1.998h-.003l.093 1.998zm166.406-23.138l-.536-1.927.536 1.927zm116.041-75.832l1.841.78.001-.003-1.842-.777zm-8.712-65.18l-1.664 1.111.001.001 1.663-1.112zM509.081 107.787l-.217 1.988h.002l.215-1.988zm-90.328-5.397l1.909.597.003-.011.004-.011-1.916-.575zm.705-3.103l-1.957-.413-.002.01 1.959.403zm1.975-8.783l1.949.453.001-.007.002-.008-1.952-.438zm1.341-6.595l1.961-.393-.025-.122-.039-.118-1.897.633zm-68.601 34.494l-1.912-.588-.016.051-.013.052 1.941.485zm20.104 11.357l.963-1.752v-.001l-.963 1.753zm43.876 24.266v2h.829l.586-.585-1.415-1.415zm-9.77-.317l-.079 1.998.013.001.066-1.999zm-86.06 0l-.074-1.999h-.003l.077 1.999zm-79.182 5.537l-.222-1.987h-.001l.223 1.987zm-185.17 59.22l1.246 1.564.005-.004-1.251-1.56zM42.099 234.02l-1.545-1.271v.002l1.545 1.269zm-16.224 50.754l-1.984.257v.003l1.984-.26zm56.961 75.373l1.124-1.654v-.001l-1.124 1.655zm195.928 64.299l.252-1.984v-.001l-.252 1.985zm94.243 6.278l.029-2h-.009l-.02 2zm5.22 18.905l1.789.894.069-.137.046-.146-1.904-.611zM13.205 528.088c-1.165-.409-2.9-1.261-3.724-1.781l-2.131 3.385c1.08.68 3.084 1.662 4.53 2.17l1.325-3.774zm-3.71-1.772c-3.542-2.268-6.5-6.781-7.183-10.917l-3.947.653c.868 5.247 4.471 10.75 8.972 13.632l2.157-3.368zm-7.183-10.913c.01.065-.007-.123-.025-.849a231.28 231.28 0 0 1-.046-2.736c-.03-2.394-.057-5.927-.081-10.69-.048-9.524-.086-23.95-.112-43.985-.053-40.07-.062-102.568-.027-193.142l-4-.002c-.035 90.575-.026 153.076.027 193.149.026 20.037.064 34.469.112 44.001.024 4.765.051 8.31.081 10.719.015 1.204.03 2.13.047 2.787.015.56.031 1.113.077 1.393l3.947-.645zm-.29-251.402l.105-249.363-4-.002L-1.979 264l4 .002zM1.988 15.366l.953-2.434-3.725-1.457-.953 2.434 3.725 1.457zm.956-2.44c2.069-5.35 6.434-9.2 11.574-10.415l-.92-3.893C7.099.154 1.729 4.979-.786 11.482l3.73 1.443zM14.528 2.507c-.08.02.01-.005.539-.035.46-.025 1.139-.05 2.112-.075 1.944-.05 5-.092 9.688-.13 9.372-.076 25.225-.131 51.652-.171C131.37 2.017 226.493 2 396.603 2v-4c-170.109 0-265.236.018-318.09.097-26.426.04-42.291.095-51.678.17-4.692.039-7.776.082-9.756.132-.988.025-1.716.051-2.237.08-.452.026-.917.06-1.252.141l.938 3.888zM396.603 2c135.65 0 230.854.026 292.329.088 30.738.031 53.042.07 67.754.12 7.357.025 12.812.052 16.473.082 1.832.015 3.21.03 4.15.047a73.578 73.578 0 0 1 1.329.035c.105.006.018.005-.112-.02l.749-3.929c-.177-.033-.363-.042-.41-.045-.099-.006-.22-.01-.356-.015a77.552 77.552 0 0 0-1.131-.026c-.959-.016-2.351-.032-4.186-.047-3.671-.03-9.134-.057-16.492-.082-14.717-.05-37.025-.089-67.764-.12C627.458-1.974 532.253-2 396.603-2v4zm381.94.356c5.429.987 10.527 5.507 12.502 11.304l3.786-1.29c-2.399-7.042-8.587-12.68-15.573-13.95l-.715 3.936zm12.498 11.291l.776 2.328 3.794-1.265-.776-2.328-3.794 1.265zm.673 1.697l.106 248.128 4-.002-.106-248.128-4 .002zm.106 248.128c.035 85.654.026 147.905-.022 188.985-.025 20.54-.059 35.785-.102 46.016-.022 5.116-.046 8.975-.072 11.614-.014 1.32-.027 2.33-.041 3.038-.016.783-.031 1.057-.029 1.043l3.968.505c.032-.256.047-.816.06-1.468.014-.728.028-1.753.041-3.078.027-2.651.051-6.519.073-11.637.043-10.237.077-25.487.102-46.028.048-41.083.057-103.337.022-188.992l-4 .002zm-.267 250.703c-.386 3.115-.985 4.71-2.641 7.372l3.396 2.113c1.942-3.122 2.753-5.266 3.214-8.994l-3.969-.491zm-2.643 7.376c-2.011 3.247-5.488 5.802-9.458 6.842l1.013 3.869c4.918-1.288 9.271-4.447 11.846-8.606l-3.401-2.105zm-9.501 6.854c.193-.056.31-.05.078-.034-.142.011-.358.022-.663.033-.608.023-1.512.046-2.767.067-2.506.042-6.367.079-11.961.112-11.186.067-29.273.115-57.247.15-55.946.071-151.422.088-310.281.088v4c158.858 0 254.337-.017 310.286-.088 27.974-.035 46.07-.083 57.265-.15 5.597-.033 9.476-.07 12.005-.113 1.263-.021 2.2-.044 2.851-.068.323-.013.591-.026.798-.041.117-.008.449-.029.735-.11l-1.099-3.846zm-382.841.416H14.941v4h381.627v-4zm-380.962.115l-2.398-.847-1.331 3.772 2.398.846 1.331-3.771zm397.873-94.239a9930.504 9930.504 0 0 0 24.139-12.175c3.113-1.576 5.648-2.864 7.417-3.766.883-.451 1.578-.807 2.059-1.056l.566-.295a9.142 9.142 0 0 0 .263-.143l.07-.043c.011-.007.095-.059.19-.135l-2.498-3.124c.092-.074.172-.123.176-.126l.045-.027c.011-.006.014-.008.003-.002l-.119.064-.533.278c-.471.243-1.158.596-2.04 1.046-1.763.899-4.294 2.185-7.406 3.76a9694.654 9694.654 0 0 1-24.129 12.171l1.797 3.573zm34.869-17.761a2.006 2.006 0 0 0 .58-1.605 2.035 2.035 0 0 0-.624-1.292 3.347 3.347 0 0 0-.362-.305 13.216 13.216 0 0 0-.741-.501 81.898 81.898 0 0 0-2.462-1.494 341.518 341.518 0 0 0-8.128-4.6l-1.927 3.505a337.285 337.285 0 0 1 8.026 4.543 80.73 80.73 0 0 1 2.335 1.415c.269.172.433.284.513.344.053.039.011.012-.062-.059-.018-.018-.167-.16-.3-.394a1.99 1.99 0 0 1 .324-2.385l2.828 2.828zm-11.737-9.797c-27.823-15.297-40.949-22.498-46.91-25.892a112.768 112.768 0 0 1-3.196-1.869c-.751-.463-.943-.624-.931-.612.014.013.12.114.228.292a1.935 1.935 0 0 1-.735 2.678c-.272.148-.503.185-.552.193-.111.018-.177.013-.04.012.069-.001.256 0 .435-.011l-.245-3.992c-.038.002-.077.002-.214.003-.071 0-.325-.001-.575.039a2.256 2.256 0 0 0-.722.243c-.349.19-.906.637-1.05 1.453a2.101 2.101 0 0 0 .281 1.461c.144.237.308.407.408.503.353.343.931.722 1.611 1.142.747.461 1.818 1.087 3.318 1.941 5.995 3.413 19.164 10.638 46.962 25.921l1.927-3.505zm-51.74-25.207c.754-.031 6.124.07 11.989.248l.121-3.998c-5.774-.175-11.338-.285-12.277-.246l.167 3.996zm11.989.248c16.478.495 77.125.213 91.505-.46l-.187-3.995c-14.26.667-74.803.949-91.198.457l-.12 3.998zm91.502-.46c68.551-3.107 120.843-10.387 166.852-23.208l-1.073-3.854c-45.623 12.715-97.592 19.967-165.96 23.067l.181 3.995zm166.852-23.208c61.776-17.211 103.46-44.169 117.345-76.979l-3.683-1.559c-13.132 31.029-53.206 57.542-114.735 74.684l1.073 3.854zM772.56 281.53c9.122-21.636 5.948-44.88-8.892-67.068l-3.325 2.223c14.223 21.265 17.045 43.097 8.532 63.291l3.685 1.554zm-8.891-67.067c-18.239-27.314-51.685-51.205-95.519-69.886-43.872-18.697-98.334-32.255-158.855-38.779l-.429 3.977c60.211 6.491 114.276 19.968 157.716 38.482 43.479 18.529 76.129 42.024 93.76 68.427l3.327-2.221zM509.297 105.798c-27.291-2.969-59.354-4.808-83.208-4.808v4c23.691 0 55.609 1.829 82.775 4.785l.433-3.977zm-83.208-4.808c-3.559 0-5.329-.011-6.205-.082a3.27 3.27 0 0 1-.334-.039c-.058-.012.119.013.354.161a1.79 1.79 0 0 1 .806 1.736 1.326 1.326 0 0 1-.048.221l-3.818-1.193c-.044.14-.185.596-.08 1.154a2.21 2.21 0 0 0 1.007 1.466c.367.231.742.326.971.373.258.053.537.085.819.108 1.082.088 3.068.095 6.528.095v-4zm-5.42 1.975c.135-.452.469-1.916.749-3.277l-3.919-.803c-.285 1.39-.586 2.678-.662 2.931l3.832 1.149zm.746-3.266a593.17 593.17 0 0 1 1.967-8.742l-3.897-.905a606.695 606.695 0 0 0-1.984 8.822l3.914.825zm1.97-8.757c.39-1.738.737-3.357.983-4.568.122-.604.222-1.117.289-1.496.034-.188.062-.36.082-.502a3.881 3.881 0 0 0 .036-.42 2.105 2.105 0 0 0-.04-.44l-3.922.785c-.042-.206-.038-.368-.038-.39a1.4 1.4 0 0 1 .005-.1c.001-.022.002-.021-.003.015a9.627 9.627 0 0 1-.058.352c-.059.333-.151.81-.271 1.4-.239 1.179-.58 2.77-.966 4.488l3.903.876zm1.286-7.666c-.185-.401-.717-.983-1.018-1.165a3.583 3.583 0 0 0-.735-.199c-.266-.02-.475.02-.531.03-.152.03-.273.07-.311.083a4.243 4.243 0 0 0-.283.11c-.166.07-.387.17-.645.288-.523.242-1.276.602-2.218 1.058a1041.49 1041.49 0 0 0-7.788 3.827 4841.23 4841.23 0 0 0-23.554 11.77 4736.313 4736.313 0 0 0-23.561 11.916 1035.798 1035.798 0 0 0-7.796 4.009c-.944.493-1.698.892-2.222 1.177-.259.141-.478.263-.641.359a4.94 4.94 0 0 0-.253.157 2.374 2.374 0 0 0-.196.144c-.039.033-.118.1-.206.194-.035.037-.31.319-.452.781l3.823 1.176c-.141.459-.413.736-.442.767a1.833 1.833 0 0 1-.3.26c-.014.01-.004.002.053-.031.104-.061.277-.158.526-.294.493-.268 1.222-.654 2.161-1.144 1.874-.978 4.55-2.353 7.763-3.992a4727.61 4727.61 0 0 1 23.54-11.905 4702.01 4702.01 0 0 1 23.533-11.76c3.211-1.59 5.884-2.905 7.755-3.811.937-.454 1.664-.8 2.154-1.027.249-.115.418-.19.516-.232.057-.024.055-.021.02-.01a1.948 1.948 0 0 1-.743.088 3.563 3.563 0 0 1-.728-.197c-.299-.181-.831-.762-1.016-1.162l3.795-1.265zm-72.439 34.642a2.001 2.001 0 0 0 .409 1.776c.112.134.218.226.256.258.092.078.181.141.229.175.111.077.247.165.387.252.289.18.701.426 1.213.726a351.71 351.71 0 0 0 4.335 2.482c3.65 2.064 8.692 4.872 14.253 7.926l1.926-3.506a1387.756 1387.756 0 0 1-14.211-7.902 343.432 343.432 0 0 1-4.282-2.452 53.217 53.217 0 0 1-1.119-.669 6.17 6.17 0 0 1-.213-.137c-.019-.013.02.012.08.063.021.018.115.098.219.223a1.982 1.982 0 0 1 .399 1.755l-3.881-.97zm21.081 13.595c14.373 7.9 25.358 13.948 32.74 18.03 3.692 2.041 6.48 3.588 8.34 4.629.93.521 1.623.912 2.078 1.174.23.132.388.224.482.281.052.032.062.039.051.031a1.575 1.575 0 0 1-.121-.089c-.018-.015-.138-.111-.264-.262a1.987 1.987 0 0 1-.348-.605c-.128-.357-.312-1.31.468-2.09l2.829 2.829c.78-.781.596-1.735.467-2.093a1.988 1.988 0 0 0-.628-.883 2.578 2.578 0 0 0-.18-.132 5.983 5.983 0 0 0-.204-.129 32.046 32.046 0 0 0-.56-.327c-.475-.273-1.183-.672-2.116-1.195-1.87-1.047-4.665-2.598-8.358-4.64a16717.84 16717.84 0 0 0-32.749-18.034l-1.927 3.505zm44.84 20.513c.009 0-4.338-.138-9.703-.316l-.133 3.998c5.286.175 9.757.318 9.836.318v-4zm-9.69-.315c-14.27-.567-71.882-.531-86.214-.001l.148 3.998c14.238-.528 71.748-.563 85.907-.001l.159-3.996zm-86.217-.001c-31.107 1.201-55.564 2.897-79.327 5.549l.444 3.975c23.641-2.638 47.998-4.329 79.037-5.527l-.154-3.997zm-79.328 5.549c-85.359 9.571-149.03 29.834-186.199 59.647l2.503 3.12c36.265-29.089 99.003-49.246 184.142-58.792l-.446-3.975zM56.724 216.902c-4.796 3.822-12.48 11.362-16.17 15.847l3.09 2.542c3.505-4.262 10.987-11.606 15.573-15.261l-2.493-3.128zm-16.17 15.849c-7.786 9.479-13.415 20.481-15.75 30.991l3.905.868c2.179-9.805 7.484-20.248 14.936-29.321l-3.092-2.538zm-15.75 30.991c-1.534 6.901-1.823 14.26-.913 21.289l3.967-.514c-.853-6.585-.579-13.475.85-19.907l-3.904-.868zm-.912 21.292c3.562 27.159 23.812 53.693 57.822 76.768l2.245-3.31c-33.569-22.776-52.752-48.442-56.102-73.978l-3.965.52zm57.82 76.768c46.416 31.524 116.485 54.447 196.801 64.628l.503-3.969c-79.954-10.135-149.345-32.922-195.056-63.968l-2.247 3.309zm196.8 64.628c30.344 3.854 62.483 5.975 94.475 6.294l.04-4c-31.847-.317-63.83-2.428-94.011-6.262l-.504 3.968zm94.466 6.294a290.7 290.7 0 0 1 6.276.148c.818.031 1.468.063 1.914.095.227.016.372.03.45.04.043.006.026.005-.024-.006a1.606 1.606 0 0 1-.2-.06c-.029-.01-.378-.126-.701-.45l2.828-2.829c-.333-.333-.698-.457-.751-.477a2.52 2.52 0 0 0-.294-.086 3.841 3.841 0 0 0-.344-.059 12.381 12.381 0 0 0-.68-.063 63.25 63.25 0 0 0-2.048-.102c-1.67-.062-3.926-.116-6.368-.151l-.058 4zm7.715-.233a1.989 1.989 0 0 1-.572-1.206c-.011-.118-.007-.205-.007-.221.002-.046.005-.059-.001-.01-.01.085-.032.236-.07.464a83.274 83.274 0 0 1-.348 1.89 386.774 386.774 0 0 1-1.195 5.9c-.931 4.451-1.919 8.903-2.177 9.71l3.808 1.222c.341-1.063 1.382-5.799 2.285-10.113.459-2.196.896-4.346 1.207-5.962.155-.805.282-1.491.365-1.988.041-.244.075-.467.097-.645.009-.082.022-.197.026-.316a2.126 2.126 0 0 0-.074-.67 2.014 2.014 0 0 0-.516-.884l-2.828 2.829zm-4.255 16.243c-.192.385-.34.921-.241 1.515.05.302.187.738.55 1.128.402.432.962.675 1.551.675v-4c.517 0 1.021.216 1.38.603.319.343.427.713.465.936a1.52 1.52 0 0 1-.127.932l-3.578-1.789zm1.86 3.318c.282 0 .501-.064.518-.068.068-.018.121-.036.146-.045l.114-.043a9.602 9.602 0 0 0 .279-.128 350.932 350.932 0 0 0 2.599-1.279c1.759-.872 4.287-2.133 7.396-3.687 6.218-3.11 14.764-7.396 24.129-12.105l-1.797-3.573c-9.363 4.708-17.906 8.992-24.121 12.1a2952.642 2952.642 0 0 1-7.385 3.682 372.92 372.92 0 0 1-2.542 1.251l-.107.051.025-.011a1.697 1.697 0 0 1 .231-.078c.015-.004.233-.067.515-.067v4z"></path>
        <path id="permata-prima-4_fill" d="M300.837 260.929c-51.812-1.375-100.415-7.689-145.138-18.834-76.29-19.046-132.512-50.684-149.865-84.297-22.009-42.606 18.835-81.157 112.654-106.446 52.024-14.038 119.285-23.878 199.808-29.31 13.156-.882 33.436-2.01 40.914-2.293 7.054-.282 7.124-.282 7.406-1.516.106-.564-.211-4.797-.705-9.417S365.065.386 365.1.35c.776-.67 32.167-.318 47.968.529 74.209 3.915 140.976 17.847 194.129 40.455 9.452 3.986 25.571 12.027 33.119 16.471 22.185 13.086 38.021 27.053 46.98 41.479 6.102 9.84 9.029 21.056 7.901 30.332-1.446 11.604-6.631 21.409-16.789 31.603-13.332 13.402-33.331 25.006-61.723 35.835-54.141 20.668-136.568 35.094-240.016 42.077-9.206.6-30.192 1.799-36.858 2.116-8.712.353-10.758.565-10.758 1.059 0 .246-.141.529-.317.599-.176.071.035 3.457.494 8.042.458 4.373.917 8.465.987 9.1l.106 1.128-13.085-.07c-7.16-.035-14.567-.106-16.401-.177zm-163.761-76.078c9.417-1.693 16.224-4.938 20.774-9.841 2.399-2.61 3.774-4.937 4.973-8.535.847-2.54.917-3.351.917-7.936 0-5.678-.67-9.558-2.645-15.131-4.62-13.085-14.743-22.291-28.71-25.994-6.913-1.834-8.218-1.976-23.808-2.152l-14.707-.176-.706-3.739c-.423-2.081-1.87-9.558-3.245-16.648-1.375-7.089-2.575-13.156-2.68-13.473-.177-.6-1.27-.635-16.578-.635H54.297v.776c0 .423 1.587 8.782 3.492 18.588 1.94 9.805 4.797 24.442 6.384 32.484 1.587 8.042 3.103 15.766 3.35 17.177.812 3.915 1.094 3.633-3.35 3.633-2.117 0-3.88.07-3.88.176 0 .106 3.174 7.089 7.054 15.554 3.88 8.43 7.054 15.554 7.054 15.801 0 .247.106.565.247.706.141.141 13.544.211 29.733.106 25.606-.106 29.874-.212 32.696-.741zm113.148.035c13.015-2.434 21.162-8.183 24.266-17.106 2.61-7.513 1.164-18.411-3.527-26.277-2.258-3.844-7.724-9.276-11.851-11.85-3.598-2.187-8.465-4.303-12.839-5.467-1.693-.459-3.068-1.023-3.033-1.2.071-.211 1.517-2.327 3.21-4.726 1.728-2.398 7.971-11.075 13.896-19.328 5.891-8.253 11.252-15.695 11.887-16.577l1.128-1.587-20.21-.106c-11.11-.036-20.386 0-20.598.07-.388.141-.987 1.129-14.073 23.843-4.409 7.654-8.218 14.144-8.429 14.391-.318.317-.882-1.94-2.434-9.876-4.515-22.856-5.538-28.146-5.538-28.322 0-.106-7.442-.177-16.577-.177-9.099 0-16.577.035-16.577.106 0 .106 3.28 16.93 9.347 47.897 2.61 13.333 4.761 24.408 4.761 24.619 0 .247-1.199.388-3.527.388-1.94 0-3.527.071-3.527.177 0 .07 2.857 6.348 6.314 13.896 4.126 8.924 6.489 14.532 6.772 15.907l.423 2.152 28.957-.141c23.878-.142 29.451-.247 31.779-.706zm92.232.212c0-.353-.423-2.681-.917-5.22-.494-2.504-1.587-8.148-2.434-12.521-.846-4.374-3.879-19.752-6.701-34.213-2.822-14.461-6.313-32.131-7.689-39.326l-2.575-13.05-16.471-.106c-15.519-.07-16.471-.036-16.471.529 0 .352 1.34 7.548 2.998 15.977 1.657 8.43 4.444 22.644 6.207 31.567 1.729 8.924 3.527 18.094 3.986 20.352l.811 4.126-3.774.106-3.739.106 6.596 14.355c3.633 7.901 6.701 15.06 6.842 15.872.142.846.318 1.622.424 1.798.07.142 7.512.247 16.542.247 15.342 0 16.365-.035 16.365-.599zm83.662-26.559c3.809-14.849 6.983-27.193 7.054-27.44.07-.283 3.88 5.114 8.5 11.992 4.621 6.842 12.944 19.187 18.517 27.44l10.123 14.99 16.506.106 16.472.07v-1.305c0-.74-.388-23.701-.882-51.071-.494-27.335-.882-50.402-.882-51.213V80.59h-33.225l.212 3.81c.459 7.477 2.363 53.399 2.257 54.069-.106.6-2.857-3.28-30.262-42.677a1637.723 1637.723 0 0 0-8.465-12.204l-1.975-2.821-6.737-.106-6.771-.07-.706 2.362c-.388 1.34-2.61 9.241-4.973 17.565-2.363 8.359-5.608 19.857-7.23 25.571-1.623 5.714-3.14 11.11-3.351 11.992l-.423 1.552-5.714-15.307c-3.139-8.43-8.112-21.727-11.005-29.522l-5.255-14.214h-16.542c-13.05 0-16.471.106-16.33.459.106.211 2.963 7.407 6.349 15.942s9.911 24.936 14.496 36.47c4.585 11.533 8.288 20.986 8.218 21.092-.141.105-5.785 1.163-6.384 1.163-.565 0 .141 1.094 8.817 13.862 4.797 7.019 9.065 13.508 9.453 14.461l.705 1.657 16.26-.07 16.225-.106 6.948-26.982zm203.758-24.76c7.23-28.569 13.191-52.236 13.297-52.588.176-.565-.776-.6-17.565-.53l-17.741.107-2.116 8.817-2.152 8.818-22.044.106-22.044.07-5.961-8.853c-3.245-4.867-6.102-8.923-6.313-8.994-.212-.07-8.148-.106-17.6-.07l-17.247.106 6.031 9.17c3.28 5.044 7.371 11.322 9.1 13.932 1.693 2.645 10.404 15.942 19.328 29.592 8.923 13.649 16.189 24.901 16.189 25.042-.035.106-1.587.846-3.456 1.622-1.835.776-3.316 1.517-3.281 1.623.036.106 5.15 4.832 11.357 10.546 6.208 5.678 11.746 11.004 12.31 11.85l.988 1.552h35.764l13.156-51.918z"></path>
        <path id="permata-prima-5_stroke_2x" d="M300.837 260.929l.077-1.998-.012-.001h-.012l-.053 1.999zm-145.138-18.834l-.485 1.94.001.001.484-1.941zM5.834 157.798l1.777-.917-1.777.917zM118.488 51.352l.521 1.931-.521-1.931zm199.808-29.31l-.134-1.995h-.001l.135 1.995zm40.914-2.293l.075 2 .005-.001-.08-1.998zm7.406-1.516l1.95.446.009-.039.007-.038-1.966-.37zM365.1.35l-1.307-1.514-.056.048-.051.052L365.1.35zm47.968.529l-.107 1.997h.001l.106-1.997zm194.129 40.455l-.783 1.84.006.003.777-1.843zm33.119 16.471l1.016-1.722-.001-.001-1.015 1.724zm46.98 41.479l1.7-1.054-.001-.001-1.699 1.055zm7.901 30.332l1.984.248.001-.006-1.985-.242zm-16.789 31.603l-1.417-1.412-.001.001 1.418 1.411zm-61.723 35.835l-.713-1.869h-.001l.714 1.869zm-240.016 42.077l.13 1.996h.004l-.134-1.996zm-36.858 2.116l.081 1.999h.007l.007-.001-.095-1.998zm-10.581 9.7l-1.99.199.001.009 1.989-.208zm.987 9.1l1.992-.187-.002-.017-.002-.017-1.988.221zm.106 1.128l-.011 2 2.208.012-.206-2.198-1.991.186zm-13.085-.07l.01-2-.01 2zM137.076 184.85l-.354-1.969-.007.002-.008.001.369 1.966zm20.774-9.841l1.466 1.361.007-.007-1.473-1.354zm4.973-8.535l-1.897-.633 1.897.633zm-1.728-23.067l-1.886.666.001.002 1.885-.668zm-28.71-25.994l-.513 1.933.513-1.933zm-23.808-2.152l-.024 2h.002l.022-2zm-14.707-.176l-1.966.371.304 1.609 1.638.02.023-2zm-.706-3.739l1.965-.371-.002-.014-.003-.014-1.96.399zm-5.925-30.12l-1.92.563.01.035.012.034 1.898-.633zm-32.943-.636v-2h-2v2h2zm3.492 19.364l-1.964.381.002.007 1.962-.388zm9.734 49.661l-1.97.344.006.031.006.03 1.958-.405zm-.176 19.363l-1.818.833.001.003 1.817-.836zm37.034 16.613l-.008-2h-.005l.013 2zm145.844-.706l-.368-1.966-.009.002-.01.002.387 1.962zm24.266-17.106l1.889.657v-.001l-1.889-.656zm-3.527-26.277l-1.725 1.013.007.012 1.718-1.025zm-11.851-11.85l1.059-1.697-.01-.006-.01-.007-1.039 1.71zm-12.839-5.467l-.522 1.93.008.002.514-1.932zm-3.033-1.2l-1.897-.632-.04.118-.024.122 1.961.392zm3.21-4.726l-1.623-1.169-.006.008-.005.008 1.634 1.153zm13.896-19.328l1.625 1.166.003-.004-1.628-1.162zm11.887-16.577l1.623 1.168.006-.01-1.629-1.158zm1.128-1.587l1.63 1.159 2.232-3.14-3.851-.02-.011 2zm-20.21-.106l.011-2h-.004l-.007 2zm-20.598.07l-.632-1.897-.026.009-.025.009.683 1.88zm-14.073 23.843l-1.733-.998 1.733.998zm-8.429 14.391l1.414 1.414.054-.055.05-.058-1.518-1.301zm-2.434-9.876l1.963-.384-.001-.004-1.962.388zm-29.345 19.504l1.963-.384-1.963.384zm4.021 39.08l-1.819.833.003.007 1.816-.84zm6.772 15.907l1.962-.386-.002-.008-.001-.008-1.959.402zm.423 2.152l-1.963.386.32 1.622 1.653-.008-.01-2zm28.957-.141l.01 2h.002l-.012-2zm123.094-5.714l1.963-.382-.001-.005-1.962.387zm-16.824-86.06l1.965-.376-.003-.011-1.962.387zm-2.575-13.05l1.962-.388-.316-1.602-1.633-.01-.013 2zm-16.471-.106l.013-2h-.004l-.009 2zm-7.266 48.073l1.964-.38-.002-.007-1.962.387zm3.986 20.352l1.962-.386-.002-.013-1.96.399zm.811 4.126l.056 1.999 2.362-.066-.456-2.319-1.962.386zm-3.774.106l-.056-1.999.056 1.999zm-3.739.106l-.056-1.999-3.024.085 1.263 2.749 1.817-.835zm6.596 14.355l-1.817.835v.001l1.817-.836zm6.842 15.872l1.973-.329-.002-.014-1.971.343zm.424 1.798l1.789-.894-.035-.069-.039-.065-1.715 1.028zm116.569-26.911l1.937.499v-.002l-1.937-.497zm7.054-27.44l1.923.549.009-.032.008-.032-1.94-.485zm8.5 11.992l-1.66 1.115.003.004 1.657-1.119zm18.517 27.44l-1.657 1.119 1.657-1.119zm10.123 14.99l-1.658 1.119.591.874 1.054.007.013-2zm16.506.106l-.012 2h.004l.008-2zm16.472.07l-.009 2 2.009.009v-2.009h-2zm-.882-52.376l2-.036-2 .036zm-.882-52.73h2v-2h-2v2zm-33.225 0v-2h-2.114l.117 2.111 1.997-.11zm.212 3.81l-1.997.11.001.012 1.996-.123zm2.257 54.069l1.97.348.003-.018.003-.018-1.976-.312zm-30.262-42.677l-1.648 1.132.006.01 1.642-1.142zm-8.465-12.204l-1.638 1.147.003.005 1.635-1.152zm-1.975-2.821l1.639-1.147-.586-.837-1.021-.016-.032 2zm-6.737-.106l.032-2h-.011l-.021 2zm-6.771-.07l.02-2-1.506-.016-.431 1.443 1.917.572zm-.706 2.362l-1.916-.572-.003.008-.002.008 1.921.556zm-4.973 17.565l-1.924-.546-.001.002 1.925.544zM400.3 138.082l1.929.526.008-.029.008-.03-1.945-.467zm-.423 1.552l-1.874.699 2.17 5.815 1.633-5.988-1.929-.526zm-5.714-15.307l-1.875.698.001.001 1.874-.699zm-11.005-29.522l-1.876.694.001.002 1.875-.696zm-5.255-14.214l1.876-.693-.483-1.307h-1.393v2zm-32.872.459l-1.857.743.031.077.037.074 1.789-.894zm29.063 73.504l1.2 1.6.274-.206.19-.285-1.664-1.109zm2.433 15.025l-1.654 1.124.003.004 1.651-1.128zm9.453 14.461l-1.852.754.006.015.006.014 1.84-.783zm.705 1.657l-1.84.784.52 1.222 1.329-.006-.009-2zm16.26-.07l.009 2h.004l-.013-2zm16.225-.106l.013 2 1.539-.01.384-1.491-1.936-.499zm210.706-51.742l1.938.491h.001l-1.939-.491zm13.297-52.588l-1.909-.597-.004.011-.003.011 1.916.575zm-17.565-.53l-.008-2h-.004l.012 2zm-17.741.107l-.012-2-1.567.009-.366 1.524 1.945.467zm-2.116 8.817l1.943.474.001-.007-1.944-.467zm-2.152 8.818l.01 2 1.563-.008.37-1.518-1.943-.474zm-22.044.106l.006 2h.004l-.01-2zm-22.044.07l-1.659 1.117.597.887 1.068-.004-.006-2zm-5.961-8.853l-1.664 1.11.005.007 1.659-1.117zm-23.913-9.064l-.008-2h-.004l.012 2zm-17.247.106l-.013-2-3.682.022 2.024 3.077 1.671-1.1zm6.031 9.17l1.676-1.09-.005-.01-1.671 1.1zm9.1 13.932l1.684-1.078-.008-.013-.009-.013-1.667 1.104zm35.517 54.634l1.897.632.103-.308v-.324h-2zm-3.456 1.622l-.767-1.847-.013.005.78 1.842zm8.076 12.169l-1.354 1.471.005.004 1.349-1.475zm12.31 11.85l1.687-1.073-.011-.018-.012-.018-1.664 1.109zm.988 1.552l-1.688 1.074.59.926h1.098v-2zm35.764 0v2h1.556l.383-1.508-1.939-.492zM300.89 258.93c-51.685-1.372-100.142-7.669-144.708-18.776l-.967 3.882c44.88 11.184 93.629 17.514 145.569 18.893l.106-3.999zm-144.707-18.775c-38.016-9.491-70.968-22.105-96.537-36.489-25.616-14.41-43.618-30.482-52.035-46.785l-3.554 1.835c8.936 17.31 27.722 33.863 53.627 48.436 25.953 14.6 59.256 27.328 97.53 36.883l.969-3.88zM7.611 156.881c-5.32-10.3-6.785-20.224-4.7-29.704 2.092-9.507 7.8-18.774 17.188-27.642 18.825-17.783 52.105-33.636 98.91-46.252l-1.041-3.862C70.953 62.094 36.901 78.16 17.352 96.627c-9.799 9.256-16.039 19.196-18.347 29.691-2.315 10.522-.632 21.395 5.052 32.398l3.554-1.835zM119.01 53.283c51.851-13.991 118.97-23.819 199.42-29.245l-.269-3.991c-80.594 5.436-147.997 15.29-200.194 29.374l1.042 3.862zm199.42-29.245c13.147-.881 33.405-2.009 40.855-2.29l-.151-3.997c-7.505.283-27.807 1.413-40.972 2.296l.268 3.99zm40.86-2.29c3.407-.136 5.421-.209 6.56-.44.601-.121 1.389-.36 1.984-1.036.549-.625.685-1.388.732-1.593l-3.899-.892c-.094.412-.073.112.163-.157.282-.32.559-.31.225-.242-.731.148-2.279.217-5.925.363l.16 3.997zm9.292-3.146a4.23 4.23 0 0 0 .055-.74c0-.22-.006-.483-.018-.771a68.326 68.326 0 0 0-.136-2.195 211.88 211.88 0 0 0-.583-6.293l-3.978.425c.245 2.294.446 4.486.572 6.167.063.842.107 1.544.128 2.06.011.26.015.458.015.595-.001.19-.011.147.014.014l3.931.738zm-.682-9.999a535.198 535.198 0 0 1-.602-5.928A146.711 146.711 0 0 1 367.1.411l-.003-.06v.026l-.001.072a2.12 2.12 0 0 1-.087.497c-.019.061-.134.458-.495.819l-2.828-2.828c-.361.36-.477.759-.497.822a2.01 2.01 0 0 0-.068.295c-.016.108-.02.195-.022.227-.003.076-.001.14-.001.17.002.068.006.143.01.208.009.137.023.323.041.544.037.446.094 1.079.167 1.85.146 1.543.359 3.658.606 5.975l3.978-.425zm-1.493-6.739c-.26.225-.507.314-.553.331-.083.031-.14.044-.146.045-.014.003.02-.005.129-.018.21-.026.542-.053 1.008-.079.923-.05 2.243-.088 3.884-.112 3.275-.047 7.746-.04 12.698.015 9.906.11 21.673.41 29.534.831l.214-3.994c-7.941-.426-19.77-.726-29.703-.836-4.968-.056-9.478-.063-12.801-.015-1.658.024-3.041.062-4.045.117-.497.028-.934.06-1.278.103-.167.02-.355.048-.534.09-.089.02-.214.052-.351.103a2.19 2.19 0 0 0-.67.392l2.614 3.027zm46.555 1.013c74.039 3.906 140.565 17.803 193.452 40.298l1.566-3.68C554.561 16.773 487.553 2.807 413.173-1.117l-.211 3.994zM606.42 43.178c9.38 3.955 25.418 11.958 32.881 16.352l2.03-3.447c-7.633-4.494-23.832-12.575-33.357-16.59l-1.554 3.685zm32.88 16.351c22.039 13 37.575 26.766 46.297 40.811l3.398-2.11c-9.195-14.807-25.332-28.975-47.663-42.146l-2.032 3.445zm46.296 40.81c5.922 9.549 8.677 20.313 7.615 29.037l3.971.483c1.196-9.829-1.904-21.497-8.186-31.628l-3.4 2.108zm7.616 29.031c-1.38 11.073-6.305 20.488-16.221 30.438l2.834 2.823c10.4-10.436 15.844-20.632 17.356-32.766l-3.969-.495zm-16.222 30.439c-13.047 13.116-32.747 24.595-61.018 35.377l1.425 3.737c28.515-10.874 48.811-22.603 62.429-36.293l-2.836-2.821zm-61.019 35.377c-53.863 20.563-136.056 34.972-239.437 41.951l.269 3.991c103.516-6.988 186.177-21.431 240.595-42.205l-1.427-3.737zm-239.432 41.95c-9.197.599-30.171 1.798-36.823 2.115l.19 3.995c6.68-.318 27.678-1.518 36.893-2.118l-.26-3.992zm-36.809 2.114c-4.344.176-7.093.319-8.762.484-.811.081-1.497.178-2.014.327a3.114 3.114 0 0 0-.982.462c-.408.301-.919.895-.919 1.784h4c0 .765-.446 1.244-.709 1.437-.209.155-.362.184-.279.16.138-.04.508-.111 1.298-.189 1.531-.152 4.16-.291 8.529-.468l-.162-3.997zm-12.677 3.057c0-.229.057-.411.133-.557.042-.081.11-.19.22-.306a1.64 1.64 0 0 1 .587-.395l1.486 3.714c.716-.286 1.09-.849 1.256-1.168a2.81 2.81 0 0 0 .318-1.288h-4zm.94-1.258a2.03 2.03 0 0 0-1.023.907c-.114.206-.169.39-.194.482a2.769 2.769 0 0 0-.08.458 7.221 7.221 0 0 0-.022.663c.003.455.03 1.072.075 1.798.09 1.463.26 3.483.491 5.79l3.98-.398a158.074 158.074 0 0 1-.479-5.638 31.348 31.348 0 0 1-.067-1.574c0-.084 0-.149.002-.198a.723.723 0 0 1 .003-.068 1.663 1.663 0 0 1-.208.618c-.08.146-.363.622-.992.874l-1.486-3.714zm-.752 10.107c.459 4.381.918 8.479.988 9.113l3.976-.442c-.071-.636-.528-4.721-.986-9.088l-3.978.417zm.985 9.078l.106 1.129 3.982-.373-.105-1.129-3.983.373zm2.108-1.058l-13.086-.07-.021 4 13.085.07.022-4zm-13.086-.07c-7.178-.036-14.542-.106-16.334-.175l-.154 3.997c1.876.072 9.326.143 16.468.178l.02-4zM137.43 186.819c9.672-1.738 16.941-5.12 21.886-10.448l-2.932-2.721c-4.155 4.477-10.499 7.585-19.662 9.232l.708 3.937zm21.893-10.455c2.596-2.825 4.112-5.401 5.398-9.257l-3.795-1.265c-1.113 3.34-2.347 5.42-4.548 7.815l2.945 2.707zm5.398-9.257c.441-1.325.72-2.314.866-3.608.138-1.227.153-2.694.153-4.96h-4c0 2.32-.02 3.55-.128 4.511-.101.892-.281 1.578-.686 2.792l3.795 1.265zm1.019-8.568c0-5.912-.711-10.018-2.76-15.799l-3.77 1.336c1.901 5.364 2.53 9.018 2.53 14.463h4zm-2.759-15.797c-4.849-13.734-15.503-23.396-30.084-27.262l-1.025 3.867c13.355 3.541 22.946 12.29 27.337 24.727l3.772-1.332zm-30.083-27.261c-3.485-.925-5.671-1.454-8.981-1.756-3.237-.296-7.551-.375-15.317-.463l-.045 4c7.823.089 11.956.168 14.998.446 2.967.271 4.891.729 8.319 1.639l1.026-3.866zm-24.297-2.219l-14.708-.176-.047 4 14.707.176.048-4zm-12.766 1.453l-.706-3.739-3.93.742.705 3.739 3.93-.742zm-.711-3.767c-.42-2.069-1.864-9.53-3.241-16.63l-3.927.762c1.373 7.08 2.823 14.573 3.248 16.666l3.92-.798zm-3.241-16.63a2307.76 2307.76 0 0 0-1.819-9.284 478.654 478.654 0 0 0-.596-2.968 84.12 84.12 0 0 0-.186-.885 6.518 6.518 0 0 0-.146-.587l-3.795 1.265c-.03-.09-.026-.1.032.17.043.2.103.482.177.842.147.717.349 1.722.591 2.942.484 2.438 1.127 5.724 1.815 9.267l3.927-.761zm-2.726-13.656a2.362 2.362 0 0 0-.842-1.227 2.971 2.971 0 0 0-1.123-.506c-.585-.14-1.404-.203-2.492-.244-2.257-.085-6.408-.094-14.038-.094v4c7.676 0 11.726.01 13.886.091 1.12.043 1.565.102 1.713.137.068.016-.125-.015-.369-.2a1.638 1.638 0 0 1-.572-.829l3.837-1.128zm-18.495-2.07H54.296v4h16.366v-4zm-18.366 2v.775h4v-.776h-4zm0 .775c0 .192.03.396.037.447.016.11.036.243.061.394.05.303.121.714.211 1.216.18 1.005.44 2.403.757 4.09.636 3.373 1.51 7.918 2.462 12.822l3.927-.763a2508.74 2508.74 0 0 1-2.458-12.8 496.245 496.245 0 0 1-.75-4.055 82.81 82.81 0 0 1-.201-1.156 13.655 13.655 0 0 1-.047-.3c-.017-.122 0-.034 0 .105h-4zm3.53 18.976c1.941 9.813 4.793 24.426 6.383 32.483l3.925-.774c-1.584-8.027-4.446-22.688-6.384-32.485l-3.924.776zm6.383 32.483c1.591 8.061 3.101 15.752 3.343 17.134l3.94-.689c-.251-1.439-1.775-9.197-3.358-17.219l-3.925.774zm3.355 17.195c.095.457.208.978.272 1.284.076.363.123.613.148.799.027.199.012.212.022.132.015-.115.08-.407.337-.687.24-.262.486-.335.515-.343.018-.005-.051.015-.292.029-.507.03-1.204.014-2.394.014v4c1.03 0 1.966.018 2.63-.021a5.435 5.435 0 0 0 1.137-.171 2.852 2.852 0 0 0 1.354-.806c.878-.959.722-2.188.655-2.685-.084-.616-.285-1.477-.467-2.356l-3.917.811zm-1.392 1.228a67.73 67.73 0 0 0-2.821.05 16.45 16.45 0 0 0-.966.065c-.12.013-.291.035-.462.074a2.32 2.32 0 0 0-.463.158 2.015 2.015 0 0 0-1.168 1.829h4a1.986 1.986 0 0 1-1.127 1.79c-.182.085-.328.117-.344.121-.066.015-.084.014-.005.005.134-.014.37-.031.71-.046a65.038 65.038 0 0 1 2.646-.046v-4zm-5.88 2.176c0 .242.046.429.052.456a2.265 2.265 0 0 0 .134.402 93.73 93.73 0 0 0 .544 1.242c.361.808.881 1.959 1.52 3.369 1.28 2.82 3.045 6.685 4.986 10.918l3.636-1.666c-1.94-4.231-3.702-8.091-4.979-10.905a714.834 714.834 0 0 1-1.51-3.347 101.675 101.675 0 0 1-.496-1.129c-.01-.022-.008-.02-.002-.003a1.943 1.943 0 0 1 .063.214c.006.024.052.209.052.449h-4zm7.237 16.39c1.938 4.21 3.698 8.091 4.972 10.948a281.71 281.71 0 0 1 1.505 3.419 42.578 42.578 0 0 1 .474 1.145c.006.018 0 .004-.009-.029a1.664 1.664 0 0 1-.029-.115c-.006-.03-.042-.19-.042-.403h4c0-.22-.037-.391-.047-.435a2.407 2.407 0 0 0-.106-.362 9.678 9.678 0 0 0-.135-.352c-.103-.257-.25-.606-.43-1.027-.364-.847-.887-2.034-1.528-3.471-1.282-2.874-3.049-6.77-4.991-10.99l-3.634 1.672zM72.4 184.78c0 .382.076.744.18 1.045.093.269.28.702.653 1.075l2.828-2.828c.132.131.204.249.235.306a.758.758 0 0 1 .104.402h-4zm.833 2.12a2.01 2.01 0 0 0 .943.532c.107.027.198.041.241.047.096.013.19.022.26.027.148.011.337.02.55.028.433.016 1.048.03 1.816.042 1.541.025 3.745.044 6.444.055 5.4.022 12.806.013 20.906-.039l-.026-4c-8.089.052-15.48.061-20.863.039a559.103 559.103 0 0 1-6.396-.054 92.611 92.611 0 0 1-1.733-.04 14.871 14.871 0 0 1-.4-.02c-.04-.003-.03-.003.006.002.013.002.08.011.17.034.043.01.135.035.249.081.065.026.37.146.661.438l-2.828 2.828zm31.155.692c12.798-.053 20.287-.106 24.93-.213 4.625-.105 6.541-.265 8.126-.562l-.737-3.932c-1.236.232-2.864.39-7.481.495-4.597.106-12.045.159-24.854.212l.016 4zm146.203-.74c13.405-2.506 22.359-8.557 25.788-18.415l-3.778-1.314c-2.779 7.989-10.12 13.436-22.745 15.797l.735 3.932zm25.788-18.416c2.833-8.154 1.246-19.666-3.699-27.957l-3.435 2.049c4.437 7.439 5.743 17.725 3.356 24.596l3.778 1.312zm-3.692-27.945c-1.249-2.128-3.311-4.584-5.536-6.805-2.232-2.228-4.749-4.338-6.98-5.73l-2.118 3.393c1.896 1.183 4.176 3.076 6.273 5.168 2.104 2.1 3.904 4.283 4.912 5.999l3.449-2.025zm-12.536-12.548c-3.758-2.283-8.801-4.476-13.363-5.69l-1.029 3.865c4.185 1.114 8.876 3.154 12.314 5.244l2.078-3.419zm-13.355-5.688a18.488 18.488 0 0 1-1.945-.632 4.132 4.132 0 0 1-.407-.181c-.031-.018.053.025.172.13.056.049.202.184.338.406.129.21.383.722.247 1.401l-3.922-.785c-.14.701.12 1.238.266 1.476.153.25.328.415.421.498.194.171.393.29.513.358.263.148.579.288.887.411a22.37 22.37 0 0 0 2.385.779l1.045-3.861zm-1.658 1.364c-.075.224-.178.371-.093.23.032-.054.086-.141.167-.266.16-.247.39-.592.678-1.015.574-.842 1.351-1.961 2.194-3.154l-3.268-2.307a231.56 231.56 0 0 0-2.233 3.211c-.294.433-.544.807-.729 1.091-.091.141-.174.272-.241.384-.014.024-.178.283-.27.561l3.795 1.265zm2.934-4.19c1.729-2.399 7.973-11.077 13.899-19.331l-3.249-2.332a16848.067 16848.067 0 0 1-13.895 19.325l3.245 2.338zm13.902-19.335a4867.007 4867.007 0 0 1 11.882-16.57l-3.247-2.338c-.635.882-5.998 8.327-11.891 16.584l3.256 2.324zm11.888-16.58l1.129-1.587-3.26-2.319-1.128 1.588 3.259 2.318zm-.49-4.746l-20.21-.106-.021 4 20.21.105.021-4zm-20.214-.106c-5.559-.018-10.66-.018-14.4-.005-1.869.007-3.402.017-4.483.03-.539.006-.974.013-1.283.021a19.66 19.66 0 0 0-.395.014 4.753 4.753 0 0 0-.306.027c-.017.002-.18.023-.37.086l1.265 3.795c-.184.06-.336.08-.337.08l-.073.008.021-.001c.059-.003.156-.006.298-.01a95.64 95.64 0 0 1 1.227-.02c1.065-.013 2.585-.023 4.45-.03a2247.2 2247.2 0 0 1 14.373.005l.013-4zm-21.288.19c-.808.294-1.252.989-1.497 1.353-.354.524-.903 1.42-1.817 2.966-1.841 3.116-5.269 9.054-11.809 20.406l3.466 1.997c6.546-11.363 9.96-17.276 11.787-20.368.921-1.558 1.412-2.354 1.689-2.764.385-.571.161-.053-.452.17l-1.367-3.76zm-15.123 24.725a1586.488 1586.488 0 0 1-5.781 9.96 431.96 431.96 0 0 1-1.846 3.126c-.226.379-.404.674-.53.879l-.139.221c-.065.102-.013.011.081-.099l3.037 2.603c.121-.141.228-.311.244-.336l.183-.292c.14-.227.328-.54.558-.924.46-.77 1.097-1.849 1.863-3.156 1.533-2.615 3.59-6.155 5.796-9.986l-3.466-1.996zm-8.111 13.974a1.924 1.924 0 0 1 2.667-.037c.274.264.35.514.297.386-.057-.134-.175-.5-.362-1.257-.361-1.462-.881-3.963-1.658-7.937l-3.926.768c.775 3.961 1.313 6.557 1.701 8.128.188.76.367 1.395.555 1.843.068.163.252.599.624.956.207.198.666.558 1.36.591a2.084 2.084 0 0 0 1.571-.612l-2.829-2.829zm.943-8.849a12158.568 12158.568 0 0 1-4.461-22.661c-.41-2.1-.678-3.488-.843-4.36a99.893 99.893 0 0 1-.174-.934l-.034-.198c-.02-.128.012.032.012.219h-4c0 .154.02.29.02.29l.018.12c.011.072.027.164.046.271.039.217.098.536.182.977.167.883.437 2.28.847 4.381.821 4.204 2.206 11.243 4.463 22.67l3.924-.775zm-5.5-27.934a2.002 2.002 0 0 0-1.18-1.827 2.025 2.025 0 0 0-.401-.134 2.574 2.574 0 0 0-.283-.047 6.644 6.644 0 0 0-.364-.027 38.405 38.405 0 0 0-1.026-.037c-.856-.022-2.084-.04-3.588-.056-3.012-.031-7.163-.049-11.735-.049v4c4.564 0 8.701.018 11.694.049 1.498.015 2.702.034 3.527.055a30.225 30.225 0 0 1 1.049.041 1.577 1.577 0 0 1-.154-.027 1.98 1.98 0 0 1-.884-.463 1.996 1.996 0 0 1-.655-1.478h4zm-18.577-2.177c-4.551 0-8.7.009-11.712.027-1.506.008-2.732.02-3.586.033-.424.007-.767.014-1.009.022-.117.004-.232.01-.328.016-.04.003-.122.01-.213.023-.032.005-.152.022-.296.066a2.01 2.01 0 0 0-.462.203c-.064.039-.971.557-.971 1.716h4c0 1.158-.906 1.675-.968 1.713-.213.128-.4.184-.453.2-.138.041-.247.056-.264.059-.062.01-.101.011-.084.01l.178-.008c.202-.007.514-.014.933-.02a390.98 390.98 0 0 1 3.546-.033c3.001-.018 7.141-.027 11.689-.027v-4zm-18.577 2.106a1.914 1.914 0 0 0 .02.282l.009.057.012.07.031.173.117.612.455 2.36c.403 2.078 1.002 5.16 1.792 9.204 1.578 8.091 3.915 20.04 6.948 35.524l3.926-.769a45797.51 45797.51 0 0 1-6.948-35.52 6510.54 6510.54 0 0 1-2.245-11.55l-.113-.595-.025-.14-.003-.013.006.034.007.058c0 .005.011.097.011.213h-4zm9.384 48.282a9582.789 9582.789 0 0 1 3.359 17.225c.432 2.231.782 4.049 1.024 5.321.121.637.214 1.134.277 1.477l.068.383c.008.043.011.066.012.075.014.089-.016-.068-.016-.247h4c0-.14-.016-.259-.016-.259l-.012-.09a23.93 23.93 0 0 0-.102-.583c-.065-.356-.16-.863-.282-1.502-.243-1.28-.594-3.104-1.026-5.335a9883.98 9883.98 0 0 0-3.36-17.234l-3.926.769zm4.724 24.234c0-.878.553-1.371.759-1.523.215-.158.394-.212.404-.216.045-.014-.018.009-.276.038-.479.054-1.272.089-2.414.089v4c1.187 0 2.157-.035 2.859-.114a5.53 5.53 0 0 0 1.058-.205c.159-.052.45-.157.74-.371.28-.206.87-.758.87-1.698h-4zm-1.527-1.612c-.989 0-1.905.018-2.587.051-.334.016-.649.038-.9.068a3.612 3.612 0 0 0-.463.082c-.072.018-.267.07-.486.184a2.02 2.02 0 0 0-1.091 1.792h4a1.986 1.986 0 0 1-1.054 1.752 1.703 1.703 0 0 1-.379.147c-.082.021-.117.022-.05.014.108-.013.31-.029.616-.044a54.224 54.224 0 0 1 2.394-.046v-4zm-5.527 2.177a1.915 1.915 0 0 0 .068.517c.016.06.032.107.039.129l.037.103.046.111c.028.067.065.153.109.252.088.201.216.487.377.847.324.72.791 1.751 1.364 3.012 1.147 2.525 2.727 5.983 4.455 9.758l3.637-1.666a3808.736 3808.736 0 0 1-4.45-9.747 810.68 810.68 0 0 1-1.357-2.996c-.16-.357-.283-.632-.364-.817l-.085-.195a.213.213 0 0 1-.003-.008c.001.003.012.03.025.069.006.017.02.061.036.119.007.029.02.08.032.144a2 2 0 0 1 .034.368h-4zm6.498 14.736c2.059 4.451 3.672 8.063 4.802 10.726a93.13 93.13 0 0 1 1.319 3.24c.329.868.473 1.337.507 1.503l3.919-.804c-.107-.521-.364-1.27-.686-2.118a98.483 98.483 0 0 0-1.377-3.385c-1.153-2.716-2.785-6.369-4.853-10.841l-3.631 1.679zm6.625 15.453l.423 2.152 3.925-.772-.423-2.152-3.925.772zm2.396 3.766l28.957-.141-.02-4-28.957.141.02 4zm28.959-.141c11.934-.071 19.314-.133 24.002-.235 4.63-.1 6.786-.24 8.151-.509l-.773-3.924c-.963.189-2.757.332-7.465.434-4.65.101-11.995.163-23.939.234l.024 4zm125.999-2.494c0-.276-.058-.659-.097-.912-.051-.33-.122-.75-.207-1.228-.17-.958-.402-2.187-.65-3.462l-3.926.763c.246 1.265.473 2.47.638 3.398.082.466.148.852.192 1.138.055.362.05.402.05.303h4zm-.955-5.607c-.493-2.5-1.585-8.139-2.432-12.514l-3.927.76c.846 4.372 1.94 10.019 2.435 12.528l3.924-.774zm-2.432-12.514c-.846-4.374-3.882-19.765-6.702-34.216l-3.926.766c2.824 14.471 5.854 29.836 6.701 34.21l3.927-.76zm-6.702-34.216c-2.824-14.472-6.313-32.128-7.688-39.319l-3.928.751c1.376 7.2 4.871 24.884 7.69 39.334l3.926-.766zm-7.69-39.33l-2.575-13.05-3.924.774 2.575 13.05 3.924-.775zm-4.524-14.663l-16.471-.106-.026 4 16.471.105.026-4zm-16.475-.106c-7.737-.035-11.904-.045-14.129.027-1.06.035-1.871.09-2.438.229-.269.066-.792.219-1.237.652a2.24 2.24 0 0 0-.676 1.62h4c0 .259-.075.8-.534 1.246a1.587 1.587 0 0 1-.559.355.47.47 0 0 1-.039.011l.027-.005a5.745 5.745 0 0 1 .396-.048 23.12 23.12 0 0 1 1.189-.062c2.131-.069 6.2-.06 13.982-.025l.018-4zm-18.48 2.529c0 .186.029.381.034.418.013.096.031.213.052.343.042.261.103.616.18 1.047.153.866.373 2.069.645 3.52.544 2.903 1.294 6.816 2.124 11.035l3.925-.772c-.828-4.21-1.576-8.11-2.117-11a378.144 378.144 0 0 1-.639-3.48 64.704 64.704 0 0 1-.169-.988l-.039-.251c-.015-.112.004-.015.004.128h-4zm3.035 16.363c1.657 8.428 4.444 22.645 6.208 31.569l3.924-.775c-1.763-8.923-4.549-23.134-6.207-31.566l-3.925.772zm6.207 31.562c1.728 8.921 3.528 18.101 3.989 20.369l3.92-.797c-.457-2.246-2.254-11.408-3.982-20.333l-3.927.761zm3.986 20.356l.812 4.127 3.924-.772-.811-4.126-3.925.771zm2.718 1.742l-3.774.106.112 3.998 3.774-.106-.112-3.998zm-3.774.106l-3.739.106.113 3.998 3.739-.106-.113-3.998zm-5.5 2.94l6.596 14.355 3.634-1.67-6.595-14.355-3.635 1.67zm6.596 14.356a489.508 489.508 0 0 1 4.711 10.549 158.29 158.29 0 0 1 1.474 3.52c.179.444.315.798.408 1.056.117.322.114.355.096.253l3.941-.685c-.053-.305-.183-.672-.275-.929-.116-.319-.271-.72-.457-1.184-.373-.93-.891-2.165-1.513-3.612a499.89 499.89 0 0 0-4.751-10.64l-3.634 1.672zm6.687 15.364c.075.455.163.903.249 1.276.043.185.091.371.142.539.032.107.122.406.29.684l3.43-2.057c.074.124.109.217.11.22.007.018.006.018-.002-.009a4.106 4.106 0 0 1-.074-.284 17.897 17.897 0 0 1-.2-1.026l-3.945.657zm.607 2.365c.331.661.909.904.951.924.16.075.296.113.355.128.131.035.246.052.302.06.129.018.271.03.398.039.265.02.626.036 1.057.051.869.031 2.104.058 3.608.08 3.01.044 7.139.07 11.66.07v-4c-4.509 0-8.616-.026-11.601-.07a188.443 188.443 0 0 1-3.526-.077c-.418-.015-.721-.03-.911-.043l-.127-.011.042.007c.02.004.063.012.119.027.043.011.167.045.317.115.033.015.605.254.934.911l-3.578 1.789zm18.331 1.352c7.649 0 11.789-.008 14.009-.089 1.059-.039 1.869-.097 2.435-.236.268-.067.782-.217 1.224-.636a2.238 2.238 0 0 0 .697-1.638h-4c0-.29.091-.828.55-1.263.325-.309.64-.364.572-.347-.105.025-.51.082-1.624.123-2.127.077-6.17.086-13.863.086v4zm101.964-28.661a39603.89 39603.89 0 0 1 6.457-25.135l.429-1.66.154-.593-3.846-1.099c-.081.282-3.268 12.677-7.068 27.493l3.874.994zm7.057-27.452a1.989 1.989 0 0 1-2.367 1.455c-.457-.104-.744-.349-.748-.352-.118-.092-.171-.16-.119-.102.066.073.2.237.414.517a88.3 88.3 0 0 1 1.791 2.463 457.965 457.965 0 0 1 5.929 8.641l3.32-2.231a452.695 452.695 0 0 0-5.984-8.721 91.739 91.739 0 0 0-1.88-2.584 13.703 13.703 0 0 0-.61-.753 3.148 3.148 0 0 0-.398-.382c-.037-.028-.351-.288-.826-.396a2.011 2.011 0 0 0-2.402 1.475l3.88.97zm4.903 12.626c4.628 6.853 12.935 19.174 18.517 27.44l3.315-2.238c-5.564-8.241-13.904-20.609-18.517-27.441l-3.315 2.239zm18.517 27.44l10.122 14.99 3.315-2.238-10.122-14.99-3.315 2.238zm11.767 15.871l16.507.106.025-4-16.506-.106-.026 4zm16.511.106l16.471.07.017-4-16.471-.07-.017 4zm18.48-1.93v-1.305h-4v1.305h4zm0-1.305c0-.764-.389-23.757-.882-51.107l-4 .072c.494 27.389.882 50.319.882 51.035h4zm-.882-51.107c-.494-27.354-.882-50.39-.882-51.177h-4c0 .835.389 23.933.882 51.249l4-.072zm-.882-51.177V80.59h-4v1.517h4zm-2-3.517h-16.612v4h16.612v-4zm-16.612 0h-16.613v4h16.613v-4zm-18.61 2.111l.212 3.81 3.994-.222-.212-3.81-3.994.222zm.213 3.82c.228 3.715.817 17.04 1.338 29.549.26 6.248.502 12.282.673 16.795.086 2.257.153 4.131.196 5.459.021.666.036 1.189.044 1.554.004.183.006.318.006.408v.076c-.001.058-.002-.058.021-.205l3.951.624a3.573 3.573 0 0 0 .028-.514c0-.124-.003-.286-.007-.477-.009-.386-.024-.925-.046-1.594-.043-1.34-.11-3.223-.196-5.482-.171-4.52-.413-10.559-.673-16.81-.52-12.489-1.112-25.864-1.343-29.627l-3.992.245zm2.284 53.601c.026-.149.124-.617.545-1.033a1.96 1.96 0 0 1 1.677-.544c.385.061.641.222.714.269.099.063.158.117.168.126.005.005-.121-.122-.479-.579-.667-.852-1.851-2.474-3.918-5.389-4.12-5.81-11.653-16.62-25.358-36.322l-3.284 2.284c13.7 19.695 21.246 30.523 25.379 36.352 2.06 2.905 3.297 4.603 4.032 5.541.343.438.662.824.945 1.079.079.073.198.173.346.269.123.079.419.257.838.323a2.043 2.043 0 0 0 2.334-1.681l-3.939-.695zM442.157 94.66c-3.566-5.19-7.38-10.663-8.479-12.223l-3.27 2.304c1.088 1.544 4.893 7.004 8.452 12.184l3.297-2.265zm-8.475-12.218l-1.975-2.821-3.277 2.294 1.975 2.821 3.277-2.294zm-3.582-3.674l-6.737-.106-.063 4 6.737.105.063-4zm-6.748-.106l-6.772-.07-.041 4 6.772.07.041-4zm-8.709 1.357l-.705 2.363 3.833 1.144.705-2.363-3.833-1.144zm-.71 2.38c-.39 1.345-2.617 9.264-4.976 17.574l3.848 1.092c2.367-8.337 4.584-16.22 4.97-17.555l-3.842-1.112zm-4.977 17.576c-2.363 8.361-5.607 19.857-7.229 25.569l3.847 1.092c1.623-5.715 4.869-17.216 7.232-25.573l-3.85-1.088zm-7.229 25.569c-1.613 5.679-3.148 11.137-3.372 12.071l3.89.934c.199-.829 1.697-6.164 3.329-11.913l-3.847-1.092zm-3.357 12.012l-.423 1.552 3.859 1.052.423-1.552-3.859-1.052zm3.38 1.379l-5.714-15.308-3.747 1.399 5.714 15.307 3.747-1.398zm-5.713-15.306c-3.141-8.436-8.112-21.725-11.004-29.52l-3.75 1.392c2.893 7.795 7.869 21.1 11.005 29.524l3.749-1.396zm-11.003-29.517l-5.255-14.214-3.752 1.387 5.255 14.214 3.752-1.387zm-7.131-15.52h-16.542v4h16.542v-4zm-16.542 0c-6.52 0-10.667.026-13.169.097-1.237.035-2.137.083-2.738.154a4.618 4.618 0 0 0-.953.196 2.285 2.285 0 0 0-.856.521 2.054 2.054 0 0 0-.471 2.232l3.714-1.485a1.95 1.95 0 0 1-.438 2.106c-.303.298-.612.396-.637.405-.114.04-.125.025.109-.002.409-.049 1.153-.093 2.384-.129 2.436-.07 6.525-.096 13.055-.096v-4zm-18.119 3.352c-.032-.065-.019-.04.1.254l.393.976c.335.835.807 2.019 1.382 3.465 1.15 2.89 2.71 6.823 4.404 11.09l3.718-1.475a10500.072 10500.072 0 0 0-5.791-14.568c-.168-.42-.303-.755-.4-.993a9.66 9.66 0 0 0-.228-.538l-3.578 1.79zm6.279 15.785c3.386 8.537 9.912 24.939 14.496 36.472l3.717-1.478c-4.585-11.535-11.11-27.934-14.495-36.469l-3.718 1.475zm14.496 36.472a2738.092 2738.092 0 0 1 5.851 14.819c.744 1.907 1.34 3.451 1.746 4.523.203.537.354.945.451 1.217.049.139.077.223.09.263.008.026 0 .004-.011-.044a1.958 1.958 0 0 1-.047-.523c.003-.067.015-.535.333-1.012l3.328 2.219c.319-.478.331-.949.335-1.02a2.152 2.152 0 0 0-.012-.335c-.015-.121-.037-.216-.046-.255a3.093 3.093 0 0 0-.063-.224 13.443 13.443 0 0 0-.138-.409c-.111-.31-.273-.749-.479-1.292a497.647 497.647 0 0 0-1.761-4.562 2696.727 2696.727 0 0 0-5.86-14.843l-3.717 1.478zm8.877 18.753c.19-.143.361-.216.391-.229a2.07 2.07 0 0 1 .129-.05l.06-.019-.121.029c-.144.034-.359.08-.632.136-.543.11-1.267.25-2.011.387-.743.138-1.495.271-2.093.369-.3.049-.551.088-.739.113-.242.034-.255.027-.168.027v4c.237 0 .531-.039.713-.064.236-.032.525-.077.841-.129.633-.104 1.413-.242 2.173-.382s1.51-.285 2.085-.402c.285-.059.538-.113.732-.157.094-.022.194-.046.283-.071a2.514 2.514 0 0 0 .344-.119c.04-.017.218-.094.413-.239l-2.4-3.2zm-5.184.763c-.156 0-.528.012-.939.205a2.094 2.094 0 0 0-1.103 1.251 2.223 2.223 0 0 0-.063 1.1c.043.229.114.425.171.566.203.501.615 1.191 1.19 2.095 1.211 1.902 3.579 5.4 7.907 11.769l3.309-2.248c-4.349-6.399-6.672-9.832-7.842-11.669-.29-.456-.498-.796-.643-1.048a6.247 6.247 0 0 1-.202-.374l-.012-.027s.007.016.016.044c.008.028.023.08.037.151.02.109.075.45-.063.874a1.907 1.907 0 0 1-1.003 1.137 1.791 1.791 0 0 1-.76.174v-4zm7.166 16.99a604.554 604.554 0 0 1 6.358 9.473 164.747 164.747 0 0 1 2.081 3.241c.26.418.465.756.613 1.013.168.291.21.386.2.36l3.704-1.509c-.176-.433-.628-1.184-1.12-1.975a169.35 169.35 0 0 0-2.132-3.322 619.354 619.354 0 0 0-6.401-9.538l-3.303 2.257zm9.264 14.116l.705 1.658 3.681-1.567-.706-1.657-3.68 1.566zm2.554 2.874l16.26-.07-.018-4-16.259.07.017 4zm16.264-.07l16.225-.106-.027-4-16.224.106.026 4zm18.148-1.607l6.949-26.982-3.874-.998-6.948 26.982 3.873.998zm210.709-51.75c3.615-14.285 6.913-27.345 9.32-36.877l2.871-11.364.8-3.156.282-1.108-3.831-1.149c-.122.409-6.105 24.162-13.32 52.672l3.878.982zm13.267-52.483c.084-.27.308-1.157-.336-2-.486-.634-1.175-.812-1.398-.867-.572-.143-1.419-.197-2.535-.23-2.359-.073-6.84-.063-15.213-.028l.016 4c8.416-.036 12.805-.044 15.075.025.563.017.97.039 1.263.063.145.012.252.024.327.034a.61.61 0 0 1 .098.017s-.088-.021-.215-.085a1.815 1.815 0 0 1-.9-2.122l3.818 1.193zm-19.486-3.125l-17.741.106.024 4 17.741-.106-.024-4zM605.922 80.3l-2.116 8.817 3.889.934 2.117-8.818-3.89-.933zm-2.114 8.81l-2.152 8.818 3.886.948 2.152-8.818-3.886-.948zm-.218 7.292l-22.045.106.02 4 22.044-.106-.019-4zm-22.041.106l-22.044.07.012 4 22.044-.07-.012-4zm-20.379.953l-5.961-8.853-3.318 2.234 5.961 8.853 3.318-2.234zm-5.956-8.845a325.365 325.365 0 0 0-4.322-6.336 90.093 90.093 0 0 0-1.433-1.995 19.096 19.096 0 0 0-.479-.618 5.09 5.09 0 0 0-.229-.26 2.654 2.654 0 0 0-.196-.185c-.026-.022-.286-.255-.686-.388l-1.265 3.795a1.904 1.904 0 0 1-.63-.352c-.064-.053-.103-.095-.111-.102-.018-.019-.011-.014.029.035.075.09.194.244.362.469.331.443.797 1.09 1.366 1.9a321.858 321.858 0 0 1 4.266 6.256l3.328-2.22zm-7.345-9.782c-.172-.057-.316-.078-.344-.083a4 4 0 0 0-.303-.03c-.099-.005-.221-.01-.355-.014a73.06 73.06 0 0 0-1.113-.021c-.931-.013-2.245-.023-3.844-.03-3.198-.013-7.55-.013-12.281.005l.015 4c4.723-.018 9.064-.018 12.25-.005 1.593.007 2.893.017 3.805.03a69.96 69.96 0 0 1 1.295.03c.024 0 .022 0 .003-.001l-.08-.01c-.013-.002-.147-.021-.313-.076l1.265-3.795zm-18.244-.173l-17.248.106.025 4 17.247-.106-.024-4zm-18.906 3.205l6.031 9.17 3.342-2.198-6.031-9.17-3.342 2.198zm6.025 9.161c3.279 5.041 7.375 11.327 9.109 13.946l3.335-2.208c-1.723-2.602-5.809-8.872-9.091-13.919l-3.353 2.181zm9.092 13.92c1.7 2.656 10.423 15.969 19.339 29.608l3.348-2.189c-8.931-13.66-17.632-26.941-19.318-29.575l-3.369 2.156zm19.339 29.608a4298.31 4298.31 0 0 1 11.435 17.578c1.465 2.267 2.649 4.109 3.467 5.392.409.642.723 1.139.933 1.477.106.17.179.291.224.366l.025.043c0-.001-.018-.033-.04-.081-.01-.022-.036-.078-.064-.155a1.985 1.985 0 0 1-.117-.672h4c0-.385-.119-.681-.12-.683-.029-.082-.058-.145-.071-.174a3.309 3.309 0 0 0-.072-.142c-.032-.06-.069-.122-.1-.175a24.05 24.05 0 0 0-.268-.438c-.222-.358-.546-.87-.957-1.516a1095.18 1095.18 0 0 0-3.481-5.413 4198.288 4198.288 0 0 0-11.446-17.596l-3.348 2.189zm15.966 23.315a1.97 1.97 0 0 1 .595-.879c.075-.062.132-.098.136-.101.017-.011.001.001-.072.04-.136.072-.356.182-.656.324-.593.28-1.418.646-2.329 1.024l1.533 3.694a57.573 57.573 0 0 0 2.503-1.101c.326-.153.617-.297.841-.417.107-.057.232-.127.348-.202a2.294 2.294 0 0 0 .485-.408c.068-.077.282-.323.41-.709l-3.794-1.265zm-2.339.413c-.944.4-1.811.796-2.451 1.113a13.09 13.09 0 0 0-.83.443 3.606 3.606 0 0 0-.397.266 2.311 2.311 0 0 0-.359.348 2.017 2.017 0 0 0-.361 1.927l3.795-1.265a1.987 1.987 0 0 1-.041 1.368 1.923 1.923 0 0 1-.299.505c-.129.158-.249.25-.269.266-.062.049-.088.06-.029.025.099-.059.287-.16.569-.3a42.773 42.773 0 0 1 2.231-1.012l-1.559-3.684zm-4.398 4.097c.081.243.192.413.217.453a2.122 2.122 0 0 0 .206.269 2.4 2.4 0 0 0 .11.117c.06.062.135.135.216.214.166.161.402.385.694.66a463.5 463.5 0 0 0 2.458 2.291c2.062 1.912 4.895 4.524 7.999 7.381l2.709-2.943a3306.41 3306.41 0 0 1-7.988-7.371 440.787 440.787 0 0 1-2.436-2.271 63.87 63.87 0 0 1-.793-.758c-.013-.013-.004-.004.016.018a1.824 1.824 0 0 1 .173.229c.024.037.133.205.214.446l-3.795 1.265zm11.905 11.389a471.346 471.346 0 0 1 8.234 7.703 149.239 149.239 0 0 1 2.711 2.665c.339.345.607.626.802.838.225.247.274.318.248.279l3.328-2.219a6.941 6.941 0 0 0-.625-.76c-.24-.263-.546-.581-.902-.943a147.052 147.052 0 0 0-2.789-2.742 466.639 466.639 0 0 0-8.308-7.772l-2.699 2.951zm11.972 11.449l.987 1.552 3.375-2.147-.988-1.552-3.374 2.147zm2.675 2.478h17.882v-4h-17.882v4zm17.882 0h17.882v-4h-17.882v4zm19.821-1.508l13.155-51.919-3.877-.982-13.156 51.918 3.878.983z"></path>
        <path id="permata-prima-6_fill" d="M4.797 24.416C4.62 23.746 0 .396 0 .079c0-.105 3.598-.105 8.042 0 10.969.247 14.46 1.2 18.023 4.762 1.87 1.904 2.963 3.95 3.774 7.125 1.27 5.008-.035 8.993-3.598 11.004-2.892 1.622-5.749 2.046-13.967 2.046-6.63 0-7.3-.07-7.477-.6z"></path>
        <path id="permata-prima-7_fill" d="M4.771 24.252c-.105-.459-1.164-5.82-2.363-11.922C1.244 6.228.186.938.045.55c-.176-.635 0-.635 3.633-.423 8.712.564 15.978 2.327 18.905 4.55 2.998 2.292 4.585 5.255 5.079 9.593.247 2.081-.282 4.303-1.34 5.643-2.117 2.68-11.005 5.115-18.835 5.115-2.328 0-2.54-.071-2.716-.776z"></path>
        <path id="permata-prima-8_fill" d="M9.417 15.71L0 .12 12.556.014c6.949-.035 12.662 0 12.733.07.176.141-5.784 29.733-6.172 30.615-.177.388-2.928-3.844-9.7-14.99z"></path>
    </defs>
</svg>