<?xml version="1.0" encoding="UTF-8"?>

<svg xmlns="http://www.w3.org/2000/svg" width="300" height="68"
     viewBox="0 0 657.01 147.83">
    <defs>
        <style>.cls-1{fill:#da1f3d;}.cls-2{fill:#fff;}.cls-3{fill:none;}</style>
    </defs>
    <title>smartfren</title>
    <rect class="cls-1" width="657.01" height="147.83"/>
    <path class="cls-2"
          d="M226.49,930.31c8.37,0,17.07,3.12,16.59,2.92l-2.43,6.71c-.88,2.4-3.34,1.68-7.18,1a34.86,34.86,0,0,0-6.82-.73c-6.8,0-9.12,2.84-9.12,5.7,0,4.54,4.31,5.43,9.46,6.15,7.6,1,17.68,3.94,17.68,14.48,0,6-1.47,15.65-20.7,15.65a46.69,46.69,0,0,1-19.65-4s1.21-3.23,2.3-5.84c1.16-2.86,2.9-2.78,4.36-2.2a27.88,27.88,0,0,0,10.86,2.26c6.24,0,10.74-.32,10.74-5.83,0-4.36-5.21-4.83-11.09-5.77-7.37-1.24-15.72-5-15.72-14.8,0-11.73,11.92-15.64,20.72-15.64"
          transform="translate(-86.36 -873.28)"/>
    <path class="cls-2"
          d="M254.37,937.75v43.36h12.08V944c1.24-1.85,4.68-3.34,8.72-3.34,5.34,0,8.29,3.67,8.29,7.55v32.9h12V944.17s1.64-3.56,8.48-3.56c9,0,8.61,8.55,8.61,8.55v28.38a3.54,3.54,0,0,0,3.71,3.57h8.34v-35s-.2-16.61-18.85-16.61c-11.42,0-15.53,3.52-15.53,3.52a30.06,30.06,0,0,0-14.83-3.57c-9.08,0-18,3.56-21,8.26"
          transform="translate(-86.36 -873.28)"/>
    <path class="cls-2"
          d="M625.41,947.72v33.39h-8.5c-2.19,0-3.79-1.83-3.79-4.68V948.21c0-3.88-1-8-9.63-8-4,0-8.45,1.95-9.73,3.79v37.11H581.57V937.75c3.79-3.8,12.63-8.26,21.74-8.26s13.36,2.41,16.14,4.09c5,3,6,8.27,6,14.14"
          transform="translate(-86.36 -873.28)"/>
    <path class="cls-2"
          d="M377.77,968.74V946.46s1.4-16.05-19.62-16.05c-15.9,0-19.78,3.54-19.78,3.54l1.75,6.36c.57,1.79,2.5,2.38,5.36,1.66a48.24,48.24,0,0,1,11.25-1.58c10.24-.11,8.79,5,8.79,8.73-3.34,0-10.51-.1-15.1.77-1.08.2-16.09,2.81-16.09,17.27s13.29,14.62,19.68,14.62c9.35,0,19.53-1.33,23.76-3.88Zm-12.14,1.88s-5.06,1.51-7.39,1.51c-2.14,0-12.23.63-12.23-5.87,0-6.21,6.31-7.38,7-7.55,4-1,12.5-.68,12.5-.68Z"
          transform="translate(-86.36 -873.28)"/>
    <path class="cls-2"
          d="M389.09,947v34.43h12.1V945.92s-.55-5,5.47-5.2c.08,0,4.67.45,4.77.47a4.84,4.84,0,0,0,5.51-3.92,40.15,40.15,0,0,1,1.16-4.95,40.23,40.23,0,0,0-15.49-1.42c-.61.1-13.52,1.77-13.52,16.08"
          transform="translate(-86.36 -873.28)"/>
    <path class="cls-2"
          d="M493.65,947v34.43h12.14V945.92s-.57-5,5.43-5.2l4.81.47a4.8,4.8,0,0,0,5.47-3.92,47.09,47.09,0,0,1,1.15-4.95,40.19,40.19,0,0,0-15.49-1.42c-.62.1-13.51,1.77-13.51,16.08"
          transform="translate(-86.36 -873.28)"/>
    <path class="cls-2"
          d="M425.25,964.15s-1.7,17.33,17.26,17.5h1.8a26.38,26.38,0,0,0,7.53-.83s-.23-1.6-.62-4.86-3.14-4.3-6.05-4.3h-1.7c-5-.15-6.18-4.72-6.18-9.82V940.61h7.12a5.53,5.53,0,0,0,5.56-5.76V931H437.8V916.91s-7.79,1.84-9.07,2.25a5.14,5.14,0,0,0-3.48,5.14Z"
          transform="translate(-86.36 -873.28)"/>
    <path class="cls-2"
          d="M461.84,931v50.45h11.93v-40.8h8.54c2.82,0,4.95-2.71,4.95-5.31V931H473.87v-5.47s-.2-5.3,6.64-5.45h5.38c2.73,0,3.71-1.11,4.09-3.11s1-6,1-6a77.22,77.22,0,0,0-7.85-.88,42.48,42.48,0,0,0-4.59,0c-2.43,0-16.7.6-16.7,20.92h0"
          transform="translate(-86.36 -873.28)"/>
    <path class="cls-2"
          d="M572,954.76c.08-2.63.7-25.36-22.38-25.46s-24.48,21.32-24.48,26.55,1.4,25.46,24.73,25.46c12.84,0,17.16-2.65,17.16-2.65s-.48-2.23-1.13-4.67-3.19-4-7-3.1a25,25,0,0,1-6.56.88c-6.88,0-14.52-3.65-14.52-11.66h29.39c2.89,0,4.63-2.75,4.78-5.35m-12-3.6H537.5s.45-12.45,11.17-12.45c11.76,0,11.28,12.45,11.28,12.45"
          transform="translate(-86.36 -873.28)"/>
    <rect class="cls-3" width="657.01" height="147.83"/>
</svg>
