<?xml version="1.0" encoding="UTF-8"?>

<svg xmlns="http://www.w3.org/2000/svg" width="188" height="150" viewBox="0 0 471.3 376.6">
  <path fill="#00c89f" d="M283 4c4.2-2.7 9.4-5 14.5-3.5 4.5 1.7 6 7 6 11.4v165.4h156.4c4.2 0 9.2 1.4 10.8 5.6 1.8 5.1-.8 10.3-3.1 14.7-13.7 25.1-28 50-42.5 74.6a32 32 0 0 1-17 12.8c-6 1.4-12.2 1.4-18.3 1.5H338c-7.5 0-16 .3-22 5.6-4.9 4.7-4.2 12.3-2.3 18.3 4.2 12.8 12.2 23.7 18.2 35.7-6.2-4.1-12-8.5-17.7-13.2a307.2 307.2 0 0 1-47.3-52c-40.8-56.5-61.9-125.7-65.7-195-.7-15.1 5.5-31.7 19.1-39.7L283 4z"/>
  <path fill="#002cba" d="M.6 114.6c2.2-4.6 7.6-6 12.2-5.9h95a35 35 0 0 1 16.3 3c5 2.8 8.8 7.2 12.6 11.3l34.7 39.4c.6.7 1.8 2.3 2.7 1 6.4-7 12.4-14.2 18.7-21.1a263.1 263.1 0 0 0 36 94.8 372.8 372.8 0 0 0 103 109c3.8 4.2 7.4 8.5 11.1 12.8 2.8 3.2 4.6 7.8 3 12-2 4-6.8 5.7-11 5.7h-96A35 35 0 0 1 223 374c-5.1-2.7-9-7-13-11.2l-34-39c-1-1-2-1.8-3-2.5-12.1 13.5-24 27.2-36 40.8-3.9 4.3-8 8.9-13.2 11.7a33.8 33.8 0 0 1-15.9 2.8H12c-4.6.1-10-1.8-11.5-6.6-1.4-5 1.5-9.5 4.7-13A31908 31908 0 0 1 105 242.7C71.5 204.2 37.7 166 4.3 127.4c-3-3.3-5.5-8.2-3.7-12.8z"/>
</svg>
