<?xml version="1.0" standalone="no"?>
<!DOCTYPE svg PUBLIC "-//W3C//DTD SVG 20010904//EN"
 "http://www.w3.org/TR/2001/REC-SVG-20010904/DTD/svg10.dtd">
<svg version="1.0" xmlns="http://www.w3.org/2000/svg"
 viewBox="0 0 512.000000 512.000000"
 preserveAspectRatio="xMidYMid meet">

<g transform="translate(0.000000,512.000000) scale(0.100000,-0.100000)"
fill="#000000" stroke="none">
<path d="M4385 4042 c-16 -11 -606 -596 -1310 -1301 -704 -705 -1284 -1281
-1290 -1281 -6 0 -244 234 -529 519 -571 571 -554 557 -645 530 -52 -15 -107
-75 -117 -124 -16 -88 -29 -74 604 -707 323 -324 601 -595 618 -603 40 -19
107 -19 142 -1 15 8 642 630 1394 1383 1364 1365 1367 1368 1373 1415 6 39 3
56 -16 95 -32 64 -66 86 -136 90 -45 3 -65 0 -88 -15z"/>
</g>
</svg>
